<?xml version="1.0" encoding="UTF-8" standalone="no"?>
<!-- Created with Inkscape (http://www.inkscape.org/) -->

<svg
   xmlns:dc="http://purl.org/dc/elements/1.1/"
   xmlns:cc="http://creativecommons.org/ns#"
   xmlns:rdf="http://www.w3.org/1999/02/22-rdf-syntax-ns#"
   xmlns:svg="http://www.w3.org/2000/svg"
   xmlns="http://www.w3.org/2000/svg"
   xmlns:xlink="http://www.w3.org/1999/xlink"
   xmlns:sodipodi="http://sodipodi.sourceforge.net/DTD/sodipodi-0.dtd"
   xmlns:inkscape="http://www.inkscape.org/namespaces/inkscape"
   width="64"
   height="64"
   id="svg2"
   version="1.1"
   inkscape:version="0.48.4 r9939"
   sodipodi:docname="qtcreator.svg">
  <defs
     id="defs4">
    <inkscape:perspective
       sodipodi:type="inkscape:persp3d"
       inkscape:vp_x="-7.7001276 : 37.974237 : 1"
       inkscape:vp_y="0 : 1000 : 0"
       inkscape:vp_z="30.411512 : 39.036324 : 1"
       inkscape:persp3d-origin="32 : 21.333333 : 1"
       id="perspective3852" />
    <linearGradient
       x1="48"
       y1="20.220806"
       x2="48"
       y2="138.66119"
       id="linearGradient2862"
       xlink:href="#linearGradient3737-6"
       gradientUnits="userSpaceOnUse" />
    <linearGradient
       id="linearGradient3737-6">
      <stop
         id="stop3739-1"
         style="stop-color:#ffffff;stop-opacity:1"
         offset="0" />
      <stop
         id="stop3741-5"
         style="stop-color:#ffffff;stop-opacity:0"
         offset="1" />
    </linearGradient>
    <clipPath
       id="clipPath3613">
      <rect
         width="84"
         height="84"
         rx="6"
         ry="6"
         x="6"
         y="6"
         id="rect3615"
         style="fill:#ffffff;fill-opacity:1;fill-rule:nonzero;stroke:none" />
    </clipPath>
    <filter
       x="-0.192"
       y="-0.192"
       width="1.3839999"
       height="1.3839999"
       color-interpolation-filters="sRGB"
       id="filter3794-9">
      <feGaussianBlur
         id="feGaussianBlur3796-4"
         stdDeviation="5.28" />
    </filter>
    <linearGradient
       y2="138.66119"
       x2="48"
       y1="20.220806"
       x1="48"
       gradientUnits="userSpaceOnUse"
       id="linearGradient3134"
       xlink:href="#linearGradient3737-6"
       inkscape:collect="always" />
    <linearGradient
       inkscape:collect="always"
       xlink:href="#linearGradient3700"
       id="linearGradient3136"
       gradientUnits="userSpaceOnUse"
       x1="48"
       y1="90"
       x2="48"
       y2="5.9877172" />
    <linearGradient
       id="linearGradient3700">
      <stop
         id="stop3702"
         style="stop-color:#84cf18;stop-opacity:1"
         offset="0" />
      <stop
         id="stop3704"
         style="stop-color:#bff571;stop-opacity:1"
         offset="1" />
    </linearGradient>
    <linearGradient
       inkscape:collect="always"
       xlink:href="#linearGradient3737"
       id="linearGradient3138"
       gradientUnits="userSpaceOnUse"
       x1="36.357143"
       y1="6"
       x2="36.357143"
       y2="63.893143" />
    <linearGradient
       id="linearGradient3737">
      <stop
         id="stop3739"
         style="stop-color:#ffffff;stop-opacity:1"
         offset="0" />
      <stop
         id="stop3741"
         style="stop-color:#ffffff;stop-opacity:0"
         offset="1" />
    </linearGradient>
    <radialGradient
       inkscape:collect="always"
       xlink:href="#linearGradient3737"
       id="radialGradient3140"
       gradientUnits="userSpaceOnUse"
       gradientTransform="matrix(1.1573129,0,0,0.99590774,-7.5510206,0.19713193)"
       cx="48"
       cy="90.171875"
       fx="48"
       fy="90.171875"
       r="42" />
    <linearGradient
       id="linearGradient3163">
      <stop
         id="stop3165"
         style="stop-color:#ffffff;stop-opacity:1"
         offset="0" />
      <stop
         id="stop3167"
         style="stop-color:#ffffff;stop-opacity:0"
         offset="1" />
    </linearGradient>
    <radialGradient
       inkscape:collect="always"
       xlink:href="#linearGradient3737"
       id="radialGradient3142"
       gradientUnits="userSpaceOnUse"
       gradientTransform="matrix(1.1573129,0,0,0.99590774,-7.5510206,0.19713193)"
       cx="48"
       cy="90.171875"
       fx="48"
       fy="90.171875"
       r="42" />
    <linearGradient
       id="linearGradient3170">
      <stop
         id="stop3172"
         style="stop-color:#ffffff;stop-opacity:1"
         offset="0" />
      <stop
         id="stop3174"
         style="stop-color:#ffffff;stop-opacity:0"
         offset="1" />
    </linearGradient>
    <radialGradient
       r="42"
       fy="90.171875"
       fx="48"
       cy="90.171875"
       cx="48"
       gradientTransform="matrix(1.1573129,0,0,0.99590774,-7.5510206,0.19713193)"
       gradientUnits="userSpaceOnUse"
       id="radialGradient3181"
       xlink:href="#linearGradient3737"
       inkscape:collect="always" />
    <linearGradient
       x1="114.70967"
       y1="239.55312"
       x2="96.074165"
       y2="306.33884"
       id="linearGradient2890"
       xlink:href="#linearGradient3593"
       gradientUnits="userSpaceOnUse"
       gradientTransform="matrix(0.66133595,0,0,0.66133595,-26.270146,-129.43622)" />
    <linearGradient
       id="linearGradient3593">
      <stop
         id="stop3595"
         style="stop-color:#0362b2;stop-opacity:1"
         offset="0" />
      <stop
         offset="0.5"
         style="stop-color:#348ed6;stop-opacity:1;"
         id="stop3899" />
      <stop
         id="stop3597"
         style="stop-color:#66bbfb;stop-opacity:1"
         offset="1" />
    </linearGradient>
    <linearGradient
       x1="100.5444"
       y1="268.56995"
       x2="105.47408"
       y2="246.0843"
       id="linearGradient2892"
       xlink:href="#linearGradient4001"
       gradientUnits="userSpaceOnUse"
       gradientTransform="matrix(0.66133595,0,0,0.66133595,-26.270146,-129.43622)" />
    <linearGradient
       id="linearGradient4001">
      <stop
         id="stop4003"
         style="stop-color:#ffffff;stop-opacity:1"
         offset="0" />
      <stop
         id="stop4005"
         style="stop-color:#c7c7c7;stop-opacity:1"
         offset="1" />
    </linearGradient>
  </defs>
  <sodipodi:namedview
     id="base"
     pagecolor="#ffffff"
     bordercolor="#666666"
     borderopacity="1.0"
     inkscape:pageopacity="0.0"
     inkscape:pageshadow="2"
     inkscape:zoom="3.77"
     inkscape:cx="47.77627"
     inkscape:cy="26.374836"
     inkscape:document-units="px"
     inkscape:current-layer="layer1"
     showgrid="false"
     inkscape:window-width="1366"
     inkscape:window-height="744"
     inkscape:window-x="0"
     inkscape:window-y="24"
     inkscape:window-maximized="1">
    <inkscape:grid
       type="xygrid"
       id="grid3811"
       empspacing="1"
       visible="true"
       enabled="true"
       snapvisiblegridlinesonly="true" />
  </sodipodi:namedview>
  <metadata
     id="metadata7">
    <rdf:RDF>
      <cc:Work
         rdf:about="">
        <dc:format>image/svg+xml</dc:format>
        <dc:type
           rdf:resource="http://purl.org/dc/dcmitype/StillImage" />
        <dc:title></dc:title>
      </cc:Work>
    </rdf:RDF>
  </metadata>
  <g
     inkscape:label="Calque 1"
     inkscape:groupmode="layer"
     id="layer1"
     transform="translate(0,-988.36218)">
    <path
       style="fill:#f2f2f2;fill-opacity:1;stroke:#024c1c;stroke-width:0.98461538999999998;stroke-opacity:1"
       d="m 0.49230769,988.85449 43.50769231,0 19.507692,19.50771 0,43.5077 -63.01538431,0 z"
       id="rect3813"
       inkscape:connector-curvature="0"
       sodipodi:nodetypes="cccccc" />
    <path
       style="fill:#87d11c;fill-opacity:1;stroke:#a8df87;stroke-width:0.95399999999999996;stroke-miterlimit:4;stroke-opacity:1"
       d="m 1.476923,989.83911 42.523077,0 18.523077,18.52309 0,42.5231 -61.046154,0 z"
       id="rect3813-9"
       inkscape:connector-curvature="0"
       sodipodi:nodetypes="cccccc" />
    <g
       id="g2877"
       transform="matrix(0.69989434,0,0,0.69989434,-2.9718224,985.50547)">
      <path
         style="fill:#024c88;fill-opacity:1;stroke:none"
         id="path3596"
         inkscape:connector-curvature="0"
         d="m 59.269524,13.80502 c -3.005959,0.10133 -5.757571,1.216633 -7.130029,3.410014 -0.415299,0.66371 -0.735407,1.362807 -1.01561,2.024501 -0.605168,1.429107 -0.608947,3.012146 -0.100399,4.444191 0.33083,0.931584 0.957716,1.783424 1.736011,2.562676 l -2.356013,2.521343 C 48.773882,27.833893 47.025559,27.02074 45.13347,26.391069 40.822464,24.956407 36.458128,24.603934 32.402751,25.130398 l -0.392666,-0.723336 c 0.280947,-0.238485 0.524829,-0.509421 0.723333,-0.826671 0.36846,-0.594884 0.698889,-1.050115 0.986095,-1.629723 0.654127,-1.320032 0.3451,-3.163606 -0.386758,-4.404967 -0.731858,-1.24136 -2.008271,-2.266722 -3.678683,-2.914011 -1.670387,-0.647283 -3.452382,-0.811492 -5.02202,-0.537336 -1.569638,0.274157 -2.989886,1.007407 -3.782015,2.273343 -0.36917,0.597457 -0.547743,1.30717 -0.838476,1.895434 -0.653341,1.321965 -0.491792,2.893114 0.239143,4.139256 0.730933,1.246142 2.006517,2.286708 3.678681,2.934679 0.907611,0.351704 1.84796,0.464627 2.769346,0.537335 l 0.330667,0.620003 c -6.304558,2.183221 -10.951205,7.328547 -12.828145,13.273961 -3.346314,10.599802 4.322888,22.007305 16.982159,26.220196 8.508277,2.831472 17.24814,1.564337 23.270755,-2.748679 l 3.43068,3.286017 c -0.0026,0.0051 0.0026,0.0153 0,0.02061 -0.384628,0.758484 -0.857001,1.553461 -1.160692,2.314262 -1.142599,2.862399 -0.733175,6.055081 0.623363,8.907784 1.415518,2.976725 4.050384,5.615302 7.564028,7.295359 7.026545,3.359755 15.199452,1.696722 18.145414,-4.112682 0.384628,-0.758484 0.815249,-1.386455 1.11894,-2.147248 1.1426,-2.862407 0.774935,-6.222094 -0.581611,-9.074797 -1.41551,-2.976725 -4.050384,-5.615302 -7.564037,-7.295359 -4.870071,-2.328644 -10.170293,-2.169539 -14.032714,0.0413 l -3.451347,-3.265317 c 0.989035,-1.303201 1.814964,-2.734024 2.376671,-4.319352 0.163405,-0.46118 0.313874,-0.919051 0.434007,-1.384668 0.0068,-0.02787 0.01359,-0.05472 0.02061,-0.08268 0.06909,-0.173658 0.143808,-0.339286 0.206662,-0.516672 C 64.265063,45.339923 61.039916,37.076776 54.33011,31.49568 l 2.39738,-2.542011 c 0.05677,0.02249 0.108837,0.06078 0.165329,0.08266 5.229904,1.870899 11.967892,0.785382 13.725663,-3.544576 1.076284,-2.59202 0.572745,-4.793237 -0.436939,-6.520097 -1.033019,-1.766766 -2.886426,-3.268336 -5.332021,-4.216017 -1.835101,-0.711115 -3.777867,-1.011421 -5.580023,-0.950671 l 0,-3.2e-5 z" />
      <path
         style="fill:#348ed6;fill-opacity:1;stroke:none"
         id="path3650"
         inkscape:connector-curvature="0"
         d="m 59.310857,14.75569 c -2.788823,0.09401 -5.229049,1.139357 -6.365356,2.955346 -1.439536,2.300582 -0.3441,5.143044 2.43867,7.10936 L 50.589488,29.94575 C 48.833187,28.878896 46.924032,27.971913 44.844135,27.27974 40.436202,25.812824 35.953017,25.484722 31.865413,26.122402 L 30.08807,22.795055 c 1.090366,-0.309929 1.996745,-0.889311 2.500677,-1.694673 1.201853,-1.920731 -0.27032,-4.411428 -3.286009,-5.580022 -3.015689,-1.168594 -6.444848,-0.577392 -7.646697,1.343338 -1.201853,1.920732 0.270321,4.432095 3.286013,5.600689 0.998244,0.386829 2.046422,0.585269 3.038014,0.599336 l 1.839342,3.451347 c -6.356754,1.551957 -11.504469,5.548318 -13.536721,11.284048 -3.507217,9.898589 3.585849,21.234909 15.851393,25.316767 8.546925,2.844332 17.347897,1.417416 23.084759,-3.058681 l 5.063352,4.815349 c -0.60958,0.626185 -1.146447,1.312196 -1.550006,2.108011 -2.654506,5.234657 0.593334,12.067229 7.254027,15.252062 6.660701,3.184824 14.230236,1.535308 16.884741,-3.69935 C 85.52547,73.298619 82.27763,66.466047 75.61692,63.281214 70.734622,60.946731 65.371632,61.219281 61.811533,63.591216 L 56.706849,58.7552 c 1.770742,-1.726802 3.148408,-3.787152 3.988676,-6.158693 2.715427,-7.663888 -0.935407,-16.202826 -8.411367,-21.555419 l 4.877356,-5.187354 c 0.240837,0.111336 0.488156,0.21086 0.744,0.310001 4.561993,1.767791 9.73461,0.859578 11.552712,-2.046008 1.818111,-2.905586 -0.398027,-6.705575 -4.960012,-8.473367 -1.710744,-0.662923 -3.514063,-0.945075 -5.187357,-0.88867 z" />
      <path
         style="font-size:48px;font-style:normal;font-variant:normal;font-weight:bold;font-stretch:normal;text-align:start;line-height:125%;writing-mode:lr-tb;text-anchor:start;fill:#024c88;fill-opacity:1;stroke:none;font-family:Lohit Hindi;-inkscape-font-specification:Lohit Hindi Bold"
         id="path4016"
         transform="matrix(0.66133595,0,0,0.66133595,-26.270146,-129.43622)"
         d="m 94.9375,243.8125 c -2.034588,0.0427 -4.043899,0.16751 -6.0625,0.375 a 1.7928089,1.7928089 0 0 0 -1.4375,1 L 85,250.28125 a 1.7928089,1.7928089 0 0 0 2.09375,2.5 c 1.572446,-0.43144 3.226732,-0.70738 4.9375,-0.84375 1.743771,-0.13901 3.566234,-0.14476 5.53125,0.0312 2.49136,0.2232 4.18551,0.7225 4.84375,1.125 a 1.7928089,1.7928089 0 0 0 0.0312,0 c 0.0503,0.03 0.024,0.036 0.0625,0.0625 l -4.25,-0.46875 c -5.544372,-0.62518 -9.807064,-0.4465 -13.15625,0.71875 -3.330879,1.16807 -5.933993,3.52321 -7.625,6.875 -1.488965,2.95131 -1.7733,6.07664 -0.4375,8.8125 a 1.7928089,1.7928089 0 0 0 0.03125,0.0312 c 1.450191,2.88118 4.34853,4.7953 8.21875,5.6875 2.925232,0.67435 5.771417,0.77751 8.40625,0.1875 1.204384,-0.27974 2.37195,-0.75683 3.53125,-1.3125 l -0.25,0.84375 a 1.7928089,1.7928089 0 0 0 1.3125,2.25 l 13.875,3.125 a 1.7928089,1.7928089 0 0 0 2.1875,-1.46875 L 117.625,258.75 c 0.80369,-4.84067 -0.38716,-8.81779 -3.46875,-11.1875 -2.87162,-2.24445 -7.17491,-3.25949 -12.90625,-3.625 -2.081409,-0.13266 -4.198792,-0.17898 -6.28125,-0.125 -0.01036,2.7e-4 -0.02089,-2.7e-4 -0.03125,0 z m -0.78125,17.3125 c 0.741323,-0.0297 1.654575,0.0415 2.6875,0.1875 l 3.5625,0.5 c -0.489477,1.03355 -1.202809,1.93022 -2.40625,2.625 -0.0078,0.005 -0.0234,-0.005 -0.03125,0 -1.583121,0.88763 -3.136921,1.16903 -4.875,0.84375 -1.394964,-0.26107 -2.097659,-0.72172 -2.375,-1.0625 -0.246129,-0.3413 -0.318696,-0.46673 0,-1.25 0.319759,-0.78593 0.741784,-1.2185 1.625,-1.53125 0.0082,-0.003 0.02299,0.003 0.03125,0 0.485281,-0.16242 1.062331,-0.28366 1.78125,-0.3125 z"
         inkscape:connector-curvature="0" />
      <path
         style="opacity:0;fill:#ffffff;fill-opacity:1;stroke:none"
         id="path3601"
         inkscape:connector-curvature="0"
         d="m 59.310857,14.75569 c -2.788823,0.09401 -5.229049,1.139357 -6.365356,2.955346 -0.556268,0.888987 -0.730541,1.862348 -0.57867,2.831344 0.08645,-0.518276 0.276082,-1.025104 0.57867,-1.508673 1.136307,-1.815989 3.576533,-2.861336 6.365356,-2.955345 1.673294,-0.05641 3.476613,0.225747 5.187357,0.888671 3.136361,1.215357 5.168521,3.394604 5.538683,5.580021 0.39441,-2.587681 -1.763586,-5.439825 -5.538683,-6.902694 -1.710744,-0.662923 -3.514063,-0.945075 -5.187357,-0.88867 z m -33.438799,0.165334 c -1.846516,0.05674 -3.464858,0.742218 -4.216017,1.942674 -0.403673,0.645127 -0.487484,1.361546 -0.330668,2.066676 0.06888,-0.254774 0.180439,-0.503912 0.330668,-0.744003 1.201849,-1.920732 4.631008,-2.511932 7.646697,-1.343339 1.9838,0.76873 3.290566,2.118319 3.616685,3.492681 0.466199,-1.774775 -0.987634,-3.796585 -3.616685,-4.815353 -1.130886,-0.438221 -2.322761,-0.633368 -3.43068,-0.599336 z m 4.815348,8.969369 c -0.193733,0.07879 -0.390571,0.167993 -0.599336,0.227334 l 1.777343,3.327347 c 4.087604,-0.63768 8.570789,-0.309578 12.978722,1.157337 2.079897,0.692175 3.989052,1.599157 5.745353,2.666011 l 4.794683,-5.125354 C 55.133492,25.965937 54.90418,25.775379 54.681503,25.585066 L 50.589488,29.94575 C 48.833187,28.878896 46.924032,27.971913 44.844135,27.27974 40.436202,25.812824 35.953017,25.484722 31.865413,26.122402 l -1.178007,-2.232009 z m -1.487999,2.790011 c -6.068479,1.65578 -10.951374,5.571821 -12.916718,11.118714 -0.679111,1.916688 -0.944371,3.887294 -0.868003,5.848684 0.06709,-1.521346 0.341508,-3.040058 0.868003,-4.526014 2.032252,-5.735729 7.179967,-9.732089 13.536721,-11.284046 L 29.199407,26.680404 z M 53.0075,31.59909 52.284158,32.363759 c 5.561315,3.981757 8.997596,9.725682 9.279373,15.562062 C 61.771056,41.906549 58.541052,35.862167 53.0075,31.59909 z m 4.360684,27.796779 c -0.214861,0.233604 -0.4331,0.459436 -0.661335,0.682001 l 5.104684,4.836024 c 3.560099,-2.371943 8.923089,-2.644485 13.805387,-0.310001 4.843291,2.315826 7.865565,6.569597 8.142707,10.726039 C 84.121118,70.774189 80.97985,65.845505 75.61692,63.281214 70.734622,60.946731 65.371632,61.219281 61.811533,63.591216 l -4.443349,-4.195347 z m 2.27334,6.200026 c -0.343612,0.425568 -0.65588,0.884858 -0.909337,1.384669 -0.7243,1.428309 -0.992661,2.966336 -0.888672,4.526022 0.08749,-1.102456 0.371461,-2.183416 0.888672,-3.203352 0.403559,-0.795807 0.940426,-1.481827 1.550006,-2.108002 l -0.640669,-0.599337 z" />
      <path
         style="font-size:48px;font-style:normal;font-variant:normal;font-weight:bold;font-stretch:normal;text-align:start;line-height:125%;writing-mode:lr-tb;text-anchor:start;fill:#ffffff;fill-opacity:1;stroke:none;font-family:Lohit Hindi;-inkscape-font-specification:Lohit Hindi Bold"
         id="path3999"
         inkscape:connector-curvature="0"
         d="m 37.9378,42.205632 c -1.471275,-0.208004 -2.634191,-0.160097 -3.515116,0.139747 -0.867637,0.301502 -1.46387,0.851854 -1.794674,1.66494 -0.310762,0.763768 -0.269883,1.427395 0.13442,1.988015 0.431536,0.563981 1.197108,0.953047 2.304925,1.160376 1.411328,0.264129 2.771534,0.03591 4.047682,-0.685413 1.270042,-0.728104 2.088173,-1.746493 2.452025,-3.02477 0,0 0.199676,-0.701538 0.199676,-0.701538 0,0 -3.828938,-0.541357 -3.828938,-0.541357 m 12.401753,-0.698213 c 0,0 -2.161467,13.017806 -2.161467,13.017806 0,0 -9.176384,-2.063634 -9.176384,-2.063634 0,0 0.991147,-3.48229 0.991147,-3.48229 -1.495395,1.16206 -3.031943,1.931745 -4.58248,2.291885 -1.536266,0.344015 -3.221488,0.302913 -5.019574,-0.111599 -2.337536,-0.538868 -3.874554,-1.603309 -4.648848,-3.141636 -0.714133,-1.462622 -0.604646,-3.059912 0.267096,-4.787817 1.005862,-1.993743 2.452461,-3.287488 4.383368,-3.964615 1.944836,-0.67664 4.625719,-0.822791 8.196805,-0.420121 0,0 4.154672,0.46849 4.154672,0.46849 0,0 0.121432,-0.426611 0.121432,-0.426611 0.241052,-0.846997 -0.02941,-1.494412 -0.792121,-1.949487 -0.740716,-0.452929 -1.989451,-0.754448 -3.722469,-0.909707 -1.367867,-0.122525 -2.654096,-0.133821 -3.869886,-0.0369 -1.200118,0.09566 -2.354013,0.296569 -3.469944,0.602757 0,0 1.609047,-3.360363 1.609047,-3.360363 1.313837,-0.135044 2.627435,-0.216627 3.944573,-0.243675 1.344166,-0.03551 2.690075,-0.01111 4.041859,0.07505 3.677332,0.234516 6.342492,0.937491 7.898364,2.153562 1.674106,1.287369 2.32377,3.34388 1.83481,6.288944" />
    </g>
    <g
       id="g3991">
      <path
         inkscape:connector-curvature="0"
         id="path3106"
         d="m 44,988.36218 0,20.00002 20,0 z"
         style="fill:#ffffff;fill-opacity:1;stroke:none" />
      <path
         id="path3106-4"
         transform="translate(0,988.36218)"
         d="M 44 0 L 44 20 L 64 20 L 44 0 z M 45 2.40625 L 61.59375 19 L 45 19 L 45 2.40625 z "
         style="font-size:medium;font-style:normal;font-variant:normal;font-weight:normal;font-stretch:normal;text-indent:0;text-align:start;text-decoration:none;line-height:normal;letter-spacing:normal;word-spacing:normal;text-transform:none;direction:ltr;block-progression:tb;writing-mode:lr-tb;text-anchor:start;baseline-shift:baseline;color:#000000;fill:#024c1c;fill-opacity:1;fill-rule:nonzero;stroke:none;stroke-width:2;marker:none;visibility:visible;display:inline;overflow:visible;enable-background:accumulate;font-family:Sans;-inkscape-font-specification:Sans" />
    </g>
    <path
       style="fill:#000000;fill-opacity:0.25098039;stroke:none"
       d="m 63.999998,1008.3622 0,16 -15.999998,-16 z"
       id="path3001"
       inkscape:connector-curvature="0"
       sodipodi:nodetypes="cccc" />
  </g>
</svg>
