<?xml version="1.0" encoding="UTF-8" standalone="no"?>
<!-- Created with Inkscape (http://www.inkscape.org/) -->

<svg
   xmlns:dc="http://purl.org/dc/elements/1.1/"
   xmlns:cc="http://creativecommons.org/ns#"
   xmlns:rdf="http://www.w3.org/1999/02/22-rdf-syntax-ns#"
   xmlns:svg="http://www.w3.org/2000/svg"
   xmlns="http://www.w3.org/2000/svg"
   xmlns:xlink="http://www.w3.org/1999/xlink"
   xmlns:sodipodi="http://sodipodi.sourceforge.net/DTD/sodipodi-0.dtd"
   xmlns:inkscape="http://www.inkscape.org/namespaces/inkscape"
   width="64"
   height="64"
   id="svg2"
   version="1.1"
   inkscape:version="0.48.4 r9939"
   sodipodi:docname="blender.svg">
  <defs
     id="defs4">
    <inkscape:perspective
       sodipodi:type="inkscape:persp3d"
       inkscape:vp_x="-7.7001276 : 37.974237 : 1"
       inkscape:vp_y="0 : 1000 : 0"
       inkscape:vp_z="30.411512 : 39.036324 : 1"
       inkscape:persp3d-origin="32 : 21.333333 : 1"
       id="perspective3852" />
    <linearGradient
       gradientTransform="matrix(0.058,0,0,0.05257,-1.57492,-1.41742)"
       xlink:href="#linearGradient4038"
       id="linearGradient4950"
       y1="212"
       y2="100"
       gradientUnits="userSpaceOnUse"
       x2="0" />
    <linearGradient
       id="linearGradient4038">
      <stop
         offset="0"
         style="stop-color:#ff8900"
         id="stop12" />
      <stop
         offset="1"
         style="stop-color:#ffa53d"
         id="stop14" />
    </linearGradient>
    <linearGradient
       gradientTransform="matrix(1.10528,0,0,1.10528,-134.28255,-295.77052)"
       xlink:href="#linearGradient4460"
       id="linearGradient3012"
       y1="279.09601"
       y2="268.32999"
       gradientUnits="userSpaceOnUse"
       x2="0" />
    <linearGradient
       id="linearGradient4460">
      <stop
         offset="0"
         style="stop-color:#3e74a0"
         id="stop9" />
      <stop
         offset="1"
         style="stop-color:#5b91bf"
         id="stop11" />
    </linearGradient>
    <linearGradient
       gradientTransform="matrix(3.543307,0,0,3.543307,-52.470165,1002.101)"
       xlink:href="#linearGradient3863"
       id="linearGradient3869"
       y1="10.169"
       x1="7.823"
       y2="3.0280001"
       x2="7.7709999"
       gradientUnits="userSpaceOnUse" />
    <linearGradient
       id="linearGradient3863">
      <stop
         offset="0"
         style="stop-color:#f7853a"
         id="stop14-2" />
      <stop
         id="stop3865"
         style="stop-color:#fa9b56;stop-opacity:1;"
         offset="0.5" />
      <stop
         offset="1"
         style="stop-color:#fdb273"
         id="stop16" />
    </linearGradient>
    <linearGradient
       gradientTransform="matrix(1.10528,0,0,1.10528,-134.28255,-295.77052)"
       xlink:href="#linearGradient4460-9"
       id="linearGradient3012-7"
       y1="279.09601"
       y2="268.32999"
       gradientUnits="userSpaceOnUse"
       x2="0" />
    <linearGradient
       id="linearGradient4460-9">
      <stop
         offset="0"
         style="stop-color:#3e74a0"
         id="stop9-6" />
      <stop
         offset="1"
         style="stop-color:#5b91bf"
         id="stop11-6" />
    </linearGradient>
  </defs>
  <sodipodi:namedview
     id="base"
     pagecolor="#ffffff"
     bordercolor="#666666"
     borderopacity="1.0"
     inkscape:pageopacity="0.0"
     inkscape:pageshadow="2"
     inkscape:zoom="8.1485433"
     inkscape:cx="7.8717787"
     inkscape:cy="31.10842"
     inkscape:document-units="px"
     inkscape:current-layer="layer1"
     showgrid="false"
     inkscape:window-width="1366"
     inkscape:window-height="744"
     inkscape:window-x="0"
     inkscape:window-y="24"
     inkscape:window-maximized="1">
    <inkscape:grid
       type="xygrid"
       id="grid3811"
       empspacing="1"
       visible="true"
       enabled="true"
       snapvisiblegridlinesonly="true" />
  </sodipodi:namedview>
  <metadata
     id="metadata7">
    <rdf:RDF>
      <cc:Work
         rdf:about="">
        <dc:format>image/svg+xml</dc:format>
        <dc:type
           rdf:resource="http://purl.org/dc/dcmitype/StillImage" />
        <dc:title></dc:title>
      </cc:Work>
    </rdf:RDF>
  </metadata>
  <g
     inkscape:label="Calque 1"
     inkscape:groupmode="layer"
     id="layer1"
     transform="translate(0,-988.36218)">
    <path
       style="fill:#f0f0f0;fill-opacity:1;stroke:#3f6c91;stroke-width:0.98461538999999998;stroke-opacity:1"
       d="m 0.49230769,988.85449 43.50769231,0 19.507692,19.50771 0,43.5077 -63.01538431,0 z"
       id="rect3813"
       inkscape:connector-curvature="0"
       sodipodi:nodetypes="cccccc" />
    <path
       style="fill:#4b81ad;fill-opacity:1;stroke:#cadae8;stroke-width:0.95399999999999996;stroke-miterlimit:4;stroke-opacity:1"
       d="m 1.476923,989.83911 42.523077,0 18.523077,18.52309 0,42.5231 -61.046154,0 z"
       id="rect3813-9"
       inkscape:connector-curvature="0"
       sodipodi:nodetypes="cccccc" />
    <g
       id="g3991">
      <path
         inkscape:connector-curvature="0"
         id="path3106"
         d="m 44,988.36218 0,20.00002 20,0 z"
         style="fill:#a4c1d8;fill-opacity:1;stroke:none" />
      <path
         id="path3106-4"
         transform="translate(0,988.36218)"
         d="M 44 0 L 44 20 L 64 20 L 44 0 z M 45 2.40625 L 61.59375 19 L 45 19 L 45 2.40625 z "
         style="font-size:medium;font-style:normal;font-variant:normal;font-weight:normal;font-stretch:normal;text-indent:0;text-align:start;text-decoration:none;line-height:normal;letter-spacing:normal;word-spacing:normal;text-transform:none;direction:ltr;block-progression:tb;writing-mode:lr-tb;text-anchor:start;baseline-shift:baseline;color:#000000;fill:#3f6c91;fill-opacity:1;fill-rule:nonzero;stroke:none;stroke-width:2;marker:none;visibility:visible;display:inline;overflow:visible;enable-background:accumulate;font-family:Sans;-inkscape-font-specification:Sans" />
    </g>
    <path
       style="fill:#000000;stroke:none;fill-opacity:0.25098041"
       d="m 64,1008.3622 0,16 -16,-16 z"
       id="path3001"
       inkscape:connector-curvature="0"
       sodipodi:nodetypes="cccc" />
    <g
       id="g3071"
       transform="matrix(1.7552076,0,0,1.7552076,80.443566,-780.66827)">
      <path
         id="path24"
         d="m -16.829291,1029.0073 a 8.0000482,7.999992 0 1 1 -16.000096,0 8.0000482,7.999992 0 1 1 16.000096,0 z"
         style="fill:#f9f9f9"
         inkscape:connector-curvature="0" />
      <path
         id="path26"
         d="m -27.788415,1014.101 c -0.428864,0 -0.86531,0.16 -1.226569,0.4456 -0.362924,0.2857 -0.598934,0.6665 -0.629009,1.1141 -0.03008,0.4476 0.137558,0.8989 0.471757,1.2096 l 0,0.031 c 0.783827,0.6978 1.599745,1.4174 2.390237,2.1327 l -8.869038,0 c -0.630419,0 -1.164488,0.1484 -1.572524,0.4774 -0.408037,0.3291 -0.668143,0.8209 -0.754812,1.3688 -0.169653,1.0726 0.57646,2.2918 1.792678,2.2918 l 3.86841,0 -8.082776,6.7481 c 8.13e-4,0 -0.0072,-0.017 -0.03146,0 -0.493962,0.4272 -0.842612,1.0189 -0.974953,1.6232 -0.132339,0.6044 -0.06793,1.2435 0.283055,1.7508 0.713656,1.0308 2.146502,1.0044 3.145049,0.096 l 4.245815,-3.9152 c 0.0068,0.457 0.113305,1.1695 0.283054,1.7826 0.348548,1.2529 0.942911,2.4198 1.761228,3.4377 0.839041,1.0439 1.862654,1.8891 3.050697,2.4827 1.249952,0.6236 2.593818,0.9256 3.994212,0.9231 1.400323,0 2.745,-0.3269 3.994211,-0.955 1.186889,-0.5991 2.243662,-1.436 3.082149,-2.4827 0.816162,-1.0216 1.381369,-2.1845 1.729775,-3.4377 0.176457,-0.6345 0.300154,-1.2949 0.345969,-1.9416 0.04404,-0.6362 0.01736,-1.2743 -0.06289,-1.9098 -0.155859,-1.2407 -0.516982,-2.4107 -1.100788,-3.4697 -0.45756,-0.8305 -1.065519,-1.5533 -1.729778,-2.1962 l 0.03146,-0.031 -0.345958,-0.2865 -7.862621,-6.8117 c 5.16e-4,4e-4 -0.02916,-0.029 -0.03147,-0.031 -0.0044,0 -0.02696,0 -0.03146,0 -0.341235,-0.2888 -0.740365,-0.4464 -1.163654,-0.4456 z m 3.050697,7.1619 c 4.064492,0 7.359414,3.3347 7.359414,7.4483 0,4.1137 -3.294922,7.4483 -7.359414,7.4483 -4.064492,0 -7.359414,-3.3346 -7.359414,-7.4483 0,-4.1136 3.294922,-7.4483 7.359414,-7.4483 z"
         style="line-height:normal;color:#000000;fill:#fa9b56;fill-rule:evenodd;fill-opacity:1"
         inkscape:connector-curvature="0" />
      <path
         id="path28"
         d="m -20.820166,1028.7026 c 0,2.2359 -1.79086,4.0484 -3.999999,4.0484 -2.209139,0 -4.000001,-1.8125 -4.000001,-4.0484 0,-2.2358 1.790862,-4.0483 4.000001,-4.0483 2.209139,0 3.999999,1.8125 3.999999,4.0483 z"
         style="fill:#3170a3"
         inkscape:connector-curvature="0" />
    </g>
  </g>
</svg>
