<?xml version="1.0" encoding="UTF-8" standalone="no"?>
<!-- Created with Inkscape (http://www.inkscape.org/) -->

<svg
   xmlns:dc="http://purl.org/dc/elements/1.1/"
   xmlns:cc="http://creativecommons.org/ns#"
   xmlns:rdf="http://www.w3.org/1999/02/22-rdf-syntax-ns#"
   xmlns:svg="http://www.w3.org/2000/svg"
   xmlns="http://www.w3.org/2000/svg"
   xmlns:xlink="http://www.w3.org/1999/xlink"
   xmlns:sodipodi="http://sodipodi.sourceforge.net/DTD/sodipodi-0.dtd"
   xmlns:inkscape="http://www.inkscape.org/namespaces/inkscape"
   width="64"
   height="64"
   id="svg2"
   version="1.1"
   inkscape:version="0.48.4 r9939"
   sodipodi:docname="chromium-browser.svg">
  <defs
     id="defs4">
    <inkscape:perspective
       sodipodi:type="inkscape:persp3d"
       inkscape:vp_x="-7.7001276 : 37.974237 : 1"
       inkscape:vp_y="0 : 1000 : 0"
       inkscape:vp_z="30.411512 : 39.036324 : 1"
       inkscape:persp3d-origin="32 : 21.333333 : 1"
       id="perspective3852" />
    <linearGradient
       gradientTransform="matrix(0.058,0,0,0.05257,-1.57492,-1.41742)"
       xlink:href="#linearGradient4038"
       id="linearGradient4950"
       y1="212"
       y2="100"
       gradientUnits="userSpaceOnUse"
       x2="0" />
    <linearGradient
       id="linearGradient4038">
      <stop
         offset="0"
         style="stop-color:#ff8900"
         id="stop12" />
      <stop
         offset="1"
         style="stop-color:#ffa53d"
         id="stop14" />
    </linearGradient>
    <linearGradient
       id="linearGradient4044">
      <stop
         id="stop4046"
         style="stop-color:#2f5a88;stop-opacity:1"
         offset="0" />
      <stop
         id="stop4048"
         style="stop-color:#346396;stop-opacity:0"
         offset="1" />
    </linearGradient>
    <linearGradient
       id="linearGradient3822">
      <stop
         id="stop3824"
         style="stop-color:#2f5a88;stop-opacity:1"
         offset="0" />
      <stop
         id="stop3826"
         style="stop-color:#346396;stop-opacity:0"
         offset="1" />
    </linearGradient>
    <linearGradient
       id="linearGradient3829">
      <stop
         id="stop3831"
         style="stop-color:#2f5a88;stop-opacity:1"
         offset="0" />
      <stop
         id="stop3833"
         style="stop-color:#346396;stop-opacity:0"
         offset="1" />
    </linearGradient>
    <linearGradient
       id="linearGradient3867">
      <stop
         id="stop3869"
         style="stop-color:#98bbe2;stop-opacity:1"
         offset="0" />
      <stop
         id="stop3871"
         style="stop-color:#3878bb;stop-opacity:1"
         offset="1" />
    </linearGradient>
    <linearGradient
       id="linearGradient3896">
      <stop
         id="stop3898"
         style="stop-color:#89b7e1;stop-opacity:1"
         offset="0" />
      <stop
         id="stop3974"
         style="stop-color:#85b4df;stop-opacity:1"
         offset="0.57428855" />
      <stop
         id="stop3972"
         style="stop-color:#77a9d9;stop-opacity:1"
         offset="0.75" />
      <stop
         id="stop3900"
         style="stop-color:#679cd2;stop-opacity:1"
         offset="1" />
    </linearGradient>
    <linearGradient
       id="linearGradient3904">
      <stop
         id="stop3906"
         style="stop-color:#d0e2f1;stop-opacity:1"
         offset="0" />
      <stop
         id="stop3976"
         style="stop-color:#c6dcef;stop-opacity:1"
         offset="0.60882944" />
      <stop
         id="stop3970"
         style="stop-color:#b1cfea;stop-opacity:1"
         offset="0.79731107" />
      <stop
         id="stop3908"
         style="stop-color:#92bce3;stop-opacity:1"
         offset="1" />
    </linearGradient>
    <linearGradient
       id="linearGradient3877">
      <stop
         id="stop3879"
         style="stop-color:#5f89b7;stop-opacity:1"
         offset="0" />
      <stop
         id="stop3881"
         style="stop-color:#4071a0;stop-opacity:1"
         offset="1" />
    </linearGradient>
    <linearGradient
       id="linearGradient3700">
      <stop
         id="stop3702"
         style="stop-color:#e0e0e0;stop-opacity:1"
         offset="0" />
      <stop
         id="stop3704"
         style="stop-color:#ffffff;stop-opacity:1"
         offset="1" />
    </linearGradient>
    <linearGradient
       inkscape:collect="always"
       xlink:href="#linearGradient3700"
       id="linearGradient3114"
       gradientUnits="userSpaceOnUse"
       gradientTransform="matrix(1.0909091,0,0,1.0909091,-82.675802,969.44092)"
       x1="48"
       y1="90"
       x2="48"
       y2="5.9877172" />
    <linearGradient
       inkscape:collect="always"
       xlink:href="#linearGradient4044"
       id="linearGradient3124"
       gradientUnits="userSpaceOnUse"
       gradientTransform="translate(-78.312166,973.80456)"
       x1="49.922932"
       y1="26.065477"
       x2="55.387222"
       y2="42.517231" />
    <linearGradient
       inkscape:collect="always"
       xlink:href="#linearGradient4044"
       id="linearGradient3126"
       gradientUnits="userSpaceOnUse"
       gradientTransform="translate(-78.312166,973.80456)"
       x1="63.780933"
       y1="63.379192"
       x2="39.036816"
       y2="66.370422" />
    <linearGradient
       inkscape:collect="always"
       xlink:href="#linearGradient4044"
       id="linearGradient3128"
       gradientUnits="userSpaceOnUse"
       gradientTransform="translate(-78.312166,973.80456)"
       x1="25.870298"
       y1="51.93507"
       x2="36.988956"
       y2="30.996477" />
  </defs>
  <sodipodi:namedview
     id="base"
     pagecolor="#ffffff"
     bordercolor="#666666"
     borderopacity="1.0"
     inkscape:pageopacity="0.0"
     inkscape:pageshadow="2"
     inkscape:zoom="4.68"
     inkscape:cx="-25.554843"
     inkscape:cy="31.584796"
     inkscape:document-units="px"
     inkscape:current-layer="layer1"
     showgrid="false"
     inkscape:window-width="1366"
     inkscape:window-height="744"
     inkscape:window-x="0"
     inkscape:window-y="24"
     inkscape:window-maximized="1">
    <inkscape:grid
       type="xygrid"
       id="grid3811"
       empspacing="1"
       visible="true"
       enabled="true"
       snapvisiblegridlinesonly="true" />
  </sodipodi:namedview>
  <metadata
     id="metadata7">
    <rdf:RDF>
      <cc:Work
         rdf:about="">
        <dc:format>image/svg+xml</dc:format>
        <dc:type
           rdf:resource="http://purl.org/dc/dcmitype/StillImage" />
        <dc:title></dc:title>
      </cc:Work>
    </rdf:RDF>
  </metadata>
  <g
     inkscape:label="Calque 1"
     inkscape:groupmode="layer"
     id="layer1"
     transform="translate(0,-988.36218)">
    <g
       id="g3101"
       transform="matrix(0.76190476,0,0,0.76190476,55.308658,241.63071)">
      <path
         d="m -8.3746663,1023.3046 c -0.230003,3.4467 -1.239296,6.6699 -2.8749997,9.5 -0.08047,0.1392 -0.166586,0.2689 -0.25,0.4062 -3.858519,6.3503 -10.838889,10.5938 -18.8125,10.5938 -2.827806,0 -5.516321,-0.5292 -8,-1.5 l 0,21.5 9.15625,0 22.8437497,0 0,-36 c 0,-1.8062 -0.80762,-3.4019 -2.0625,-4.5 z"
         inkscape:connector-curvature="0"
         id="path3999"
         style="fill:#3b9342;fill-opacity:1;stroke:none" />
      <path
         d="m -72.312166,989.80456 0,3.28122 0,52.71882 28,0 c 2.503387,0 4.629252,-1.5182 5.53125,-3.6875 -4.46382,-1.8642 -8.194031,-5.1606 -10.59375,-9.3125 -0.09679,-0.1675 -0.188788,-0.3298 -0.28125,-0.5 -1.693393,-3.1173 -2.65625,-6.7031 -2.65625,-10.5 0,-9.3273 5.806228,-17.2993 14,-20.5 l 0,-5.50002 c 0,-3.324 -2.676,-6.00002 -6,-6.00002 l -28,0 z"
         inkscape:connector-curvature="0"
         id="path3989"
         style="fill:#df2227;fill-opacity:1;stroke:none" />
      <path
         d="m -30.312166,997.80458 c -13.25484,0 -24,10.74512 -24,24.00002 0,13.2548 10.74516,24 24,24 13.25484,0 23.9999997,-10.7452 23.9999997,-24 0,-13.2549 -10.7451597,-24.00002 -23.9999997,-24.00002 z"
         inkscape:connector-curvature="0"
         id="rect3982"
         style="fill:url(#linearGradient3114);fill-opacity:1;fill-rule:nonzero;stroke:none" />
      <path
         d="m -72.312166,979.8046 0,13.28118 22.65625,39.21882 c -1.693393,-3.1173 -2.65625,-6.7031 -2.65625,-10.5 0,-12.1503 9.849736,-22.00002 22,-22.00002 l 31.7629274,0 -16.0129264,-20.00002 z"
         inkscape:connector-curvature="0"
         id="path3824"
         style="fill:#3878bb;fill-opacity:1;stroke:none"
         sodipodi:nodetypes="cccssccc" />
      <path
         d="m -30.312166,999.80458 c 12.150264,0 21.9999997,9.84972 21.9999997,22.00002 0,4.0043 -1.068124,7.7657 -2.9374997,11 -0.08047,0.1392 -0.166586,0.2689 -0.25,0.4062 l -17.65625,30.5938 40.843751,0 -10e-7,-57.4695 -7.875,-6.53052 z"
         inkscape:connector-curvature="0"
         id="path3847"
         style="fill:#92bce3;fill-opacity:1;stroke:none"
         sodipodi:nodetypes="csccccccc" />
      <path
         d="m -72.312166,993.08578 1e-6,70.71882 43.156249,0 17.65625,-30.5938 c -3.858519,6.3503 -10.838889,10.5938 -18.8125,10.5938 -8.145986,0 -15.259591,-4.4204 -19.0625,-11 -0.09679,-0.1675 -0.188788,-0.3298 -0.28125,-0.5 z"
         inkscape:connector-curvature="0"
         id="path3849"
         style="fill:#679cd2;fill-opacity:1;stroke:none"
         sodipodi:nodetypes="ccccsccc" />
      <path
         d="m -11.312166,1021.8046 a 19,19 0 0 1 -38,0 19,19 0 1 1 38,0 z"
         id="path3822"
         style="color:#000000;fill:#3878bb;fill-opacity:1;stroke:none;stroke-width:1;marker:none;visibility:visible;display:inline;overflow:visible;enable-background:accumulate"
         inkscape:connector-curvature="0" />
      <path
         d="m -30.312166,999.80458 c 6.945511,0 13.124331,3.22302 17.15625,8.25002 l 16.9911859,-6.0938 -0.022436,-2.15622 z"
         inkscape:connector-curvature="0"
         id="path3929"
         style="opacity:0.3;fill:url(#linearGradient3124);fill-opacity:1;stroke:none"
         sodipodi:nodetypes="ccccc" />
      <path
         d="m -11.499666,1033.2108 c -3.308282,5.4447 -8.912198,9.3434 -15.46875,10.3438 l -5.9375,20.25 3.75,0 17.65625,-30.5938 z"
         inkscape:connector-curvature="0"
         id="path3933"
         style="opacity:0.25;fill:url(#linearGradient3126);fill-opacity:1;stroke:none" />
      <path
         d="m -72.312166,990.11706 0,2.96872 22.65625,39.21882 c -1.693393,-3.1173 -2.65625,-6.7031 -2.65625,-10.5 0,-2.8724 0.561262,-5.6095 1.5625,-8.125 l -21.5625,-23.56254 z"
         inkscape:connector-curvature="0"
         id="path3935"
         style="fill:url(#linearGradient3128);fill-opacity:1;stroke:none" />
    </g>
    <path
       style="fill:none;fill-opacity:1;stroke:#2f5a88;stroke-width:0.98461538999999998;stroke-opacity:1"
       d="m 0.49230769,988.85449 43.50769231,0 19.507692,19.50771 0,43.5077 -63.01538431,0 z"
       id="rect3813"
       inkscape:connector-curvature="0"
       sodipodi:nodetypes="cccccc" />
    <path
       style="fill:none;fill-opacity:1;stroke:#ffffff;stroke-width:0.95399999999999996;stroke-miterlimit:4;stroke-opacity:1"
       d="m 1.476923,989.83911 42.523077,0 18.523077,18.52309 0,42.5231 -61.046154,0 z"
       id="rect3813-9"
       inkscape:connector-curvature="0"
       sodipodi:nodetypes="cccccc" />
    <g
       id="g3991">
      <path
         inkscape:connector-curvature="0"
         id="path3106"
         d="m 44,988.36218 0,20.00002 20,0 z"
         style="fill:#92bce3;fill-opacity:1;stroke:none" />
      <path
         id="path3106-4"
         transform="translate(0,988.36218)"
         d="M 44 0 L 44 20 L 64 20 L 44 0 z M 45 2.40625 L 61.59375 19 L 45 19 L 45 2.40625 z "
         style="font-size:medium;font-style:normal;font-variant:normal;font-weight:normal;font-stretch:normal;text-indent:0;text-align:start;text-decoration:none;line-height:normal;letter-spacing:normal;word-spacing:normal;text-transform:none;direction:ltr;block-progression:tb;writing-mode:lr-tb;text-anchor:start;baseline-shift:baseline;color:#000000;fill:#2f5a88;fill-opacity:1;fill-rule:nonzero;stroke:none;stroke-width:2;marker:none;visibility:visible;display:inline;overflow:visible;enable-background:accumulate;font-family:Sans;-inkscape-font-specification:Sans" />
    </g>
    <path
       style="fill:#000000;stroke:none;fill-opacity:0.25098041"
       d="m 64,1008.3622 0,16 -16,-16 z"
       id="path3001"
       inkscape:connector-curvature="0"
       sodipodi:nodetypes="cccc" />
  </g>
</svg>
