<?xml version="1.0" encoding="UTF-8" standalone="no"?>
<!-- Created with Inkscape (http://www.inkscape.org/) -->

<svg
   xmlns:dc="http://purl.org/dc/elements/1.1/"
   xmlns:cc="http://creativecommons.org/ns#"
   xmlns:rdf="http://www.w3.org/1999/02/22-rdf-syntax-ns#"
   xmlns:svg="http://www.w3.org/2000/svg"
   xmlns="http://www.w3.org/2000/svg"
   xmlns:xlink="http://www.w3.org/1999/xlink"
   xmlns:sodipodi="http://sodipodi.sourceforge.net/DTD/sodipodi-0.dtd"
   xmlns:inkscape="http://www.inkscape.org/namespaces/inkscape"
   width="64"
   height="64"
   id="svg2"
   version="1.1"
   inkscape:version="0.48.4 r9939"
   sodipodi:docname="sublime_text.svg">
  <defs
     id="defs4">
    <inkscape:perspective
       sodipodi:type="inkscape:persp3d"
       inkscape:vp_x="-7.7001276 : 37.974237 : 1"
       inkscape:vp_y="0 : 1000 : 0"
       inkscape:vp_z="30.411512 : 39.036324 : 1"
       inkscape:persp3d-origin="32 : 21.333333 : 1"
       id="perspective3852" />
    <linearGradient
       gradientTransform="matrix(0.058,0,0,0.05257,-1.57492,-1.41742)"
       xlink:href="#linearGradient4038"
       id="linearGradient4950"
       y1="212"
       y2="100"
       gradientUnits="userSpaceOnUse"
       x2="0" />
    <linearGradient
       id="linearGradient4038">
      <stop
         offset="0"
         style="stop-color:#ff8900"
         id="stop12" />
      <stop
         offset="1"
         style="stop-color:#ffa53d"
         id="stop14" />
    </linearGradient>
    <linearGradient
       gradientTransform="matrix(1.10525,0,0,1.10525,-134.27874,-295.76183)"
       xlink:href="#linearGradient4460"
       id="linearGradient3007"
       y1="279.09601"
       y2="268.32999"
       gradientUnits="userSpaceOnUse"
       x2="0" />
    <linearGradient
       id="linearGradient4460">
      <stop
         offset="0"
         style="stop-color:#d7d7d7"
         id="stop13" />
      <stop
         offset="1"
         style="stop-color:#efefef"
         id="stop15" />
    </linearGradient>
  </defs>
  <sodipodi:namedview
     id="base"
     pagecolor="#ffffff"
     bordercolor="#666666"
     borderopacity="1.0"
     inkscape:pageopacity="0.0"
     inkscape:pageshadow="2"
     inkscape:zoom="8.1485433"
     inkscape:cx="11.304132"
     inkscape:cy="31.584796"
     inkscape:document-units="px"
     inkscape:current-layer="layer1"
     showgrid="false"
     inkscape:window-width="1366"
     inkscape:window-height="744"
     inkscape:window-x="0"
     inkscape:window-y="24"
     inkscape:window-maximized="1">
    <inkscape:grid
       type="xygrid"
       id="grid3811"
       empspacing="1"
       visible="true"
       enabled="true"
       snapvisiblegridlinesonly="true" />
  </sodipodi:namedview>
  <metadata
     id="metadata7">
    <rdf:RDF>
      <cc:Work
         rdf:about="">
        <dc:format>image/svg+xml</dc:format>
        <dc:type
           rdf:resource="http://purl.org/dc/dcmitype/StillImage" />
        <dc:title></dc:title>
      </cc:Work>
    </rdf:RDF>
  </metadata>
  <g
     inkscape:label="Calque 1"
     inkscape:groupmode="layer"
     id="layer1"
     transform="translate(0,-988.36218)">
    <path
       style="fill:#f0f0f0;fill-opacity:1;stroke:#dbd7d5;stroke-width:0.98461538999999998;stroke-opacity:1"
       d="m 0.49230769,988.85449 43.50769231,0 19.507692,19.50771 0,43.5077 -63.01538431,0 z"
       id="rect3813"
       inkscape:connector-curvature="0"
       sodipodi:nodetypes="cccccc" />
    <path
       style="fill:#f05133;fill-opacity:1;stroke:#ffffff;stroke-width:0.95399999999999996;stroke-miterlimit:4;stroke-opacity:1"
       d="m 1.476923,989.83911 42.523077,0 18.523077,18.52309 0,42.5231 -61.046154,0 z"
       id="rect3813-9"
       inkscape:connector-curvature="0"
       sodipodi:nodetypes="cccccc" />
    <g
       id="g3991">
      <path
         inkscape:connector-curvature="0"
         id="path3106"
         d="m 44,988.36218 0,20.00002 20,0 z"
         style="fill:#cccccc;fill-opacity:1;stroke:none" />
      <path
         id="path3106-4"
         transform="translate(0,988.36218)"
         d="M 44 0 L 44 20 L 64 20 L 44 0 z M 45 2.40625 L 61.59375 19 L 45 19 L 45 2.40625 z "
         style="font-size:medium;font-style:normal;font-variant:normal;font-weight:normal;font-stretch:normal;text-indent:0;text-align:start;text-decoration:none;line-height:normal;letter-spacing:normal;word-spacing:normal;text-transform:none;direction:ltr;block-progression:tb;writing-mode:lr-tb;text-anchor:start;baseline-shift:baseline;color:#000000;fill:#f0f0f0;fill-opacity:1;fill-rule:nonzero;stroke:none;stroke-width:2;marker:none;visibility:visible;display:inline;overflow:visible;enable-background:accumulate;font-family:Sans;-inkscape-font-specification:Sans" />
    </g>
    <g
       id="g3036"
       transform="matrix(2.0635849,0,0,2.0635849,97.423193,-1083.4365)">
      <rect
         y="1016.434"
         x="-43.483509"
         height="2"
         width="17"
         id="rect3797"
         style="fill:#f9f9f9;fill-opacity:1;stroke:none" />
      <path
         transform="matrix(0.74467816,0,0,0.51640992,-35.961772,1003.5157)"
         d="m 3.3279622,26.952097 c 0,3.208409 -1.8036593,5.809338 -4.02858589,5.809338 -2.22492661,0 -4.02858591,-2.600929 -4.02858591,-5.809338 0,-3.208409 1.8036593,-5.809338 4.02858591,-5.809338 2.22492659,0 4.02858589,2.600929 4.02858589,5.809338 z"
         sodipodi:ry="5.8093381"
         sodipodi:rx="4.0285859"
         sodipodi:cy="26.952097"
         sodipodi:cx="-0.70062369"
         id="path3799"
         style="fill:#f9f9f9;fill-opacity:1;stroke:none"
         sodipodi:type="arc" />
      <path
         sodipodi:type="arc"
         style="fill:#f9f9f9;fill-opacity:1;stroke:none"
         id="path3801"
         sodipodi:cx="-0.70062369"
         sodipodi:cy="26.952097"
         sodipodi:rx="4.0285859"
         sodipodi:ry="5.8093381"
         d="m 3.3279622,26.952097 c 0,3.208409 -1.8036593,5.809338 -4.02858589,5.809338 -2.22492661,0 -4.02858591,-2.600929 -4.02858591,-5.809338 0,-3.208409 1.8036593,-5.809338 4.02858591,-5.809338 2.22492659,0 4.02858589,2.600929 4.02858589,5.809338 z"
         transform="matrix(0.74467816,0,0,0.51640992,-27.961771,1003.5157)" />
      <path
         transform="matrix(0.74467816,0,0,0.51640992,-27.961771,1011.5157)"
         d="m 3.3279622,26.952097 c 0,3.208409 -1.8036593,5.809338 -4.02858589,5.809338 -2.22492661,0 -4.02858591,-2.600929 -4.02858591,-5.809338 0,-3.208409 1.8036593,-5.809338 4.02858591,-5.809338 2.22492659,0 4.02858589,2.600929 4.02858589,5.809338 z"
         sodipodi:ry="5.8093381"
         sodipodi:rx="4.0285859"
         sodipodi:cy="26.952097"
         sodipodi:cx="-0.70062369"
         id="path3803"
         style="fill:#f9f9f9;fill-opacity:1;stroke:none"
         sodipodi:type="arc" />
      <rect
         transform="matrix(-0.70710678,-0.70710678,0.70710678,-0.70710678,0,0)"
         style="fill:#f9f9f9;fill-opacity:1;stroke:none"
         id="rect3805"
         width="15.184189"
         height="1.786375"
         x="-706.88574"
         y="-746.12543" />
    </g>
    <path
       style="fill:#d9d9d9;fill-opacity:1;stroke:none"
       d="M 2 2 L 2 8 L 2 56 L 2 62 L 8 62 L 62 62 L 62 56 L 62 20 L 56 20 L 56 56 L 8 56 L 8 8 L 44 8 L 44 2 L 8 2 L 2 2 z "
       transform="translate(0,988.36218)"
       id="rect3813-9-6-7" />
    <path
       style="fill:#000000;stroke:none;fill-opacity:0.25098041"
       d="m 64,1008.3622 0,16 -16,-16 z"
       id="path3001"
       inkscape:connector-curvature="0"
       sodipodi:nodetypes="cccc" />
  </g>
</svg>
