<?xml version="1.0" encoding="UTF-8" standalone="no"?>
<!-- Created with Inkscape (http://www.inkscape.org/) -->

<svg
   xmlns:dc="http://purl.org/dc/elements/1.1/"
   xmlns:cc="http://creativecommons.org/ns#"
   xmlns:rdf="http://www.w3.org/1999/02/22-rdf-syntax-ns#"
   xmlns:svg="http://www.w3.org/2000/svg"
   xmlns="http://www.w3.org/2000/svg"
   xmlns:xlink="http://www.w3.org/1999/xlink"
   xmlns:sodipodi="http://sodipodi.sourceforge.net/DTD/sodipodi-0.dtd"
   xmlns:inkscape="http://www.inkscape.org/namespaces/inkscape"
   width="64"
   height="64"
   id="svg2"
   version="1.1"
   inkscape:version="0.48.4 r9939"
   sodipodi:docname="jdownloader.svg">
  <defs
     id="defs4">
    <inkscape:perspective
       sodipodi:type="inkscape:persp3d"
       inkscape:vp_x="-7.7001276 : 37.974237 : 1"
       inkscape:vp_y="0 : 1000 : 0"
       inkscape:vp_z="30.411512 : 39.036324 : 1"
       inkscape:persp3d-origin="32 : 21.333333 : 1"
       id="perspective3852" />
    <linearGradient
       gradientTransform="matrix(0.058,0,0,0.05257,-1.57492,-1.41742)"
       xlink:href="#linearGradient4038"
       id="linearGradient4950"
       y1="212"
       y2="100"
       gradientUnits="userSpaceOnUse"
       x2="0" />
    <linearGradient
       id="linearGradient4038">
      <stop
         offset="0"
         style="stop-color:#ff8900"
         id="stop12" />
      <stop
         offset="1"
         style="stop-color:#ffa53d"
         id="stop14" />
    </linearGradient>
    <linearGradient
       x1="59.98632"
       y1="46.666485"
       x2="66.577553"
       y2="43.787991"
       id="linearGradient3724"
       xlink:href="#linearGradient3718"
       gradientUnits="userSpaceOnUse" />
    <linearGradient
       id="linearGradient3718">
      <stop
         id="stop3720"
         style="stop-color:#f4de23;stop-opacity:1"
         offset="0" />
      <stop
         offset="0.5"
         style="stop-color:#ecba11;stop-opacity:0.98823529;"
         id="stop4143" />
      <stop
         id="stop3722"
         style="stop-color:#e49600;stop-opacity:0.97647059"
         offset="1" />
    </linearGradient>
    <linearGradient
       x1="40.974636"
       y1="5.0116715"
       x2="40.974636"
       y2="9.20753"
       id="linearGradient3831"
       xlink:href="#linearGradient3801"
       gradientUnits="userSpaceOnUse" />
    <linearGradient
       id="linearGradient3801">
      <stop
         id="stop3803"
         style="stop-color:#ffffff;stop-opacity:1"
         offset="0" />
      <stop
         id="stop3805"
         style="stop-color:#ffffff;stop-opacity:0"
         offset="1" />
    </linearGradient>
    <linearGradient
       x1="85.931198"
       y1="83.196152"
       x2="37.785179"
       y2="41.831745"
       id="linearGradient3846"
       xlink:href="#linearGradient3741"
       gradientUnits="userSpaceOnUse" />
    <linearGradient
       id="linearGradient3741">
      <stop
         id="stop3743"
         style="stop-color:#d45500;stop-opacity:1"
         offset="0" />
      <stop
         id="stop3745"
         style="stop-color:#d45500;stop-opacity:0"
         offset="1" />
    </linearGradient>
    <linearGradient
       x1="48.846497"
       y1="16.161333"
       x2="74.012764"
       y2="71.307182"
       id="linearGradient3860"
       xlink:href="#linearGradient3801"
       gradientUnits="userSpaceOnUse" />
    <linearGradient
       id="linearGradient3716">
      <stop
         id="stop3718"
         style="stop-color:#ffffff;stop-opacity:1"
         offset="0" />
      <stop
         id="stop3721"
         style="stop-color:#ffffff;stop-opacity:0"
         offset="1" />
    </linearGradient>
    <linearGradient
       x1="55.785435"
       y1="51.332993"
       x2="63.043865"
       y2="54.817482"
       id="linearGradient3732"
       xlink:href="#linearGradient3718"
       gradientUnits="userSpaceOnUse" />
    <linearGradient
       gradientUnits="userSpaceOnUse"
       y2="-92.539594"
       x2="90.469383"
       y1="-92.539594"
       x1="4.9708452"
       gradientTransform="scale(1.0058652,0.99416905)"
       id="linearGradient3725">
      <stop
         id="stop3727"
         style="stop-color:#f4de23;stop-opacity:1"
         offset="0" />
      <stop
         id="stop3729"
         style="stop-color:#e49600;stop-opacity:0.97647059"
         offset="1" />
    </linearGradient>
    <linearGradient
       x1="40.02948"
       y1="90.848793"
       x2="65.460114"
       y2="46.801643"
       id="linearGradient3747"
       xlink:href="#linearGradient3741"
       gradientUnits="userSpaceOnUse" />
    <linearGradient
       id="linearGradient3733">
      <stop
         id="stop3735"
         style="stop-color:#d45500;stop-opacity:1"
         offset="0" />
      <stop
         id="stop3737"
         style="stop-color:#d45500;stop-opacity:0"
         offset="1" />
    </linearGradient>
    <linearGradient
       x1="74.245033"
       y1="5.5680094"
       x2="74.314751"
       y2="7.688374"
       id="linearGradient3807"
       xlink:href="#linearGradient3801"
       gradientUnits="userSpaceOnUse" />
    <linearGradient
       id="linearGradient3740">
      <stop
         id="stop3742"
         style="stop-color:#ffffff;stop-opacity:1"
         offset="0" />
      <stop
         id="stop3744"
         style="stop-color:#ffffff;stop-opacity:0"
         offset="1" />
    </linearGradient>
    <linearGradient
       x1="38.622047"
       y1="90.722885"
       x2="73.238274"
       y2="9.5494032"
       id="linearGradient3822"
       xlink:href="#linearGradient3741"
       gradientUnits="userSpaceOnUse" />
    <linearGradient
       id="linearGradient3748">
      <stop
         id="stop3750"
         style="stop-color:#d45500;stop-opacity:1"
         offset="0" />
      <stop
         id="stop3752"
         style="stop-color:#d45500;stop-opacity:0"
         offset="1" />
    </linearGradient>
    <radialGradient
       cx="48"
       cy="40.64753"
       r="42"
       fx="48"
       fy="40.64753"
       id="radialGradient3736"
       xlink:href="#linearGradient5226"
       gradientUnits="userSpaceOnUse"
       gradientTransform="matrix(1.1433554,3.8336408e-8,-3.7188011e-8,1.1091053,-6.8810588,-5.0823929)" />
    <linearGradient
       id="linearGradient5226">
      <stop
         id="stop5228"
         style="stop-color:#ccda0b;stop-opacity:1"
         offset="0" />
      <stop
         offset="0.5"
         style="stop-color:#7fab0e;stop-opacity:1;"
         id="stop4078" />
      <stop
         id="stop5230"
         style="stop-color:#327c12;stop-opacity:1"
         offset="1" />
    </linearGradient>
    <clipPath
       id="clipPath3759">
      <path
         d="m 36.273888,6.0817019 c 1.650116,2.216692 0.112581,5.9183371 2.601472,5.8815911 1.2119,1.714016 -2.415455,0.511296 0.203594,1.832342 1.506106,1.186578 -1.593388,1.86454 0.27179,2.929374 -2.149689,1.109666 0.348443,5.803987 1.945116,6.978848 2.62796,2.213161 1.16221,-4.685722 4.0945,-5.044597 1.59336,-1.819699 4.39184,-2.987811 6.37927,-4.818381 -1.9423,-0.15774 -3.07646,-1.367135 -1.23703,-2.116304 3.38546,3.470394 0.84891,-1.643528 -1.02513,-2.4532401 1.81337,-0.577046 3.57698,-0.154481 3.32537,-1.65137 1.91632,-1.402516 -1.84226,-1.855344 -3.18394,-1.538263 -4.45834,0 -8.91668,0 -13.375012,0 z M 8.472036,7.5294789 C 6.022275,8.2276739 5.851392,14.084357 8.313685,10.832218 8.918028,9.4968519 11.710763,7.8875459 8.472036,7.5294789 z m 11.446491,0.203593 c -1.412257,2.2153416 0.204915,3.9914991 1.379912,1.289427 0.831709,-1.128343 -0.617926,-1.248085 -1.379912,-1.289427 z m 3.528956,0.497674 c -2.72875,1.265212 -0.672602,4.2155641 -0.605059,4.8717381 2.87456,0.994829 4.473227,-0.650437 5.560693,2.161488 2.73516,1.576935 -0.05382,4.317061 -1.080544,5.030674 1.849342,-1.611189 5.404158,4.380481 4.472249,1.214924 -1.11178,-0.812076 2.985161,1.304563 0.859619,-1.334669 -1.956059,-3.152657 0.155272,-1.411414 0.979953,-0.675608 2.804888,-2.516097 -3.173595,-2.820214 -1.681217,-5.409578 -1.307758,-1.059583 -3.02289,-4.2694931 -5.33868,-3.642063 -1.550241,2.005564 -0.214153,-4.3699601 -2.488605,-1.1795631 -0.117891,1.7834151 -0.04285,4.0464551 -0.705711,0.9568241 -0.444071,-0.5408721 0.764001,-1.7982981 0.0273,-1.9941671 z m -5.564894,0.022621 c -1.8316,0.610853 -1.733228,3.0865051 0.518957,3.3519111 0.771435,-0.879633 0.306491,-3.1853381 -0.518957,-3.3519111 z m -7.148401,0.791753 c -2.379079,0.563878 -1.407992,2.4828651 -0.679573,3.0233211 -2.944918,0.737923 4.495691,0.943126 0.792681,1.410494 -3.080791,1.230835 2.966663,2.680942 3.958766,1.221561 3.804391,0.930735 0.136908,-3.046545 -0.19704,-5.2025321 -1.612752,-1.731481 -0.06366,3.9915331 -1.521869,0.184408 -0.508786,1.1305431 -2.126527,0.166598 -2.352965,-0.637252 z m 75.601132,0.248837 c -3.19245,1.2498621 1.98418,5.9664341 0.69764,1.6754941 -0.12817,-0.518125 0.2882,-1.8871051 -0.69764,-1.6754941 z M 19.669689,11.194162 c -2.29408,2.156707 2.915989,3.940201 -0.658895,5.546906 -0.536018,-2.002938 -1.458273,1.002105 -3.503464,-0.615417 -3.515899,1.464466 -5.313868,-0.762828 -8.257536,-2.28957 -1.768029,-0.220164 -1.10378,1.680533 -1.220883,3.460193 0,4.918306 0,9.836614 0,14.75492 1.733489,1.82448 0.676329,0.804976 0,0.301752 0.951467,3.241642 -0.419572,7.980231 3.330851,9.86583 0.637564,1.183033 3.312883,6.223076 3.436221,4.715046 -1.341215,-1.405066 -2.717353,-5.617387 -0.447896,-1.863024 2.032755,3.568795 4.774749,5.883507 8.780477,6.73276 2.190057,0.745225 3.991169,3.306965 5.917116,2.743325 1.089051,2.871967 -3.227416,5.629887 0.144912,8.308597 1.760515,2.7118 4.716185,4.4904 3.11596,8.29758 -1.119073,3.71826 -0.639926,7.76974 -1.607786,11.23409 -0.300394,2.10873 2.938037,7.46101 2.65747,3.17511 0.945569,-2.9784 0.92064,-6.25562 3.147579,-8.36483 3.047115,0.02413 0.582377,-3.27775 3.60701,-2.84642 1.845644,-2.42007 2.380235,-5.30712 5.494915,-6.26809 0.37204,-2.9376 5.17882,-7.43659 0.21313,-8.580318 -1.3496,-0.665451 -4.8245,-0.904732 -4.558946,-1.233078 0.538034,-2.914877 -4.493466,-3.744701 -6.634228,-4.937269 -2.810759,-1.995848 -7.034237,3.315594 -8.024515,-1.261025 -0.590876,-1.439948 -2.751326,-1.463301 -1.758429,-3.68521 -1.789388,1.780326 -5.289343,1.23924 -4.373033,-2.198916 1.39157,-2.895595 6.735639,-3.032599 7.64626,0.450282 -1.264352,-3.841203 2.443938,-6.83143 4.502527,-9.564217 0.419165,-1.3062 2.909742,-2.428425 2.052679,-0.692421 1.460154,-0.05269 3.673291,-2.688637 1.079407,-1.472012 -0.03668,-2.403896 -2.272976,-1.720272 -2.997994,-1.378934 1.34377,-2.133574 8.24499,-0.967127 5.355098,-4.454587 -2.239305,-0.907679 -2.053024,-6.204449 -4.317999,-3.253597 0.190595,-1.818146 -4.610012,-5.377145 -4.505255,-2.328319 0.585986,2.728128 0.107133,5.870869 -1.139926,7.659113 -0.260245,-3.99762 -7.075678,-3.114085 -6.199423,-7.373995 1.26944,-2.030291 2.752851,-4.83791 2.894179,-4.585337 2.275048,-0.868941 4.104591,-3.396512 1.46783,-5.058122 -0.140917,1.448202 -1.98303,4.436139 -1.72366,0.822325 -1.705794,2.02318 -1.316199,-3.219407 -2.913753,-3.763121 z m 54.450001,1.402533 c -3.99594,0.977838 -5.58006,4.795836 -7.55681,7.958163 -2.91386,1.314237 -2.80294,6.958318 0.45241,5.155674 0.87128,1.522277 -0.60951,3.921673 1.92831,1.931216 2.047,-2.709901 0.35794,-7.092756 3.84142,-8.801515 0.25373,1.32865 -3.21333,6.289871 0.837,5.474405 3.66156,0.138209 -2.66186,0.364969 -0.88101,2.704729 -1.85026,-1.098211 -0.88882,2.999333 -3.30397,2.045788 -2.09233,1.138533 -3.46434,-0.528629 -2.98503,-2.35496 -1.64596,0.960573 0.51769,3.67045 -2.33959,3.83331 -0.64004,2.273659 -5.90338,1.930962 -2.91021,4.246159 1.3289,3.445358 -4.95153,0.215986 -3.16853,4.35053 1.52545,4.088438 4.7224,-1.354722 6.01944,-2.406348 2.50247,-1.941872 6.21066,3.311089 3.95876,3.506335 2.52508,-0.338912 2.00619,-2.74125 -0.017,-3.671301 -1.09268,-2.834933 3.45903,1.390324 3.2066,2.811683 1.60594,3.008346 0.94461,-3.080088 2.57885,-0.384565 -0.1908,2.843378 6.57418,0.668556 3.34439,4.292415 -2.77687,0.559513 -5.51013,-0.716143 -7.90083,0.100926 -2.22511,-0.01969 -2.11347,-2.397964 -2.92358,-2.993542 -2.83037,0.23004 -6.32794,0.204027 -8.22277,2.491404 -2.04902,2.812343 -5.00383,6.743795 -2.77053,10.334807 2.23488,5.321462 7.77719,0.276028 10.96298,3.418767 0.94693,1.310381 -0.8206,2.868035 1.29671,4.287425 0.7967,3.02353 -0.90449,5.89433 1.05226,8.78464 1.01184,2.7182 1.63978,6.78664 5.40576,4.30281 3.98577,-2.39945 2.92416,-6.8227 6.21294,-9.27265 -2.60227,-5.038063 3.18363,-7.247103 4.62722,-11.337101 -3.15394,0.461909 -5.96377,-2.68376 -6.72579,-5.84994 -1.32493,-1.537885 -0.98367,-3.805502 0.49633,-0.916468 2.03426,1.971905 2.07822,7.823061 5.84127,4.813019 1.72035,-0.719835 6.41861,-3.465723 2.67511,-4.71532 -2.41304,1.748397 -5.07525,-5.224262 -1.53182,-1.179972 2.57604,1.093303 4.37998,1.744706 4.37998,-1.880149 0,-9.766125 0,-19.664578 0,-29.496868 -0.8024,0.82028 -2.8638,2.335242 -3.90428,1.328569 -1.79037,0.249406 -4.15389,3.734285 -3.59125,0.365539 -1.55624,-0.103093 -0.27859,3.020534 -2.41664,3.107891 -0.21529,1.605887 -2.15987,0.297377 -1.42943,1.822369 -1.50065,-1.064875 -2.77067,-4.427041 0.18614,-2.316729 4.39102,-1.317844 -2.8956,-4.290405 -3.45804,-5.008905 0.94545,-0.226615 -1.02861,-1.212248 -1.26681,-0.88224 z m -36.239673,0.88224 c -1.461507,1.2182 2.778533,1.447612 0,0 z m -19.522376,0.656023 c -1.634652,1.710504 2.603281,1.572448 0,0 z m 9.478418,1.696613 c -1.237867,2.028578 1.829027,0.748943 0,0 z m 27.100581,2.39788 c -1.44923,1.669078 -3.36205,-0.439263 -3.39323,0.995347 0.26265,0.433474 1.31468,3.527292 3.61944,1.244183 1.23699,-0.52171 0.74997,-1.836879 -0.22621,-2.23953 z m -30.855754,0.995347 c -2.748806,2.401478 4.668304,2.622741 0.582324,0.275426 l -0.582324,-0.275426 z m 36.262294,6.650724 c -1.97908,1.291041 0.94944,4.032808 -0.0431,5.320723 -1.2401,2.161465 4.60833,-0.152255 1.48462,-1.87676 -0.22257,-1.481616 -1.83002,-3.289356 -1.44154,-3.443963 z m -1.33466,2.601473 c -2.7574,0.779858 -0.62597,4.806237 0.35065,1.013998 0.055,-0.219858 0.12936,-1.021351 -0.35065,-1.013998 z M 36.929913,31.39517 c -2.565224,1.749832 -0.39843,3.496444 1.481561,2.709121 -0.385959,-1.055763 -1.46417,-1.720956 -1.481561,-2.709121 z m 48.455297,2.940797 c 1.27995,0.646198 -2.34553,1.750082 -0.0498,2.887358 1.33598,1.571671 0.83231,4.945457 -1.3392,2.557643 0.40344,-2.665992 -2.94356,-4.656978 1.38903,-5.445001 z m -6.58287,0.02262 c -0.17366,1.712793 3.69395,4.375139 -0.47504,3.506334 -2.20475,0.258725 -5.50697,-0.06739 -2.72943,-2.815681 0.87765,-0.527085 3.18206,1.818498 1.98292,-0.373952 0.42514,-0.02713 0.82107,-0.187672 1.22155,-0.316701 z m -12.73591,3.709927 c -1.60811,1.036413 1.11198,1.831121 0,0 z M 25.687014,47.7279 c -0.271103,0.904805 5.085991,1.821755 1.389301,0.372149 L 26.525247,47.906003 25.687014,47.7279 z m 4.16236,1.289426 c -1.624915,1.650213 3.347807,0.493017 0,0 z M 84.18627,64.15112 c -3.53072,0.09113 -3.06133,9.20159 -0.60013,3.81083 0.2334,-1.16979 1.1689,-2.71377 0.60013,-3.81083 z"
         inkscape:connector-curvature="0"
         id="path3761"
         style="fill:#ff0000;fill-opacity:1;stroke:none;display:inline" />
    </clipPath>
    <filter
       color-interpolation-filters="sRGB"
       id="filter3824">
      <feGaussianBlur
         id="feGaussianBlur3826"
         stdDeviation="2.2341589" />
    </filter>
    <linearGradient
       x1="36.357143"
       y1="6"
       x2="36.357143"
       y2="63.893143"
       id="linearGradient3188"
       xlink:href="#linearGradient3737"
       gradientUnits="userSpaceOnUse" />
    <linearGradient
       id="linearGradient3737">
      <stop
         id="stop3739"
         style="stop-color:#ffffff;stop-opacity:1"
         offset="0" />
      <stop
         id="stop3741"
         style="stop-color:#ffffff;stop-opacity:0"
         offset="1" />
    </linearGradient>
    <radialGradient
       cx="48"
       cy="48"
       r="42"
       fx="48"
       fy="48"
       id="radialGradient3687"
       xlink:href="#linearGradient3700"
       gradientUnits="userSpaceOnUse" />
    <linearGradient
       id="linearGradient3700">
      <stop
         id="stop3702"
         style="stop-color:#307b8e;stop-opacity:1"
         offset="0" />
      <stop
         id="stop3862"
         style="stop-color:#286776;stop-opacity:1"
         offset="0.5" />
      <stop
         id="stop3704"
         style="stop-color:#14333b;stop-opacity:1"
         offset="1" />
    </linearGradient>
    <clipPath
       id="clipPath3775">
      <rect
         width="84"
         height="84"
         rx="6"
         ry="6"
         x="56"
         y="6"
         id="rect3777"
         style="fill:#ff00ff;fill-opacity:1;fill-rule:nonzero;stroke:none" />
    </clipPath>
    <filter
       color-interpolation-filters="sRGB"
       id="filter3693">
      <feGaussianBlur
         id="feGaussianBlur3695"
         stdDeviation="3.2976812" />
    </filter>
    <radialGradient
       cx="48"
       cy="90.171875"
       r="42"
       fx="48"
       fy="90.171875"
       id="radialGradient2855"
       xlink:href="#linearGradient3737-1"
       gradientUnits="userSpaceOnUse"
       gradientTransform="matrix(1.1573129,0,0,0.99590774,-7.551021,0.1971319)" />
    <linearGradient
       id="linearGradient3737-1">
      <stop
         id="stop3739-7"
         style="stop-color:#ffffff;stop-opacity:1"
         offset="0" />
      <stop
         id="stop3741-2"
         style="stop-color:#ffffff;stop-opacity:0"
         offset="1" />
    </linearGradient>
    <linearGradient
       x1="32.251034"
       y1="6.1317081"
       x2="32.251034"
       y2="90.238609"
       id="linearGradient3059"
       xlink:href="#ButtonShadow-0"
       gradientUnits="userSpaceOnUse"
       gradientTransform="matrix(1.0238095,0,0,1.0119048,-1.1428571,-98.071429)" />
    <linearGradient
       x1="45.447727"
       y1="92.539597"
       x2="45.447727"
       y2="7.0165396"
       id="ButtonShadow-0"
       gradientUnits="userSpaceOnUse"
       gradientTransform="matrix(1.0058652,0,0,0.994169,100,0)">
      <stop
         id="stop3750-8"
         style="stop-color:#000000;stop-opacity:1"
         offset="0" />
      <stop
         id="stop3752-5"
         style="stop-color:#000000;stop-opacity:0.58823532"
         offset="1" />
    </linearGradient>
    <linearGradient
       x1="32.251034"
       y1="6.1317081"
       x2="32.251034"
       y2="90.238609"
       id="linearGradient3780"
       xlink:href="#ButtonShadow-0"
       gradientUnits="userSpaceOnUse"
       gradientTransform="matrix(1.0238095,0,0,1.0119048,-1.1428571,-98.071429)" />
    <linearGradient
       x1="45.447727"
       y1="92.539597"
       x2="45.447727"
       y2="7.0165396"
       id="linearGradient3784"
       gradientUnits="userSpaceOnUse"
       gradientTransform="matrix(1.0058652,0,0,0.994169,100,0)">
      <stop
         id="stop3786"
         style="stop-color:#000000;stop-opacity:1"
         offset="0" />
      <stop
         id="stop3788"
         style="stop-color:#000000;stop-opacity:0.58823532"
         offset="1" />
    </linearGradient>
    <linearGradient
       x1="32.251034"
       y1="6.1317081"
       x2="32.251034"
       y2="90.238609"
       id="linearGradient3772"
       xlink:href="#ButtonShadow-0"
       gradientUnits="userSpaceOnUse"
       gradientTransform="matrix(1.0238095,0,0,1.0119048,-1.1428571,-98.071429)" />
    <linearGradient
       x1="45.447727"
       y1="92.539597"
       x2="45.447727"
       y2="7.0165396"
       id="linearGradient3791"
       gradientUnits="userSpaceOnUse"
       gradientTransform="matrix(1.0058652,0,0,0.994169,100,0)">
      <stop
         id="stop3793"
         style="stop-color:#000000;stop-opacity:1"
         offset="0" />
      <stop
         id="stop3795"
         style="stop-color:#000000;stop-opacity:0.58823532"
         offset="1" />
    </linearGradient>
    <linearGradient
       x1="32.251034"
       y1="6.1317081"
       x2="32.251034"
       y2="90.238609"
       id="linearGradient3797"
       xlink:href="#ButtonShadow-0"
       gradientUnits="userSpaceOnUse"
       gradientTransform="matrix(1.0238095,0,0,1.0119048,-1.1428571,-98.071429)" />
    <linearGradient
       x1="45.447727"
       y1="92.539597"
       x2="45.447727"
       y2="7.0165396"
       id="linearGradient3799"
       gradientUnits="userSpaceOnUse"
       gradientTransform="matrix(1.0058652,0,0,0.994169,100,0)">
      <stop
         id="stop3801"
         style="stop-color:#000000;stop-opacity:1"
         offset="0" />
      <stop
         id="stop3804"
         style="stop-color:#000000;stop-opacity:0.58823532"
         offset="1" />
    </linearGradient>
    <linearGradient
       x1="32.251034"
       y1="6.1317081"
       x2="32.251034"
       y2="90.238609"
       id="linearGradient3721"
       xlink:href="#ButtonShadow-0"
       gradientUnits="userSpaceOnUse"
       gradientTransform="translate(0,-97)" />
    <linearGradient
       x1="45.447727"
       y1="92.539597"
       x2="45.447727"
       y2="7.0165396"
       id="linearGradient3808"
       gradientUnits="userSpaceOnUse"
       gradientTransform="matrix(1.0058652,0,0,0.994169,100,0)">
      <stop
         id="stop3810"
         style="stop-color:#000000;stop-opacity:1"
         offset="0" />
      <stop
         id="stop3812"
         style="stop-color:#000000;stop-opacity:0.58823532"
         offset="1" />
    </linearGradient>
  </defs>
  <sodipodi:namedview
     id="base"
     pagecolor="#ffffff"
     bordercolor="#666666"
     borderopacity="1.0"
     inkscape:pageopacity="0.0"
     inkscape:pageshadow="2"
     inkscape:zoom="7.686"
     inkscape:cx="31.395785"
     inkscape:cy="30.952381"
     inkscape:document-units="px"
     inkscape:current-layer="layer1"
     showgrid="false"
     inkscape:window-width="1366"
     inkscape:window-height="744"
     inkscape:window-x="0"
     inkscape:window-y="24"
     inkscape:window-maximized="1">
    <inkscape:grid
       type="xygrid"
       id="grid3811"
       empspacing="1"
       visible="true"
       enabled="true"
       snapvisiblegridlinesonly="true" />
  </sodipodi:namedview>
  <metadata
     id="metadata7">
    <rdf:RDF>
      <cc:Work
         rdf:about="">
        <dc:format>image/svg+xml</dc:format>
        <dc:type
           rdf:resource="http://purl.org/dc/dcmitype/StillImage" />
        <dc:title />
      </cc:Work>
    </rdf:RDF>
  </metadata>
  <g
     inkscape:label="Calque 1"
     inkscape:groupmode="layer"
     id="layer1"
     transform="translate(0,-988.36218)">
    <path
       style="fill:#f0f0f0;fill-opacity:1;stroke:#307a8c;stroke-width:0.98461538999999998;stroke-opacity:1"
       d="m 0.49230769,988.85449 43.50769231,0 19.507692,19.50771 0,43.5077 -63.01538431,0 z"
       id="rect3813"
       inkscape:connector-curvature="0"
       sodipodi:nodetypes="cccccc" />
    <path
       style="fill:#14333b;fill-opacity:1;stroke:#add8e3;stroke-width:0.95399999999999996;stroke-miterlimit:4;stroke-opacity:1"
       d="m 1.476923,989.83911 42.523077,0 18.523077,18.52309 0,42.5231 -61.046154,0 z"
       id="rect3813-9"
       inkscape:connector-curvature="0"
       sodipodi:nodetypes="cccccc" />
    <path
       style="fill:#7fab0e;fill-opacity:1;stroke:none;display:inline"
       d="M 33.59375 4 C 33.431297 4.0108771 33.307293 4.0341875 33.1875 4.0625 L 23.625 4.0625 C 24.803654 5.6458 23.690966 8.30755 25.46875 8.28125 C 26.334393 9.50555 23.754251 8.65005 25.625 9.59375 C 26.700789 10.44115 24.48023 10.92688 25.8125 11.6875 C 24.277008 12.4801 26.078268 15.81705 27.21875 16.65625 C 29.09586 18.23715 28.030506 13.3189 30.125 13.0625 C 31.263113 11.7627 33.26791 10.9325 34.6875 9.625 C 33.300142 9.5123 32.498617 8.62895 33.8125 8.09375 C 36.230682 10.57255 34.401095 6.92215 33.0625 6.34375 C 34.357758 5.93155 35.617226 6.2567 35.4375 5.1875 C 36.635203 4.310925 34.730919 3.92386 33.59375 4 z M 3.78125 5.09375 C 2.0314144 5.59245 1.8974644 9.79175 3.65625 7.46875 C 4.0879214 6.51495 6.0946214 5.34955 3.78125 5.09375 z M 11.9375 5.25 C 10.928745 6.8324 12.098216 8.1175 12.9375 6.1875 C 13.531578 5.3815 12.481776 5.2796 11.9375 5.25 z M 14.46875 5.59375 C 12.519643 6.49745 13.983005 8.62505 14.03125 9.09375 C 16.084507 9.80435 17.223238 8.6166 18 10.625 C 19.953685 11.75142 17.952128 13.70905 17.21875 14.21875 C 18.539709 13.06785 21.103149 17.35485 20.4375 15.09375 C 19.643371 14.51365 22.549495 16.0102 21.03125 14.125 C 19.634066 11.8731 21.160942 13.13075 21.75 13.65625 C 23.753491 11.85905 19.465265 11.63077 20.53125 9.78125 C 19.597137 9.02445 18.372886 6.7394 16.71875 7.1875 C 15.611435 8.6201 16.562109 4.06485 14.9375 6.34375 C 14.85329 7.61755 14.910969 9.23815 14.4375 7.03125 C 14.120306 6.64495 14.994965 5.73365 14.46875 5.59375 z M 10.5 5.625 C 9.1917143 6.0613 9.235046 7.84165 10.84375 8.03125 C 11.394775 7.40295 11.089606 5.7439 10.5 5.625 z M 5.375 6.1875 C 3.6756572 6.5903 4.3859572 7.95775 4.90625 8.34375 C 2.802743 8.87085 8.1137543 9.00985 5.46875 9.34375 C 3.2681787 10.22285 7.572605 11.26105 8.28125 10.21875 C 10.998672 10.88345 8.3947839 8.04 8.15625 6.5 C 7.0042842 5.2632 8.1040783 9.37565 7.0625 6.65625 C 6.6990836 7.46375 5.5367428 6.7617 5.375 6.1875 z M 11.75 7.71875 C 10.111372 9.25935 13.834738 10.53978 11.28125 11.6875 C 10.89838 10.25678 10.2421 12.40542 8.78125 11.25 C 6.2698928 12.29602 5.0088713 10.7155 2.90625 9.625 C 2.2748107 9.54635 2.0496991 9.8338475 2 10.3125 C 1.9751505 10.551826 1.9870137 10.821403 2 11.125 C 2.0129863 11.428597 2.0521607 11.77592 2.03125 12.09375 L 2.03125 22.625 C 3.269457 23.9282 2.5143428 23.20325 2.03125 22.84375 C 2.7108714 25.15925 1.7273787 28.5282 4.40625 29.875 C 4.8616571 30.72 6.755655 34.3272 6.84375 33.25 C 5.8857408 32.2464 4.9102073 29.2558 6.53125 31.9375 C 7.9832158 34.4866 9.9512649 36.11215 12.8125 36.71875 C 14.376826 37.25105 15.655573 39.0901 17.03125 38.6875 C 17.809143 40.739 14.716195 42.7117 17.125 44.625 C 18.382511 46.562 20.518018 47.8431 19.375 50.5625 C 18.575662 53.2184 18.910079 56.0879 18.21875 58.5625 C 18.057825 59.69215 19.319026 62.145664 19.875 62 C 20.060325 61.951445 20.175101 61.609075 20.125 60.84375 C 20.800407 58.71635 20.784329 56.3816 22.375 54.875 C 24.55151 54.892 22.777048 52.53565 24.9375 52.84375 C 26.255817 51.11515 26.650231 49.0614 28.875 48.375 C 29.140744 46.2767 32.546916 43.03575 29 42.21875 C 28.035994 41.74345 25.560319 41.57835 25.75 41.34375 C 26.13431 39.26175 22.560366 38.6642 21.03125 37.8125 C 19.023565 36.3868 15.988592 40.2065 15.28125 36.9375 C 14.859196 35.909 13.322038 35.86835 14.03125 34.28125 C 12.753116 35.55295 10.251743 35.17465 10.90625 32.71875 C 11.900228 30.65055 15.724556 30.54345 16.375 33.03125 C 15.471891 30.28755 18.12333 28.17075 19.59375 26.21875 C 19.893154 25.28575 21.674688 24.47875 21.0625 25.71875 C 22.105468 25.68075 23.665275 23.78715 21.8125 24.65625 C 21.7863 22.93915 20.20537 23.4437 19.6875 23.6875 C 20.647336 22.1635 25.564209 22.991 23.5 20.5 C 21.900497 19.8517 22.024089 16.0797 20.40625 18.1875 C 20.542389 16.8888 17.143924 14.3223 17.21875 16.5 C 17.637311 18.4486 17.265753 20.69145 16.375 21.96875 C 16.189111 19.11325 11.342854 19.76155 11.96875 16.71875 C 12.875493 15.26855 13.930301 13.2571 14.03125 13.4375 C 15.656284 12.8169 16.9459 10.9993 15.0625 9.8125 C 14.961845 10.8469 13.658486 12.98757 13.84375 10.40625 C 12.625326 11.85147 12.89111 8.10715 11.75 7.71875 z M 50.65625 8.71875 C 47.802007 9.41725 46.661963 12.14745 45.25 14.40625 C 43.168677 15.34495 43.268501 19.38135 45.59375 18.09375 C 46.216093 19.18115 45.156022 20.89045 46.96875 19.46875 C 48.430888 17.53315 47.23055 14.4081 49.71875 13.1875 C 49.899984 14.1366 47.419409 17.67615 50.3125 17.09375 C 52.9279 17.19275 48.415464 17.35995 49.6875 19.03125 C 48.365882 18.24685 49.037606 21.1811 47.3125 20.5 C 45.817976 21.3132 44.84514 20.117 45.1875 18.8125 C 44.011816 19.4986 45.540915 21.41505 43.5 21.53125 C 43.042826 23.15535 39.299521 22.94005 41.4375 24.59375 C 42.386714 27.05475 37.882679 24.7343 39.15625 27.6875 C 40.245855 30.6079 42.542293 26.71985 43.46875 25.96875 C 45.11999 24.687374 47.507618 27.784373 46.59375 28.375 C 48.012653 27.976673 47.630419 26.464043 46.28125 25.84375 C 45.500767 23.81885 48.74281 26.82845 48.5625 27.84375 C 49.709603 29.99245 49.238936 25.66845 50.40625 27.59375 C 50.269958 29.62475 55.119494 28.06785 52.8125 30.65625 C 50.829017 31.05595 48.86389 30.13525 47.15625 30.71875 C 45.566885 30.70475 45.641154 29.01915 45.0625 28.59375 C 43.04081 28.75815 40.540953 28.7411 39.1875 30.375 C 37.723917 32.3838 35.623533 35.185 37.21875 37.75 C 38.81509 41.551 42.786934 37.9427 45.0625 40.1875 C 45.738883 41.1235 44.456389 42.2361 45.96875 43.25 C 46.537824 45.4097 45.32107 47.46675 46.71875 49.53125 C 47.441491 51.47285 47.903764 54.36795 50.59375 52.59375 C 53.440729 50.87985 52.682123 47.71875 55.03125 45.96875 C 53.172486 42.37015 57.312614 40.7965 58.34375 37.875 C 56.090934 38.205 54.075546 35.9491 53.53125 33.6875 C 52.584867 32.589 52.817856 30.96765 53.875 33.03125 C 55.328042 34.43975 55.374602 38.61885 58.0625 36.46875 C 59.29132 35.95465 62.642675 34.0175 59.96875 33.125 C 58.245148 34.3738 56.343977 29.39245 58.875 32.28125 C 60.715029 33.06215 62 33.5266 62 30.9375 L 62 20 L 55.21875 13.21875 C 55.129776 13.245946 55.020789 13.27657 54.90625 13.28125 C 54.752472 14.42825 53.38451 13.50445 53.90625 14.59375 C 52.834361 13.83305 51.919239 11.43008 54.03125 12.9375 C 54.307531 12.854575 54.50043 12.755606 54.65625 12.65625 L 50.71875 8.71875 C 50.700838 8.7264132 50.666258 8.7048853 50.65625 8.71875 z M 24.78125 9.34375 C 23.737316 10.21385 26.765912 10.37765 24.78125 9.34375 z M 10.8125 9.8125 C 9.6448913 11.0343 12.671986 10.9356 10.8125 9.8125 z M 17.59375 11.03125 C 16.70956 12.48027 18.900198 11.56625 17.59375 11.03125 z M 36.96875 12.75 C 35.933582 13.9422 34.553521 12.44395 34.53125 13.46875 C 34.718852 13.77835 35.478737 15.97455 37.125 14.34375 C 38.00856 13.97105 37.666015 13.0376 36.96875 12.75 z M 14.90625 13.46875 C 12.942817 15.18405 18.262307 15.33295 15.34375 13.65625 L 14.90625 13.46875 z M 40.8125 18.21875 C 39.398869 19.14095 41.490187 21.08 40.78125 22 C 39.895461 23.5439 44.074972 21.88795 41.84375 20.65625 C 41.684776 19.59795 40.535015 18.32915 40.8125 18.21875 z M 39.875 20.0625 C 37.905434 20.6195 39.427414 23.48995 40.125 20.78125 C 40.16426 20.62425 40.217869 20.0573 39.875 20.0625 z M 24.09375 22.15625 C 22.261447 23.40615 23.813399 24.65605 25.15625 24.09375 C 24.880565 23.33955 24.106172 22.86215 24.09375 22.15625 z M 58.71875 24.25 C 59.632998 24.7115 57.016458 25.5002 58.65625 26.3125 C 59.61052 27.4352 59.269831 29.86175 57.71875 28.15625 C 58.006923 26.25195 55.624042 24.8128 58.71875 24.25 z M 54 24.28125 C 53.875953 25.50465 56.634105 27.40185 53.65625 26.78125 C 52.081433 26.96615 49.734791 26.7131 51.71875 24.75 C 52.345643 24.3735 53.98153 26.0661 53.125 24.5 C 53.428671 24.481 53.713943 24.37335 54 24.28125 z M 44.90625 26.90625 C 43.757595 27.64655 45.700522 28.21425 44.90625 26.90625 z M 16.0625 33.8125 C 15.868855 34.4588 19.702993 35.12915 17.0625 34.09375 L 16.65625 33.9375 L 16.0625 33.8125 z M 19.03125 34.75 C 17.870597 35.9288 21.422541 35.1022 19.03125 34.75 z M 57.84375 45.5625 C 55.321802 45.6275 55.648255 52.13175 57.40625 48.28125 C 57.572968 47.44575 58.25001 46.3461 57.84375 45.5625 z "
       transform="translate(0,988.36218)"
       id="path3522" />
    <g
       id="g4177">
      <path
         d="m 48.820281,989.36178 c -0.17083,0 -0.315061,0.3102 -0.360465,0.7209 l 0.72093,0 c -0.0454,-0.4107 -0.189634,-0.7209 -0.360465,-0.7209 z"
         inkscape:connector-curvature="0"
         id="path3697"
         style="color:#000000;fill:#be5916;fill-opacity:1;fill-rule:nonzero;stroke:none;stroke-width:1;marker:none;visibility:visible;display:inline;overflow:visible;enable-background:accumulate" />
      <path
         style="fill:#ecba11;fill-opacity:0.98823529;stroke:none"
         d="m 48.5,994.86218 c -3.798258,21.30772 -19.198971,45.81552 -25.53125,55.50002 l 7.9375,0 c 5.629296,-8.5862 18.43536,-29.6441 23.53125,-49.5625 L 48.5,994.86218 z"
         id="path3828"
         inkscape:connector-curvature="0" />
      <path
         style="fill:#ecba11;fill-opacity:0.98823529;stroke:none"
         d="m 25.812,990.36218 c 11.87138,15.79612 23.09375,48.75002 23.09375,48.75002 l -6.28125,1.5312 13.125,6.4063 4.6875,-14.0313 -5.03125,3.25 c 0,0 -11.410331,-31.2508 -22.84375,-45.90622 l -6.75,0 z"
         id="path3830"
         inkscape:connector-curvature="0" />
    </g>
    <g
       id="g3991">
      <path
         inkscape:connector-curvature="0"
         id="path3106"
         d="m 44,988.36218 0,20.00002 20,0 z"
         style="fill:#bddf64;fill-opacity:1;stroke:none" />
      <path
         id="path3106-4"
         transform="translate(0,988.36218)"
         d="M 44 0 L 44 20 L 64 20 L 44 0 z M 45 2.40625 L 61.59375 19 L 45 19 L 45 2.40625 z "
         style="font-size:medium;font-style:normal;font-variant:normal;font-weight:normal;font-stretch:normal;text-indent:0;text-align:start;text-decoration:none;line-height:normal;letter-spacing:normal;word-spacing:normal;text-transform:none;direction:ltr;block-progression:tb;writing-mode:lr-tb;text-anchor:start;baseline-shift:baseline;color:#000000;fill:#307a8c;fill-opacity:1;fill-rule:nonzero;stroke:none;stroke-width:2;marker:none;visibility:visible;display:inline;overflow:visible;enable-background:accumulate;font-family:Sans;-inkscape-font-specification:Sans" />
    </g>
    <path
       style="fill:#000000;stroke:none;fill-opacity:0.25098041"
       d="m 64,1008.3622 0,16 -16,-16 z"
       id="path3001"
       inkscape:connector-curvature="0"
       sodipodi:nodetypes="cccc" />
    <path
       style="font-size:medium;font-style:normal;font-variant:normal;font-weight:normal;font-stretch:normal;text-indent:0;text-align:start;text-decoration:none;line-height:normal;letter-spacing:normal;word-spacing:normal;text-transform:none;direction:ltr;block-progression:tb;writing-mode:lr-tb;text-anchor:start;baseline-shift:baseline;color:#000000;fill:#f8c600;fill-opacity:1;stroke:none;stroke-width:2;marker:none;visibility:visible;display:inline;overflow:visible;enable-background:accumulate;font-family:Sans;-inkscape-font-specification:Sans"
       d="m 25.812,990.36271 c 11.87138,15.79609 23.09375,48.74999 23.09375,48.74999 l -6.28125,1.5313 13.125,6.4062 4.6875,-14.0312 -5.03125,3.25 c 0,0 -11.410331,-31.2509 -22.84375,-45.90629 l -6.75,0 z m 1.875,1 4.34375,0 c 11.125655,14.50999 22.4375,45.24999 22.4375,45.24999 l 0.4375,1.1563 1.03125,-0.6563 2.65625,-1.7187 -3.40625,10.25 -9.625,-4.6875 3.59375,-0.875 1.03125,-0.25 -0.34375,-1.0313 c 0,0 -10.487068,-30.8988 -22.15625,-47.43749 z"
       id="path3830-6"
       inkscape:connector-curvature="0" />
  </g>
</svg>
