<?xml version="1.0" encoding="UTF-8" standalone="no"?>
<!-- Created with Inkscape (http://www.inkscape.org/) -->

<svg
   xmlns:dc="http://purl.org/dc/elements/1.1/"
   xmlns:cc="http://creativecommons.org/ns#"
   xmlns:rdf="http://www.w3.org/1999/02/22-rdf-syntax-ns#"
   xmlns:svg="http://www.w3.org/2000/svg"
   xmlns="http://www.w3.org/2000/svg"
   xmlns:xlink="http://www.w3.org/1999/xlink"
   xmlns:sodipodi="http://sodipodi.sourceforge.net/DTD/sodipodi-0.dtd"
   xmlns:inkscape="http://www.inkscape.org/namespaces/inkscape"
   width="64"
   height="64"
   id="svg2"
   version="1.1"
   inkscape:version="0.48.4 r9939"
   sodipodi:docname="mysql-workbench.svg">
  <defs
     id="defs4">
    <inkscape:perspective
       sodipodi:type="inkscape:persp3d"
       inkscape:vp_x="-7.7001276 : 37.974237 : 1"
       inkscape:vp_y="0 : 1000 : 0"
       inkscape:vp_z="30.411512 : 39.036324 : 1"
       inkscape:persp3d-origin="32 : 21.333333 : 1"
       id="perspective3852" />
    <linearGradient
       gradientTransform="matrix(0.058,0,0,0.05257,-1.57492,-1.41742)"
       xlink:href="#linearGradient4038"
       id="linearGradient4950"
       y1="212"
       y2="100"
       gradientUnits="userSpaceOnUse"
       x2="0" />
    <linearGradient
       id="linearGradient4038">
      <stop
         offset="0"
         style="stop-color:#ff8900"
         id="stop12" />
      <stop
         offset="1"
         style="stop-color:#ffa53d"
         id="stop14" />
    </linearGradient>
  </defs>
  <sodipodi:namedview
     id="base"
     pagecolor="#ffffff"
     bordercolor="#666666"
     borderopacity="1.0"
     inkscape:pageopacity="0.0"
     inkscape:pageshadow="2"
     inkscape:zoom="8.1485433"
     inkscape:cx="37.396374"
     inkscape:cy="26.866174"
     inkscape:document-units="px"
     inkscape:current-layer="layer1"
     showgrid="false"
     inkscape:window-width="1366"
     inkscape:window-height="744"
     inkscape:window-x="0"
     inkscape:window-y="24"
     inkscape:window-maximized="1">
    <inkscape:grid
       type="xygrid"
       id="grid3811"
       empspacing="1"
       visible="true"
       enabled="true"
       snapvisiblegridlinesonly="true" />
  </sodipodi:namedview>
  <metadata
     id="metadata7">
    <rdf:RDF>
      <cc:Work
         rdf:about="">
        <dc:format>image/svg+xml</dc:format>
        <dc:type
           rdf:resource="http://purl.org/dc/dcmitype/StillImage" />
        <dc:title />
      </cc:Work>
    </rdf:RDF>
  </metadata>
  <g
     inkscape:label="Calque 1"
     inkscape:groupmode="layer"
     id="layer1"
     transform="translate(0,-988.36218)">
    <path
       style="fill:#f0f0f0;fill-opacity:1;stroke:#00546b;stroke-width:0.98461538999999998;stroke-opacity:1"
       d="m 0.49230769,988.85449 43.50769231,0 19.507692,19.50771 0,43.5077 -63.01538431,0 z"
       id="rect3813"
       inkscape:connector-curvature="0"
       sodipodi:nodetypes="cccccc" />
    <path
       style="fill:#bbd4eb;fill-opacity:1;stroke:#ffffff;stroke-width:0.95399999999999996;stroke-miterlimit:4;stroke-opacity:1"
       d="m 1.476923,989.83911 42.523077,0 18.523077,18.52309 0,42.5231 -61.046154,0 z"
       id="rect3813-9"
       inkscape:connector-curvature="0"
       sodipodi:nodetypes="cccccc" />
    <g
       id="g3991">
      <path
         inkscape:connector-curvature="0"
         id="path3106"
         d="m 44,988.36218 0,20.00002 20,0 z"
         style="fill:#ffffff;fill-opacity:1;stroke:none" />
      <path
         id="path3106-4"
         transform="translate(0,988.36218)"
         d="M 44 0 L 44 20 L 64 20 L 44 0 z M 45 2.40625 L 61.59375 19 L 45 19 L 45 2.40625 z "
         style="font-size:medium;font-style:normal;font-variant:normal;font-weight:normal;font-stretch:normal;text-indent:0;text-align:start;text-decoration:none;line-height:normal;letter-spacing:normal;word-spacing:normal;text-transform:none;direction:ltr;block-progression:tb;writing-mode:lr-tb;text-anchor:start;baseline-shift:baseline;color:#000000;fill:#00546b;fill-opacity:1;fill-rule:nonzero;stroke:none;stroke-width:2;marker:none;visibility:visible;display:inline;overflow:visible;enable-background:accumulate;font-family:Sans;-inkscape-font-specification:Sans" />
    </g>
    <path
       style="fill:#000000;stroke:none;fill-opacity:0.25098041"
       d="m 64,1008.3622 0,16 -16,-16 z"
       id="path3001"
       inkscape:connector-curvature="0"
       sodipodi:nodetypes="cccc" />
    <g
       style="color:#000000;fill:#00546b"
       transform="matrix(0.0789239,0,0,0.08037078,41.200012,994.50271)"
       id="g12">
      <path
         inkscape:connector-curvature="0"
         d="m 156.08311,428.63114 c -30.7184,-0.766 -54.5256,2.30776 -74.493203,10.75339 -5.7597,2.30291 -14.9762,2.30532 -15.7446,9.59947 3.0738,3.0738 3.4568,8.06506 6.1451,12.28786 4.6107,7.67715 12.6709,18.04753 19.9675,23.42422 8.062603,6.1427 16.127603,12.2854 24.573303,17.66209 14.9762,9.2165 31.8722,14.59072 46.463,23.80718 8.4505,5.37179 16.8936,12.28784 25.3417,18.04753 4.2253,3.06891 6.9112,8.06258 12.2879,9.98248 0,-0.38544 0,-0.76845 0,-1.15144 -2.6884,-3.45677 -3.4568,-8.44803 -6.1427,-12.28784 -3.8374,-3.8398 -7.6796,-7.29658 -11.5194,-11.13638 -11.1364,-14.97378 -24.9588,-28.02995 -39.9348,-38.78092 -12.2854,-8.44807 -39.1664,-19.96745 -44.157803,-34.17521 0,0 -0.3854,-0.38301 -0.7684,-0.76602 8.448003,-0.76845 18.430503,-3.83977 26.495603,-6.14514 13.0563,-3.45676 24.9588,-2.68833 38.3979,-6.1427 6.1427,-1.53687 12.2879,-3.45677 18.4306,-5.37668 0,-1.15388 0,-2.30289 0,-3.45433 -6.9087,-6.91362 -11.9024,-16.12764 -19.199,-22.65583 -19.582,-16.8985 -41.0864,-33.40675 -63.356703,-47.22911 -11.9049,-7.67959 -27.2641,-12.67331 -39.9348,-19.19902 -4.6058,-2.30776 -12.2879,-3.45676 -14.9738,-7.2966 -6.91357,-8.44802 -10.75337,-19.58197 -15.74461,-29.56698 C 17.084397,287.70993 6.3285071,264.29046 -3.2708729,242.0201 -10.179573,227.04391 -14.404813,212.06765 -22.852863,198.24553 -62.402193,132.96901 -105.40856,93.419462 -171.4535,54.636068 c -14.20773,-8.062621 -31.10133,-11.519386 -49.14892,-15.742191 -9.59705,-0.385445 -19.199,-1.151443 -28.79857,-1.536888 -6.1427,-2.688373 -12.28784,-9.982498 -17.66455,-13.439294 -21.88243,-13.824729 -78.33046,-43.772305 -94.45805,-4.222805 -10.36795,24.958763 15.3592,49.531905 24.19015,62.205129 6.53058,8.831075 14.97619,18.813551 19.58444,28.798591 2.68836,6.52327 3.45435,13.43928 6.14271,20.35044 6.14513,16.89121 11.90239,35.70954 19.96743,51.45435 4.22524,8.06262 8.83105,16.51066 14.20774,23.80473 3.07134,4.2228 8.4456,6.14514 9.59948,13.05629 -5.37424,7.67957 -5.75969,19.199 -8.83349,28.79857 -13.82229,43.38913 -8.44561,97.14647 11.1364,129.0162 6.1427,9.59707 20.7358,30.72084 40.31796,22.65582 17.27909,-6.91118 13.43928,-28.79857 18.43054,-47.99757 1.1539,-4.61068 0.38544,-7.67957 2.68835,-10.75095 0.002,0.38301 0,0.76844 0,0.76844 5.37668,10.75095 10.75095,21.11897 15.74219,31.86974 11.90483,18.81355 32.63836,38.39797 49.91734,51.45439 9.21894,6.90868 16.51308,18.81356 28.03243,23.03878 0,-0.38791 0,-0.76846 0,-1.1539 -0.38545,0 -0.38545,0 -0.76844,0 -2.30534,-3.45677 -5.75969,-4.99126 -8.83105,-7.67957 -6.91116,-6.91116 -14.59319,-15.35923 -19.96743,-23.03878 -16.1252,-21.50442 -30.3354,-45.30913 -43.00617,-69.88473 -6.1427,-11.90239 -11.51938,-24.95879 -16.51064,-36.86114 -2.30534,-4.61067 -2.30534,-11.51939 -6.14514,-13.82228 -5.75969,8.44559 -14.2053,15.74219 -18.43054,26.11016 -7.29171,16.51064 -8.0626,36.86113 -10.75095,57.97988 -1.53448,0.38546 -0.76846,0 -1.53691,0.76847 -12.28541,-3.0738 -16.51065,-15.74219 -21.11898,-26.4956 -11.51939,-27.26153 -13.43928,-71.03632 -3.45435,-102.52061 2.68835,-8.06504 14.20774,-33.40678 9.59949,-41.08639 -2.30291,-7.29661 -9.98494,-11.51939 -14.20774,-17.27908 -4.99126,-7.2966 -10.36794,-16.51065 -13.82229,-24.5756 -9.2165,-21.50195 -13.82473,-45.30913 -23.80719,-66.81355 -4.60825,-9.984938 -12.67085,-20.350443 -19.199,-29.564528 -7.29414,-10.367922 -15.3592,-17.664524 -21.11897,-29.952406 -1.91747,-4.222805 -4.60825,-11.133941 -1.53689,-15.742211 0.76845,-3.071331 2.3029,-4.222794 5.37668,-4.991249 4.99126,-4.225241 19.199,1.151443 24.19015,3.45436 14.20774,5.757237 26.11016,11.136398 38.01499,19.198998 5.37425,3.839795 11.13394,11.136397 18.0451,13.056295 2.68835,0 5.37668,0 8.06503,0 12.28784,2.685916 26.11016,0.768413 37.62954,4.222804 20.35288,6.525712 38.78093,16.127636 55.29417,26.4956 50.30279,31.869747 91.769647,77.181347 119.802277,131.321657 4.60825,8.82862 6.52571,16.89607 10.75095,26.11016 8.06504,18.81599 18.0475301,38.01498 26.1101501,56.44555 8.0626,18.04509 15.7421899,36.47813 27.2615399,51.45435 5.76213,8.06018 28.79854,12.2854 39.16634,16.51064 7.6796,3.45437 19.5845,6.52817 26.4956,10.75096 13.053903,8.06016 26.110203,17.27912 38.398003,26.11015 6.1451,4.60583 25.3417,14.20776 26.4956,21.88493 l 1e-4,-4e-5 z"
         id="path14" />
      <path
         inkscape:connector-curvature="0"
         d="m -235.5806,94.951482 c -6.52814,0 -11.13394,0.77089 -15.74219,1.92236 0,-0.002 0,0.38544 0,0.76845 0.38545,0 0.38301,0 0.76846,0 3.07379,6.142698 8.44561,10.367938 12.2854,15.742168 3.0738,6.1427 5.75969,12.28786 8.83349,18.433 0.38299,-0.38545 0.766,-0.76845 0.766,-0.76845 5.37914,-3.84224 8.06504,-9.98494 8.06504,-19.199 -2.30535,-2.68835 -2.68836,-5.37669 -4.60825,-8.06504 -2.30291,-3.842248 -7.29661,-5.759688 -10.36795,-8.833488 l 0,0 z"
         id="path16" />
    </g>
    <path
       style="fill:#ff6600;fill-opacity:1;stroke:#ffffff;stroke-width:0.99218184;stroke-opacity:1"
       d="m 2.4960909,1041.8583 59.0078181,0 0,8.0078 -59.0078181,0 z"
       id="rect3813-9-3-2"
       inkscape:connector-curvature="0"
       sodipodi:nodetypes="ccccc" />
    <path
       style="fill:#ff6600;fill-opacity:1;stroke:none"
       d="m 2,1042.3622 60,0 0,8 -60,0 z"
       id="rect3813-9-3"
       inkscape:connector-curvature="0"
       sodipodi:nodetypes="ccccc" />
    <path
       style="font-size:7.80947304px;font-style:normal;font-variant:normal;font-weight:normal;font-stretch:normal;text-align:start;line-height:125%;letter-spacing:0px;word-spacing:0px;writing-mode:lr-tb;text-anchor:start;fill:#ffffff;fill-opacity:1;stroke:none;font-family:Arial Black;-inkscape-font-specification:'Arial Black,'"
       d="m 14.097588,1043.4795 c -0.923471,0 -1.644934,0.2458 -2.162281,0.7632 -0.51735,0.5173 -0.763158,1.2654 -0.763158,2.194 0,0.6648 0.120318,1.2112 0.381579,1.6536 0.261261,0.4424 0.59849,0.7496 1.017544,0.9539 0.421637,0.2044 0.980195,0.318 1.62171,0.318 0.631163,0 1.136471,-0.1144 1.558114,-0.3498 0.424222,-0.238 0.76328,-0.5615 0.985746,-0.9857 0.225041,-0.4268 0.317976,-0.9887 0.317983,-1.6536 -7e-6,-0.9156 -0.250989,-1.6235 -0.763158,-2.1304 -0.512181,-0.5096 -1.247335,-0.7632 -2.194079,-0.7632 z m 37.935307,0 c -0.91571,0 -1.628656,0.2562 -2.130483,0.7632 -0.499242,0.5045 -0.731359,1.2207 -0.731359,2.1622 0,0.7062 0.128834,1.2962 0.413377,1.7489 0.284541,0.4527 0.626943,0.7729 1.017544,0.954 0.393183,0.1782 0.90808,0.2544 1.526315,0.2544 0.509585,0 0.911611,-0.075 1.240132,-0.2226 0.331098,-0.1476 0.604289,-0.3781 0.826754,-0.6678 0.222455,-0.2897 0.405297,-0.6491 0.508772,-1.0811 l -1.558114,-0.4452 c -0.07761,0.3596 -0.176472,0.638 -0.34978,0.8268 -0.17073,0.1886 -0.426885,0.2862 -0.763158,0.2862 -0.346628,0 -0.635338,-0.117 -0.826755,-0.3498 -0.191418,-0.2354 -0.286186,-0.6726 -0.286184,-1.3038 -2e-6,-0.5095 0.09401,-0.9067 0.254386,-1.1447 0.21211,-0.3207 0.523788,-0.477 0.922149,-0.477 0.175896,0 0.3347,0.055 0.476974,0.1272 0.142268,0.072 0.251476,0.1517 0.349781,0.2862 0.05949,0.08 0.104664,0.2082 0.158991,0.3816 l 1.558114,-0.318 c -0.199185,-0.6001 -0.510862,-1.0457 -0.922149,-1.3355 -0.40871,-0.2897 -0.968782,-0.4452 -1.685307,-0.4452 z M 3,1043.5749 l 1.2719298,5.6919 1.7171053,0 0.9857456,-3.5932 1.0175439,3.5932 1.7171052,0 1.2401312,-5.6919 -1.6535084,0 -0.6041666,3.1798 -0.8903509,-3.1798 -1.6535088,0 -0.8903509,3.1798 -0.6041666,-3.1798 -1.6535088,0 z m 15.04057,0 0,5.6919 1.780702,0 0,-2.3213 0.127193,0 c 0.160375,0 0.318422,0.04 0.445175,0.1272 0.09312,0.067 0.198989,0.2202 0.317983,0.4452 l 0.953947,1.7489 1.971491,0 -0.858552,-1.6535 c -0.04139,-0.083 -0.09843,-0.1972 -0.222588,-0.3498 -0.121581,-0.1525 -0.221519,-0.2712 -0.286184,-0.318 -0.09571,-0.07 -0.267452,-0.1206 -0.476974,-0.1908 0.261257,-0.059 0.485928,-0.132 0.635965,-0.2226 0.235388,-0.1422 0.406054,-0.3447 0.54057,-0.5723 0.134506,-0.2303 0.222583,-0.4794 0.222588,-0.795 -5e-6,-0.3621 -0.110292,-0.6712 -0.286184,-0.9221 -0.175905,-0.2535 -0.412437,-0.448 -0.699562,-0.5406 -0.287132,-0.093 -0.696918,-0.1272 -1.240131,-0.1272 l -2.925439,0 z m 6.16886,0 0,5.6919 1.748903,0 0,-1.3991 0.922149,-0.954 1.176536,2.3531 2.16228,0 -2.16228,-3.5614 2.098684,-2.1305 -2.35307,0 -1.844299,2.1623 0,-2.1623 -1.748903,0 z m 6.614035,0 0,5.6919 3.052631,0 c 0.129333,0 0.367383,-0.043 0.763158,-0.095 0.297471,-0.039 0.520314,-0.073 0.667764,-0.159 0.237975,-0.1372 0.435265,-0.337 0.572368,-0.5724 0.137094,-0.2354 0.190784,-0.4999 0.190789,-0.7949 -5e-6,-0.3621 -0.09218,-0.6524 -0.286184,-0.8904 -0.191424,-0.2405 -0.48165,-0.41 -0.890351,-0.5087 0.269017,-0.093 0.464478,-0.2213 0.604167,-0.3816 0.20952,-0.2407 0.317977,-0.5541 0.317982,-0.8904 -5e-6,-0.4009 -0.150291,-0.7141 -0.445175,-0.9857 -0.292307,-0.2716 -0.691746,-0.4134 -1.240132,-0.4134 l -3.307017,0 z m 6.16886,0 0,5.6919 4.801535,0 0,-1.3037 -3.020834,0 0,-1.113 2.734649,0 0,-1.1447 -2.734649,0 0,-0.9222 2.925439,0 0,-1.2083 -4.70614,0 z m 5.755482,0 0,5.6919 1.653509,0 0,-3.1162 2.130482,3.1162 1.653509,0 0,-5.6919 -1.653509,0 0,3.148 -2.130482,-3.148 -1.653509,0 z m 12.814693,0 0,5.6919 1.748904,0 0,-2.3213 1.907894,0 0,2.3213 1.780702,0 0,-5.6919 -1.780702,0 0,2.0033 -1.907894,0 0,-2.0033 -1.748904,0 z m -35.741228,1.1447 0.763158,0 c 0.320752,0 0.551356,0.06 0.667763,0.159 0.116402,0.098 0.158987,0.2297 0.158991,0.4134 -4e-6,0.1242 -0.05218,0.2223 -0.127193,0.318 -0.07243,0.096 -0.137986,0.1674 -0.254386,0.1908 -0.230223,0.052 -0.396791,0.064 -0.476973,0.064 l -0.73136,0 0,-1.1448 z m 12.782895,0 0.763158,0 c 0.266431,0 0.466307,0.066 0.572368,0.159 0.108638,0.093 0.158987,0.2161 0.158991,0.3816 -4e-6,0.1785 -0.05035,0.3177 -0.158991,0.4134 -0.106061,0.093 -0.298177,0.1272 -0.572368,0.1272 l -0.763158,0 0,-1.0812 z m -18.506579,0.095 c 0.3699,0 0.675647,0.1332 0.890351,0.3816 0.217282,0.2457 0.317977,0.6093 0.317982,1.1447 -5e-6,0.6364 -0.111047,1.0898 -0.317982,1.3356 -0.206943,0.2457 -0.480893,0.3816 -0.858553,0.3816 -0.367321,0 -0.675653,-0.1307 -0.890351,-0.3816 -0.212115,-0.251 -0.317984,-0.6659 -0.317982,-1.2402 -2e-6,-0.5793 0.103279,-0.9892 0.317982,-1.2401 0.214697,-0.2509 0.504166,-0.3816 0.858553,-0.3816 z m 18.506579,2.0669 0.890351,0 c 0.307819,0 0.514384,0.055 0.635964,0.159 0.124156,0.1008 0.190786,0.2452 0.19079,0.4134 -4e-6,0.181 -0.06663,0.3047 -0.19079,0.4134 -0.124166,0.1061 -0.333318,0.159 -0.635964,0.159 l -0.890351,0 0,-1.1448 z"
       id="path3880"
       inkscape:connector-curvature="0" />
    <path
       style="font-size:9.83073139px;font-style:normal;font-variant:normal;font-weight:normal;font-stretch:normal;text-align:start;line-height:125%;letter-spacing:0px;word-spacing:0px;writing-mode:lr-tb;text-anchor:start;fill:#00546b;fill-opacity:1;stroke:none;font-family:Arial Black;-inkscape-font-specification:'Arial Black,'"
       d="M 22.9375 43.0625 C 22.204672 43.0625 21.641162 43.1269 21.21875 43.3125 C 20.799534 43.4949 20.461206 43.77045 20.25 44.09375 C 20.041992 44.41375 19.9375 44.73215 19.9375 45.09375 C 19.9375 45.64415 20.152885 46.11355 20.5625 46.46875 C 20.968912 46.82395 21.640115 47.0981 22.59375 47.3125 C 23.176165 47.4405 23.558741 47.57475 23.71875 47.71875 C 23.878748 47.86275 23.968746 48.03635 23.96875 48.21875 C 23.968746 48.41075 23.857101 48.57155 23.6875 48.71875 C 23.52109 48.86275 23.310406 48.9375 23 48.9375 C 22.583982 48.9375 22.255255 48.81605 22.03125 48.53125 C 21.893643 48.35525 21.7948 48.086 21.75 47.75 L 19.6875 47.875 C 19.748302 48.5854 20.007933 49.1642 20.46875 49.625 C 20.929564 50.0859 21.771908 50.3125 22.96875 50.3125 C 23.650369 50.3125 24.20823 50.22645 24.65625 50.03125 C 25.104259 49.83275 25.437885 49.53705 25.6875 49.15625 C 25.937102 48.77545 26.062493 48.35745 26.0625 47.90625 C 26.062493 47.52225 25.97005 47.1855 25.78125 46.875 C 25.595637 46.5646 25.287808 46.30175 24.875 46.09375 C 24.465381 45.88255 23.794178 45.67355 22.84375 45.46875 C 22.459734 45.38875 22.227401 45.31175 22.125 45.21875 C 22.019395 45.12915 21.968747 45.01825 21.96875 44.90625 C 21.968747 44.75265 22.028243 44.63685 22.15625 44.53125 C 22.284252 44.42205 22.465938 44.375 22.71875 44.375 C 23.025956 44.375 23.26469 44.4185 23.4375 44.5625 C 23.613502 44.7065 23.72684 44.96445 23.78125 45.28125 L 25.84375 45.15625 C 25.75414 44.42665 25.47361 43.8954 25 43.5625 C 24.529579 43.2265 23.836726 43.0625 22.9375 43.0625 z M 30.53125 43.0625 C 29.385608 43.0625 28.483769 43.3567 27.84375 44 C 27.206927 44.64 26.90625 45.56035 26.90625 46.71875 C 26.90625 47.91245 27.270375 48.8408 28 49.5 C 28.617619 50.0569 29.462411 50.3125 30.53125 50.3125 C 31.25447 50.3125 31.832479 50.208 32.3125 50 C 32.430898 50.1024 32.639884 50.26715 32.9375 50.46875 C 33.235104 50.67355 33.539732 50.8528 33.84375 51 L 34.46875 49.78125 C 34.257535 49.68845 34.062297 49.60125 33.9375 49.53125 C 33.85429 49.48325 33.678252 49.3763 33.40625 49.1875 C 33.91826 48.5635 34.187492 47.7276 34.1875 46.6875 C 34.187492 45.5195 33.855564 44.6273 33.21875 44 C 32.585122 43.3728 31.699284 43.0625 30.53125 43.0625 z M 4.75 43.15625 L 4.75 50.21875 L 6.53125 50.21875 L 6.53125 44.84375 L 7.90625 50.21875 L 9.53125 50.21875 L 10.90625 44.84375 L 10.90625 50.21875 L 12.6875 50.21875 L 12.6875 43.15625 L 9.8125 43.15625 L 8.71875 47.4375 L 7.625 43.15625 L 4.75 43.15625 z M 35.375 43.15625 L 35.375 50.21875 L 40.9375 50.21875 L 40.9375 48.46875 L 37.53125 48.46875 L 37.53125 43.15625 L 35.375 43.15625 z M 30.53125 44.6875 C 30.995261 44.6875 31.362587 44.85225 31.625 45.15625 C 31.890604 45.46025 31.999994 45.9771 32 46.6875 C 31.999994 47.3052 31.9228 47.7521 31.75 48.0625 C 31.663592 48.0081 31.5736 47.95725 31.5 47.90625 C 31.189585 47.68865 30.983799 47.551 30.875 47.5 C 30.769392 47.4484 30.629502 47.41 30.4375 47.375 L 30.09375 48.15625 C 30.487359 48.31305 30.78634 48.48025 30.96875 48.65625 C 30.837542 48.68525 30.678451 48.6875 30.53125 48.6875 C 30.073631 48.6875 29.731155 48.52915 29.46875 48.21875 C 29.206338 47.90835 29.062497 47.3931 29.0625 46.625 C 29.062497 45.9658 29.199938 45.46665 29.46875 45.15625 C 29.737556 44.84585 30.099231 44.6875 30.53125 44.6875 z M 13.34375 45.09375 L 15.5 50.21875 C 15.400795 50.49075 15.269003 50.67565 15.125 50.78125 C 14.984193 50.88665 14.792906 50.9375 14.5625 50.9375 C 14.216887 50.9375 13.906609 50.87125 13.625 50.78125 L 13.78125 52.15625 C 14.370069 52.23345 14.812139 52.28125 15.09375 52.28125 C 15.788171 52.28125 16.317035 52.1197 16.65625 51.8125 C 16.896254 51.5949 17.113339 51.1833 17.34375 50.5625 L 19.375 45.09375 L 17.4375 45.09375 L 16.46875 48.5 L 15.4375 45.09375 L 13.34375 45.09375 z "
       transform="translate(0,988.36218)"
       id="path3003" />
  </g>
</svg>
