<?xml version="1.0" encoding="UTF-8" standalone="no"?>
<!-- Created with Inkscape (http://www.inkscape.org/) -->

<svg
   xmlns:dc="http://purl.org/dc/elements/1.1/"
   xmlns:cc="http://creativecommons.org/ns#"
   xmlns:rdf="http://www.w3.org/1999/02/22-rdf-syntax-ns#"
   xmlns:svg="http://www.w3.org/2000/svg"
   xmlns="http://www.w3.org/2000/svg"
   xmlns:sodipodi="http://sodipodi.sourceforge.net/DTD/sodipodi-0.dtd"
   xmlns:inkscape="http://www.inkscape.org/namespaces/inkscape"
   width="64"
   height="64"
   id="svg2"
   version="1.1"
   inkscape:version="0.48.4 r9939"
   sodipodi:docname="qtcreator.svg">
  <defs
     id="defs4">
    <inkscape:perspective
       sodipodi:type="inkscape:persp3d"
       inkscape:vp_x="-7.7001276 : 37.974237 : 1"
       inkscape:vp_y="0 : 1000 : 0"
       inkscape:vp_z="30.411512 : 39.036324 : 1"
       inkscape:persp3d-origin="32 : 21.333333 : 1"
       id="perspective3852" />
  </defs>
  <sodipodi:namedview
     id="base"
     pagecolor="#ffffff"
     bordercolor="#666666"
     borderopacity="1.0"
     inkscape:pageopacity="0.0"
     inkscape:pageshadow="2"
     inkscape:zoom="3.77"
     inkscape:cx="47.245766"
     inkscape:cy="29.407995"
     inkscape:document-units="px"
     inkscape:current-layer="layer1"
     showgrid="false"
     inkscape:window-width="1366"
     inkscape:window-height="744"
     inkscape:window-x="0"
     inkscape:window-y="24"
     inkscape:window-maximized="1">
    <inkscape:grid
       type="xygrid"
       id="grid3811"
       empspacing="1"
       visible="true"
       enabled="true"
       snapvisiblegridlinesonly="true" />
  </sodipodi:namedview>
  <metadata
     id="metadata7">
    <rdf:RDF>
      <cc:Work
         rdf:about="">
        <dc:format>image/svg+xml</dc:format>
        <dc:type
           rdf:resource="http://purl.org/dc/dcmitype/StillImage" />
        <dc:title />
      </cc:Work>
    </rdf:RDF>
  </metadata>
  <g
     inkscape:label="Calque 1"
     inkscape:groupmode="layer"
     id="layer1"
     transform="translate(0,-988.36218)">
    <path
       style="fill:#f2f2f2;fill-opacity:1;stroke:#024c1c;stroke-width:0.98461538999999998;stroke-opacity:1"
       d="m 0.49230769,988.85449 43.50769231,0 19.507692,19.50771 0,43.5077 -63.01538431,0 z"
       id="rect3813"
       inkscape:connector-curvature="0"
       sodipodi:nodetypes="cccccc" />
    <path
       style="fill:#5aa72d;fill-opacity:1;stroke:#a8df87;stroke-width:0.95399999999999996;stroke-miterlimit:4;stroke-opacity:1"
       d="m 1.476923,989.83911 42.523077,0 18.523077,18.52309 0,42.5231 -61.046154,0 z"
       id="rect3813-9"
       inkscape:connector-curvature="0"
       sodipodi:nodetypes="cccccc" />
    <path
       d="m 21.965616,1004.3261 c -3.444742,0 -6.228184,1.2532 -8.343839,3.7593 -2.414028,2.8558 -3.621778,6.7261 -3.621777,11.6217 -10e-7,3.6427 0.698438,6.8091 2.108883,9.49 2.14278,3.9923 5.435532,5.9829 9.856733,5.9829 0.955272,4.2661 3.590267,6.5101 9.787966,5.5701 l 0,-3.0945 c -2.885159,0.2659 -3.511521,-1.3198 -3.73639,-4.1261 l 0,-0.1833 c 0.867944,-0.5537 1.65579,-1.2409 2.361031,-2.086 2.305506,-2.7684 3.461293,-6.6282 3.461318,-11.5531 -2.5e-5,-3.6716 -0.735908,-6.8319 -2.200573,-9.5128 -2.169931,-3.9049 -5.387796,-5.8682 -9.673352,-5.8682 z m 23.22063,1.2378 -4.355301,0.1146 -1.444126,6.8309 -3.094556,0 0,5.1118 2.842407,0 0,9.788 c -3e-6,2.6809 0.382389,4.5607 1.123209,5.6389 0.932879,1.428 2.91429,2.1319 5.959886,2.1319 1.015185,0 2.273146,-0.1379 3.782235,-0.4585 l 0,-4.8596 c -1.042651,0.058 -1.816805,0.092 -2.338109,0.092 -0.85058,0 -1.454209,-0.1441 -1.810888,-0.4356 -0.439015,-0.3496 -0.664766,-1.254 -0.664757,-2.6819 l 0,-9.2149 4.492837,0 0,-5.1118 -4.492837,0 0,-6.9455 z m -23.22063,4.4929 c 3.363345,0 5.042962,3.227 5.04298,9.6962 -1.8e-5,6.4692 -1.679635,9.7192 -5.04298,9.7192 -3.417618,0 -5.134679,-3.2666 -5.13467,-9.7651 -9e-6,-0.2622 -9e-6,-0.517 0,-0.7793 0.162734,-5.9155 1.879795,-8.871 5.13467,-8.871 z"
       inkscape:connector-curvature="0"
       id="path3665-9"
       style="font-size:136.83798218px;font-style:normal;font-variant:normal;font-weight:bold;font-stretch:normal;text-align:start;line-height:125%;writing-mode:lr-tb;text-anchor:start;fill:#ffffff;fill-opacity:1;stroke:#024c1c;stroke-width:2;stroke-miterlimit:4;stroke-opacity:1;stroke-dasharray:none;font-family:UnDotum;-inkscape-font-specification:UnDotum Bold" />
    <path
       d="m 22.965616,1004.1261 c -3.444742,0 -6.228184,1.2532 -8.343839,3.7593 -2.414028,2.8558 -3.621778,6.7261 -3.621777,11.6217 -10e-7,3.6427 0.698438,6.8091 2.108883,9.49 2.14278,3.9923 5.435532,5.9829 9.856733,5.9829 0.955272,4.2661 3.590267,6.5101 9.787966,5.5701 l 0,-3.0945 c -2.885159,0.2659 -3.511521,-1.3198 -3.73639,-4.1261 l 0,-0.1833 c 0.867944,-0.5537 1.65579,-1.2409 2.361031,-2.086 2.305506,-2.7684 3.461293,-6.6282 3.461318,-11.5531 -2.5e-5,-3.6716 -0.735908,-6.8319 -2.200573,-9.5128 -2.169931,-3.9049 -5.387796,-5.8682 -9.673352,-5.8682 z m 23.22063,1.2378 -4.355301,0.1146 -1.444126,6.8309 -3.094556,0 0,5.1118 2.842407,0 0,9.788 c -3e-6,2.6809 0.382389,4.5607 1.123209,5.6389 0.932879,1.428 2.91429,2.1319 5.959886,2.1319 1.015185,0 2.273146,-0.1379 3.782235,-0.4585 l 0,-4.8596 c -1.042651,0.058 -1.816805,0.092 -2.338109,0.092 -0.85058,0 -1.454209,-0.1441 -1.810888,-0.4356 -0.439015,-0.3496 -0.664766,-1.254 -0.664757,-2.6819 l 0,-9.2149 4.492837,0 0,-5.1118 -4.492837,0 0,-6.9455 z m -23.22063,4.4929 c 3.363345,0 5.042962,3.227 5.04298,9.6962 -1.8e-5,6.4692 -1.679635,9.7192 -5.04298,9.7192 -3.417618,0 -5.134679,-3.2666 -5.13467,-9.7651 -9e-6,-0.2622 -9e-6,-0.517 0,-0.7793 0.162734,-5.9155 1.879795,-8.871 5.13467,-8.871 z"
       inkscape:connector-curvature="0"
       id="path3665"
       style="font-size:136.83798218px;font-style:normal;font-variant:normal;font-weight:bold;font-stretch:normal;text-align:start;line-height:125%;writing-mode:lr-tb;text-anchor:start;fill:#ffffff;fill-opacity:1;stroke:none;font-family:UnDotum;-inkscape-font-specification:UnDotum Bold" />
    <g
       id="g3991">
      <path
         inkscape:connector-curvature="0"
         id="path3106"
         d="m 44,988.36218 0,20.00002 20,0 z"
         style="fill:#ffffff;fill-opacity:1;stroke:none" />
      <path
         id="path3106-4"
         transform="translate(0,988.36218)"
         d="M 44 0 L 44 20 L 64 20 L 44 0 z M 45 2.40625 L 61.59375 19 L 45 19 L 45 2.40625 z "
         style="font-size:medium;font-style:normal;font-variant:normal;font-weight:normal;font-stretch:normal;text-indent:0;text-align:start;text-decoration:none;line-height:normal;letter-spacing:normal;word-spacing:normal;text-transform:none;direction:ltr;block-progression:tb;writing-mode:lr-tb;text-anchor:start;baseline-shift:baseline;color:#000000;fill:#024c1c;fill-opacity:1;fill-rule:nonzero;stroke:none;stroke-width:2;marker:none;visibility:visible;display:inline;overflow:visible;enable-background:accumulate;font-family:Sans;-inkscape-font-specification:Sans" />
    </g>
    <path
       style="fill:#000000;fill-opacity:0.25098039;stroke:none"
       d="m 63.999998,1008.3622 0,16 -15.999998,-16 z"
       id="path3001"
       inkscape:connector-curvature="0"
       sodipodi:nodetypes="cccc" />
  </g>
</svg>
