<?xml version="1.0" encoding="UTF-8" standalone="no"?>
<!-- Created with Inkscape (http://www.inkscape.org/) -->

<svg
   xmlns:dc="http://purl.org/dc/elements/1.1/"
   xmlns:cc="http://creativecommons.org/ns#"
   xmlns:rdf="http://www.w3.org/1999/02/22-rdf-syntax-ns#"
   xmlns:svg="http://www.w3.org/2000/svg"
   xmlns="http://www.w3.org/2000/svg"
   xmlns:xlink="http://www.w3.org/1999/xlink"
   xmlns:sodipodi="http://sodipodi.sourceforge.net/DTD/sodipodi-0.dtd"
   xmlns:inkscape="http://www.inkscape.org/namespaces/inkscape"
   width="64"
   height="64"
   id="svg2"
   version="1.1"
   inkscape:version="0.48.4 r9939"
   sodipodi:docname="sublime-text.svg">
  <defs
     id="defs4">
    <inkscape:perspective
       sodipodi:type="inkscape:persp3d"
       inkscape:vp_x="-7.7001276 : 37.974237 : 1"
       inkscape:vp_y="0 : 1000 : 0"
       inkscape:vp_z="30.411512 : 39.036324 : 1"
       inkscape:persp3d-origin="32 : 21.333333 : 1"
       id="perspective3852" />
    <linearGradient
       gradientTransform="matrix(0.058,0,0,0.05257,-1.57492,-1.41742)"
       xlink:href="#linearGradient4038"
       id="linearGradient4950"
       y1="212"
       y2="100"
       gradientUnits="userSpaceOnUse"
       x2="0" />
    <linearGradient
       id="linearGradient4038">
      <stop
         offset="0"
         style="stop-color:#ff8900"
         id="stop12" />
      <stop
         offset="1"
         style="stop-color:#ffa53d"
         id="stop14" />
    </linearGradient>
  </defs>
  <sodipodi:namedview
     id="base"
     pagecolor="#ffffff"
     bordercolor="#666666"
     borderopacity="1.0"
     inkscape:pageopacity="0.0"
     inkscape:pageshadow="2"
     inkscape:zoom="8.1485433"
     inkscape:cx="11.058689"
     inkscape:cy="31.830239"
     inkscape:document-units="px"
     inkscape:current-layer="layer1"
     showgrid="false"
     inkscape:window-width="1366"
     inkscape:window-height="744"
     inkscape:window-x="0"
     inkscape:window-y="24"
     inkscape:window-maximized="1">
    <inkscape:grid
       type="xygrid"
       id="grid3811"
       empspacing="1"
       visible="true"
       enabled="true"
       snapvisiblegridlinesonly="true" />
  </sodipodi:namedview>
  <metadata
     id="metadata7">
    <rdf:RDF>
      <cc:Work
         rdf:about="">
        <dc:format>image/svg+xml</dc:format>
        <dc:type
           rdf:resource="http://purl.org/dc/dcmitype/StillImage" />
        <dc:title />
      </cc:Work>
    </rdf:RDF>
  </metadata>
  <g
     inkscape:label="Calque 1"
     inkscape:groupmode="layer"
     id="layer1"
     transform="translate(0,-988.36218)">
    <path
       style="fill:#f0f0f0;fill-opacity:1;stroke:#dbd7d5;stroke-width:0.98461538999999998;stroke-opacity:1"
       d="m 0.49230769,988.85449 43.50769231,0 19.507692,19.50771 0,43.5077 -63.01538431,0 z"
       id="rect3813"
       inkscape:connector-curvature="0"
       sodipodi:nodetypes="cccccc" />
    <path
       style="fill:#53504d;fill-opacity:1;stroke:#ffffff;stroke-width:0.95399999999999996;stroke-miterlimit:4;stroke-opacity:1"
       d="m 1.476923,989.83911 42.523077,0 18.523077,18.52309 0,42.5231 -61.046154,0 z"
       id="rect3813-9"
       inkscape:connector-curvature="0"
       sodipodi:nodetypes="cccccc" />
    <g
       id="g3991">
      <path
         inkscape:connector-curvature="0"
         id="path3106"
         d="m 44,988.36218 0,20.00002 20,0 z"
         style="fill:#cccccc;fill-opacity:1;stroke:none" />
      <path
         id="path3106-4"
         transform="translate(0,988.36218)"
         d="M 44 0 L 44 20 L 64 20 L 44 0 z M 45 2.40625 L 61.59375 19 L 45 19 L 45 2.40625 z "
         style="font-size:medium;font-style:normal;font-variant:normal;font-weight:normal;font-stretch:normal;text-indent:0;text-align:start;text-decoration:none;line-height:normal;letter-spacing:normal;word-spacing:normal;text-transform:none;direction:ltr;block-progression:tb;writing-mode:lr-tb;text-anchor:start;baseline-shift:baseline;color:#000000;fill:#f0f0f0;fill-opacity:1;fill-rule:nonzero;stroke:none;stroke-width:2;marker:none;visibility:visible;display:inline;overflow:visible;enable-background:accumulate;font-family:Sans;-inkscape-font-specification:Sans" />
    </g>
    <g
       id="g3835"
       transform="matrix(1.1309403,0,0,1.1309403,-4.2617604,-132.25413)">
      <path
         id="path24-3"
         d="m 32.137399,1003.9568 c -2.534531,-0.3251 -5.32573,0.1703 -7.486075,1.7512 -1.081029,0.791 -1.959172,1.8036 -2.458114,3.0158 -0.501797,1.2192 -0.607963,2.5843 -0.223462,3.8915 0.291777,0.9919 0.884371,1.8973 1.564254,2.6267 0.676233,0.7254 1.418222,1.2955 2.234649,1.7511 1.626543,0.9078 3.360054,1.3634 4.804495,1.7512 1.439751,0.3864 2.624497,0.6757 3.57544,1.1674 0.915748,0.4734 1.66221,1.1185 1.899452,1.7511 0.161571,0.4309 0.168044,1.0644 0,1.5566 -0.170725,0.5001 -0.543648,0.9846 -1.005594,1.362 -0.928053,0.7583 -2.429813,1.0652 -3.910637,0.9729 -2.114761,-0.1318 -4.198512,-1.1213 -5.47489,-2.724 a 2.4946632,2.172112 0 0 0 -4.134101,2.4321 c 2.13418,2.6799 5.575362,4.3419 9.273793,4.5724 2.635112,0.1643 5.461324,-0.3947 7.597807,-2.1402 1.070321,-0.8745 1.907245,-2.0215 2.346381,-3.3078 0.441812,-1.2941 0.502307,-2.6491 0,-3.9887 -0.721405,-1.9238 -2.350641,-3.319 -4.022368,-4.1833 -1.636532,-0.8461 -3.276381,-1.2736 -4.692762,-1.6538 -1.411692,-0.379 -2.665459,-0.6596 -3.57544,-1.1675 -0.451834,-0.2521 -0.832323,-0.5698 -1.117324,-0.8755 -0.281352,-0.3019 -0.466731,-0.6604 -0.558662,-0.9729 -0.118614,-0.4032 -0.0691,-0.9226 0.111733,-1.362 0.183688,-0.4463 0.567102,-0.8466 1.005592,-1.1674 0.878692,-0.643 2.242794,-0.9492 3.575439,-0.7783 1.572159,0.2016 3.114834,0.9814 4.1341,2.1403 a 2.4695156,2.1502159 0 1 0 3.910636,-2.6267 c -1.801872,-2.0487 -4.465675,-3.4211 -7.374342,-3.7942 z"
         style="line-height:normal;color:#000000;fill:#ffa53d;fill-opacity:1;stroke:#2b2a28;stroke-width:2;stroke-miterlimit:4;stroke-opacity:1;stroke-dasharray:none"
         inkscape:connector-curvature="0" />
      <path
         id="path24"
         d="m 32.037398,1004.4568 c -2.53453,-0.3251 -5.325729,0.1703 -7.486074,1.7512 -1.081029,0.791 -1.959172,1.8036 -2.458114,3.0158 -0.501797,1.2192 -0.607963,2.5843 -0.223462,3.8915 0.291777,0.9919 0.884371,1.8973 1.564254,2.6267 0.676233,0.7254 1.418222,1.2955 2.234649,1.7511 1.626543,0.9078 3.360054,1.3634 4.804495,1.7512 1.43975,0.3864 2.624496,0.6757 3.575439,1.1674 0.915748,0.4734 1.66221,1.1185 1.899452,1.7511 0.161571,0.4309 0.168044,1.0644 0,1.5566 -0.170725,0.5001 -0.543648,0.9846 -1.005594,1.362 -0.928053,0.7583 -2.429813,1.0652 -3.910637,0.9729 -2.11476,-0.1318 -4.198511,-1.1213 -5.474889,-2.724 a 2.4946632,2.172112 0 0 0 -4.134101,2.4321 c 2.13418,2.6799 5.575362,4.3419 9.273793,4.5724 2.635111,0.1643 5.461323,-0.3947 7.597806,-2.1402 1.070321,-0.8745 1.907245,-2.0215 2.346381,-3.3078 0.441812,-1.2941 0.502307,-2.6491 0,-3.9887 -0.721405,-1.9238 -2.350641,-3.319 -4.022368,-4.1833 -1.636532,-0.8461 -3.276381,-1.2736 -4.692762,-1.6538 -1.411691,-0.379 -2.665458,-0.6596 -3.575439,-1.1675 -0.451834,-0.2521 -0.832323,-0.5698 -1.117324,-0.8755 -0.281352,-0.3019 -0.466731,-0.6604 -0.558662,-0.9729 -0.118614,-0.4032 -0.0691,-0.9226 0.111733,-1.362 0.183688,-0.4463 0.567102,-0.8466 1.005592,-1.1674 0.878692,-0.643 2.242794,-0.9492 3.575438,-0.7783 1.572159,0.2016 3.114834,0.9814 4.1341,2.1403 a 2.4695156,2.1502159 0 1 0 3.910636,-2.6267 c -1.801872,-2.0487 -4.465675,-3.4211 -7.374342,-3.7942 z"
         style="line-height:normal;color:#000000;fill:#ffa53d;fill-opacity:1"
         inkscape:connector-curvature="0" />
    </g>
    <path
       style="fill:#2b2a28;fill-opacity:1;stroke:none"
       d="m 2,1038.3622 60,10e-5 0,9.9999 -60,0 z"
       id="rect3813-9-6"
       inkscape:connector-curvature="0"
       sodipodi:nodetypes="ccccc" />
    <path
       style="fill:#ececec;fill-opacity:1;stroke:none"
       d="m 8,990.36221 -6e-5,59.99999 -5.99994,0 0,-59.99999 z"
       id="rect3813-9-6-7"
       inkscape:connector-curvature="0"
       sodipodi:nodetypes="ccccc" />
    <path
       style="fill:#ececec;fill-opacity:1;stroke:none"
       d="m 2,1044.3622 59.999993,10e-5 0,5.9999 -59.999993,0 z"
       id="rect3813-9-6-7-7"
       inkscape:connector-curvature="0"
       sodipodi:nodetypes="ccccc" />
    <path
       style="fill:#ececec;fill-opacity:1;stroke:none"
       d="m 2,990.36218 42,1e-4 0,5.9999 -42,0 z"
       id="rect3813-9-6-7-7-8"
       inkscape:connector-curvature="0"
       sodipodi:nodetypes="ccccc" />
    <path
       style="fill:#ececec;fill-opacity:1;stroke:none"
       d="m 62,1008.3622 -6e-5,42 -5.99994,0 0,-42 z"
       id="rect3813-9-6-7-5"
       inkscape:connector-curvature="0"
       sodipodi:nodetypes="ccccc" />
    <path
       style="fill:#000000;stroke:none;fill-opacity:0.25098041"
       d="m 64,1008.3622 0,16 -16,-16 z"
       id="path3001"
       inkscape:connector-curvature="0"
       sodipodi:nodetypes="cccc" />
  </g>
</svg>
