<?xml version="1.0" encoding="UTF-8" standalone="no"?>
<!-- Created with Inkscape (http://www.inkscape.org/) -->

<svg
   xmlns:dc="http://purl.org/dc/elements/1.1/"
   xmlns:cc="http://creativecommons.org/ns#"
   xmlns:rdf="http://www.w3.org/1999/02/22-rdf-syntax-ns#"
   xmlns:svg="http://www.w3.org/2000/svg"
   xmlns="http://www.w3.org/2000/svg"
   xmlns:sodipodi="http://sodipodi.sourceforge.net/DTD/sodipodi-0.dtd"
   xmlns:inkscape="http://www.inkscape.org/namespaces/inkscape"
   width="64"
   height="64"
   id="svg2"
   version="1.1"
   inkscape:version="0.48.4 r9939"
   sodipodi:docname="zdclient.svg">
  <defs
     id="defs4">
    <inkscape:perspective
       sodipodi:type="inkscape:persp3d"
       inkscape:vp_x="-7.7001276 : 37.974237 : 1"
       inkscape:vp_y="0 : 1000 : 0"
       inkscape:vp_z="30.411512 : 39.036324 : 1"
       inkscape:persp3d-origin="32 : 21.333333 : 1"
       id="perspective3852" />
  </defs>
  <sodipodi:namedview
     id="base"
     pagecolor="#ffffff"
     bordercolor="#666666"
     borderopacity="1.0"
     inkscape:pageopacity="0.0"
     inkscape:pageshadow="2"
     inkscape:zoom="7.5323427"
     inkscape:cx="11.490565"
     inkscape:cy="29.672977"
     inkscape:document-units="px"
     inkscape:current-layer="layer1"
     showgrid="true"
     inkscape:window-width="1366"
     inkscape:window-height="744"
     inkscape:window-x="0"
     inkscape:window-y="24"
     inkscape:window-maximized="1">
    <inkscape:grid
       type="xygrid"
       id="grid3811"
       empspacing="1"
       visible="true"
       enabled="true"
       snapvisiblegridlinesonly="true" />
  </sodipodi:namedview>
  <metadata
     id="metadata7">
    <rdf:RDF>
      <cc:Work
         rdf:about="">
        <dc:format>image/svg+xml</dc:format>
        <dc:type
           rdf:resource="http://purl.org/dc/dcmitype/StillImage" />
        <dc:title />
      </cc:Work>
    </rdf:RDF>
  </metadata>
  <g
     inkscape:label="Calque 1"
     inkscape:groupmode="layer"
     id="layer1"
     transform="translate(0,-988.36218)">
    <path
       style="fill:#f2f2f2;fill-opacity:1;stroke:#666666;stroke-width:0.98461538999999998;stroke-opacity:1"
       d="m 0.49230769,988.85449 43.50769231,0 19.507692,19.50771 0,43.5077 -63.01538431,0 z"
       id="rect3813"
       inkscape:connector-curvature="0"
       sodipodi:nodetypes="cccccc" />
    <path
       style="fill:#4d4d4d;fill-opacity:1;stroke:#d4d4d4;stroke-width:0.95399999999999996;stroke-miterlimit:4;stroke-opacity:1"
       d="m 1.476923,989.83911 42.523077,0 18.523077,18.52309 0,42.5231 -61.046154,0 z"
       id="rect3813-9"
       inkscape:connector-curvature="0"
       sodipodi:nodetypes="cccccc" />
    <path
       style="font-size:medium;font-style:normal;font-variant:normal;font-weight:normal;font-stretch:normal;text-indent:0;text-align:start;text-decoration:none;line-height:normal;letter-spacing:normal;word-spacing:normal;text-transform:none;direction:ltr;block-progression:tb;writing-mode:lr-tb;text-anchor:start;baseline-shift:baseline;color:#000000;fill:#cdcdcd;fill-opacity:1;fill-rule:nonzero;stroke:none;stroke-width:4;marker:none;visibility:visible;display:inline;overflow:visible;enable-background:accumulate;font-family:Sans;-inkscape-font-specification:Sans"
       d="M 9.1875 15.6875 L 9.1875 49.46875 L 34.0625 49.46875 L 34.0625 45.75 L 15.1875 45.75 L 24.1875 33.59375 L 34.0625 43.53125 L 34.0625 37.84375 L 15.96875 19.6875 L 34.0625 19.6875 L 34.0625 15.6875 L 9.1875 15.6875 z M 13.1875 22.53125 L 21.3125 30.71875 L 13.1875 41.71875 L 13.1875 22.53125 z "
       transform="translate(0,988.36218)"
       id="rect3931-7" />
    <path
       style="fill:#d3b178;fill-opacity:1;stroke:#a2773a;stroke-width:1;stroke-miterlimit:4;stroke-opacity:1;stroke-dasharray:none"
       d="m -71.854406,1009.6046 43.339999,0 19.3402415,19.3333 0,19.207 -62.6804825,0 z"
       id="rect3174-5"
       inkscape:connector-curvature="0"
       sodipodi:nodetypes="cccccc" />
    <path
       style="fill:none;stroke:#e9d8c1;stroke-width:1;stroke-miterlimit:4;stroke-opacity:1;stroke-dasharray:none"
       d="m -70.854554,1011.2571 42.020999,0 18.021093,18 0,17.8878 -60.042186,0 z"
       id="rect3174-5-5"
       inkscape:connector-curvature="0"
       sodipodi:nodetypes="cccccc" />
    <g
       id="g3042"
       transform="matrix(0.88592788,0,0,0.88592788,33.368994,979.96497)">
      <path
         id="path4"
         d="m 78,31 c -1.028571,0 -2,0.971429 -2,2 l 0,42 c 0,0.971429 1.028571,2 2,2 l 32,0 c 0.97143,0 2,-1.028571 2,-2 L 112,44 99,31 z"
         style="fill:#dcdcdc"
         inkscape:connector-curvature="0" />
      <path
         id="path6"
         d="M 99,42 99.0625,42.0625 99.21875,42 99,42 z m 2,2 11,11 0,-11 -11,0 z"
         style="fill-opacity:0.19599998"
         inkscape:connector-curvature="0" />
      <path
         id="path8"
         d="m 99,31 13,13 -11,0 c -0.97143,0 -2,-1.028571 -2,-2 l 0,-11 z"
         style="fill:#ffffff;fill-opacity:0.39199997"
         inkscape:connector-curvature="0" />
      <g
         id="g10"
         style="fill:#888888"
         transform="translate(70,30)">
        <path
           id="path12"
           d="m 14,19 0,1 20,0 0,-1 z"
           inkscape:connector-curvature="0" />
        <path
           id="path14"
           d="m 14,21 0,1 20,0 0,-1 z"
           inkscape:connector-curvature="0" />
        <path
           id="path16"
           d="m 14,23 0,1 20,0 0,-1 z"
           inkscape:connector-curvature="0" />
        <path
           id="path18"
           d="m 14,25 0,1 20,0 0,-1 z"
           inkscape:connector-curvature="0" />
        <path
           id="path20"
           d="m 14,27 0,1 20,0 0,-1 z"
           inkscape:connector-curvature="0" />
        <path
           id="path22"
           d="m 14,29 0,1 20,0 0,-1 z"
           inkscape:connector-curvature="0" />
        <path
           id="path24"
           d="m 14,31 0,1 20,0 0,-1 z"
           inkscape:connector-curvature="0" />
        <path
           id="path26"
           d="m 14,33 0,1 20,0 0,-1 z"
           inkscape:connector-curvature="0" />
        <path
           id="path28"
           d="m 14,35 0,1 20,0 0,-1 z"
           inkscape:connector-curvature="0" />
      </g>
    </g>
    <g
       id="g3852"
       transform="translate(95.189509,-2.5224556)">
      <path
         sodipodi:nodetypes="ccccccccccc"
         inkscape:connector-curvature="0"
         id="rect3931-7-1-6"
         d="m -69.24127,1006.5398 0,3.8125 25.96875,0.1875 -25.96875,26.0625 0,3.7187 28.750299,0 0,-3.7187 -23.062799,0 23.0625,-23.2188 0,-6.8437 z"
         style="font-size:medium;font-style:normal;font-variant:normal;font-weight:normal;font-stretch:normal;text-indent:0;text-align:start;text-decoration:none;line-height:normal;letter-spacing:normal;word-spacing:normal;text-transform:none;direction:ltr;block-progression:tb;writing-mode:lr-tb;text-anchor:start;baseline-shift:baseline;color:#000000;fill:#cdcdcd;fill-opacity:1;fill-rule:nonzero;stroke:#4d4d4d;stroke-width:4;stroke-opacity:1;marker:none;visibility:visible;display:inline;overflow:visible;enable-background:accumulate;font-family:Sans;-inkscape-font-specification:Sans" />
      <path
         sodipodi:nodetypes="ccccccccccc"
         inkscape:connector-curvature="0"
         id="rect3931-7-1"
         d="m -69.24127,1006.5398 0,3.8125 25.96875,0.1875 -25.96875,26.0625 0,3.7187 28.750299,0 0,-3.7187 -23.062799,0 23.0625,-23.2188 0,-6.8437 z"
         style="font-size:medium;font-style:normal;font-variant:normal;font-weight:normal;font-stretch:normal;text-indent:0;text-align:start;text-decoration:none;line-height:normal;letter-spacing:normal;word-spacing:normal;text-transform:none;direction:ltr;block-progression:tb;writing-mode:lr-tb;text-anchor:start;baseline-shift:baseline;color:#000000;fill:#f0f0f0;fill-opacity:1;fill-rule:nonzero;stroke:none;stroke-width:4;marker:none;visibility:visible;display:inline;overflow:visible;enable-background:accumulate;font-family:Sans;-inkscape-font-specification:Sans" />
    </g>
    <g
       id="g3991">
      <path
         inkscape:connector-curvature="0"
         id="path3106"
         d="m 44,988.36218 0,20.00002 20,0 z"
         style="fill:#b3b3b3;fill-opacity:1;stroke:none" />
      <path
         id="path3106-4"
         transform="translate(0,988.36218)"
         d="M 44 0 L 44 20 L 64 20 L 44 0 z M 45 2.40625 L 61.59375 19 L 45 19 L 45 2.40625 z "
         style="font-size:medium;font-style:normal;font-variant:normal;font-weight:normal;font-stretch:normal;text-indent:0;text-align:start;text-decoration:none;line-height:normal;letter-spacing:normal;word-spacing:normal;text-transform:none;direction:ltr;block-progression:tb;writing-mode:lr-tb;text-anchor:start;baseline-shift:baseline;color:#000000;fill:#4d4d4d;fill-opacity:1;fill-rule:nonzero;stroke:none;stroke-width:2;marker:none;visibility:visible;display:inline;overflow:visible;enable-background:accumulate;font-family:Sans;-inkscape-font-specification:Sans" />
    </g>
    <rect
       style="fill:#4d4d4d;fill-opacity:1;stroke:#cdcdcd;stroke-width:3.69844866;stroke-linecap:round;stroke-linejoin:miter;stroke-miterlimit:4;stroke-opacity:1;stroke-dasharray:none;stroke-dashoffset:0"
       id="rect3931-8"
       width="40.301552"
       height="30.063457"
       x="70.593422"
       y="990.85352" />
    <path
       id="path3050"
       style="fill:#4d4d4d;fill-opacity:1;stroke:#cdcdcd;stroke-width:4;stroke-linecap:round;stroke-linejoin:miter;stroke-miterlimit:4;stroke-opacity:1;stroke-dasharray:none;stroke-dashoffset:0"
       d="m 101.24892,1026.0513 0,30.3015 -30.0635,-30.3015 z"
       inkscape:connector-curvature="0"
       sodipodi:nodetypes="cccc" />
    <path
       style="font-size:medium;font-style:normal;font-variant:normal;font-weight:normal;font-stretch:normal;text-indent:0;text-align:start;text-decoration:none;line-height:normal;letter-spacing:normal;word-spacing:normal;text-transform:none;direction:ltr;block-progression:tb;writing-mode:lr-tb;text-anchor:start;baseline-shift:baseline;color:#000000;fill:#cdcdcd;fill-opacity:1;fill-rule:nonzero;stroke:none;stroke-width:4;marker:none;visibility:visible;display:inline;overflow:visible;enable-background:accumulate;font-family:Sans;-inkscape-font-specification:Sans"
       d="m 79.277322,1053.8071 43.999998,0 0,-33.7812 -43.999998,0 z m 34.062498,-30.0625 6.25,0 0,26.3438 -7.55,0 -25.981248,-26.0625 23.281248,0 z m -30.062498,3.125 8.125,8.1875 -8.125,11 z m 11,11.0625 12.062498,12.1563 -21.062498,0 z"
       id="rect3931-7-7"
       inkscape:connector-curvature="0"
       sodipodi:nodetypes="cccccccccccccccccccc" />
  </g>
</svg>
