<?xml version="1.0" encoding="UTF-8" standalone="no"?>
<svg
   xmlns:dc="http://purl.org/dc/elements/1.1/"
   xmlns:cc="http://creativecommons.org/ns#"
   xmlns:rdf="http://www.w3.org/1999/02/22-rdf-syntax-ns#"
   xmlns:svg="http://www.w3.org/2000/svg"
   xmlns="http://www.w3.org/2000/svg"
   xmlns:xlink="http://www.w3.org/1999/xlink"
   xmlns:sodipodi="http://sodipodi.sourceforge.net/DTD/sodipodi-0.dtd"
   xmlns:inkscape="http://www.inkscape.org/namespaces/inkscape"
   width="48"
   viewBox="0 0 48 48"
   height="48"
   id="svg2"
   version="1.1"
   inkscape:version="0.48.4 r9939"
   sodipodi:docname="folder-templates.svg">
  <metadata
     id="metadata14">
    <rdf:RDF>
      <cc:Work
         rdf:about="">
        <dc:format>image/svg+xml</dc:format>
        <dc:type
           rdf:resource="http://purl.org/dc/dcmitype/StillImage" />
        <dc:title></dc:title>
      </cc:Work>
    </rdf:RDF>
  </metadata>
  <defs
     id="defs12">
    <linearGradient
       inkscape:collect="always"
       xlink:href="#linearGradient3699"
       id="linearGradient3258"
       gradientUnits="userSpaceOnUse"
       gradientTransform="translate(-2,-6)"
       x1="49"
       y1="72"
       x2="49"
       y2="38.758461" />
    <linearGradient
       id="linearGradient3699">
      <stop
         id="stop3701"
         style="stop-color:#aa7932;stop-opacity:0.78431374"
         offset="0" />
      <stop
         id="stop3703"
         style="stop-color:#aa7932;stop-opacity:0.39215687"
         offset="1" />
    </linearGradient>
    <linearGradient
       inkscape:collect="always"
       xlink:href="#linearGradient3699"
       id="linearGradient3260"
       gradientUnits="userSpaceOnUse"
       gradientTransform="translate(-2,-6)"
       x1="49"
       y1="72"
       x2="49"
       y2="38.758461" />
    <linearGradient
       id="linearGradient3933">
      <stop
         id="stop3935"
         style="stop-color:#aa7932;stop-opacity:0.78431374"
         offset="0" />
      <stop
         id="stop3937"
         style="stop-color:#aa7932;stop-opacity:0.39215687"
         offset="1" />
    </linearGradient>
    <linearGradient
       inkscape:collect="always"
       xlink:href="#linearGradient3699"
       id="linearGradient3262"
       gradientUnits="userSpaceOnUse"
       gradientTransform="translate(-2,-6)"
       x1="49"
       y1="72"
       x2="49"
       y2="38.758461" />
    <linearGradient
       id="linearGradient3940">
      <stop
         id="stop3942"
         style="stop-color:#aa7932;stop-opacity:0.78431374"
         offset="0" />
      <stop
         id="stop3944"
         style="stop-color:#aa7932;stop-opacity:0.39215687"
         offset="1" />
    </linearGradient>
    <linearGradient
       inkscape:collect="always"
       xlink:href="#linearGradient3699"
       id="linearGradient3264"
       gradientUnits="userSpaceOnUse"
       gradientTransform="translate(-2,-6)"
       x1="49"
       y1="72"
       x2="49"
       y2="38.758461" />
    <linearGradient
       id="linearGradient3947">
      <stop
         id="stop3949"
         style="stop-color:#aa7932;stop-opacity:0.78431374"
         offset="0" />
      <stop
         id="stop3951"
         style="stop-color:#aa7932;stop-opacity:0.39215687"
         offset="1" />
    </linearGradient>
    <linearGradient
       inkscape:collect="always"
       xlink:href="#linearGradient3699"
       id="linearGradient3066"
       gradientUnits="userSpaceOnUse"
       gradientTransform="translate(-2,-6)"
       x1="49"
       y1="72"
       x2="49"
       y2="38.758461" />
    <linearGradient
       inkscape:collect="always"
       xlink:href="#linearGradient3699"
       id="linearGradient3068"
       gradientUnits="userSpaceOnUse"
       gradientTransform="translate(-2,-6)"
       x1="49"
       y1="72"
       x2="49"
       y2="38.758461" />
    <linearGradient
       inkscape:collect="always"
       xlink:href="#linearGradient3699"
       id="linearGradient3070"
       gradientUnits="userSpaceOnUse"
       gradientTransform="translate(-2,-6)"
       x1="49"
       y1="72"
       x2="49"
       y2="38.758461" />
    <linearGradient
       inkscape:collect="always"
       xlink:href="#linearGradient3699"
       id="linearGradient3072"
       gradientUnits="userSpaceOnUse"
       gradientTransform="translate(-2,-6)"
       x1="49"
       y1="72"
       x2="49"
       y2="38.758461" />
  </defs>
  <sodipodi:namedview
     pagecolor="#ffffff"
     bordercolor="#666666"
     borderopacity="1"
     objecttolerance="10"
     gridtolerance="10"
     guidetolerance="10"
     inkscape:pageopacity="0"
     inkscape:pageshadow="2"
     inkscape:window-width="1056"
     inkscape:window-height="720"
     id="namedview10"
     showgrid="false"
     inkscape:zoom="6.8606483"
     inkscape:cx="37.160931"
     inkscape:cy="16.906648"
     inkscape:window-x="308"
     inkscape:window-y="24"
     inkscape:window-maximized="0"
     inkscape:current-layer="svg2" />
  <path
     style="fill:#5bbfc5;fill-opacity:1;stroke:#2f7e83;stroke-width:0.94823944999999998;stroke-miterlimit:4;stroke-opacity:1;stroke-dasharray:none"
     d="m 2.4741197,4.3739665 43.0517603,0 0,37.0519135 -43.0517603,0 z"
     id="rect3174-5-2"
     inkscape:connector-curvature="0"
     sodipodi:nodetypes="ccccc" />
  <path
     style="fill:#78ced3;fill-opacity:1;stroke:#3a9ca2;stroke-width:0.98963827000000004;stroke-miterlimit:4;stroke-opacity:1;stroke-dasharray:none"
     d="m 0.49481913,8.9657962 11.75259087,0 0,3.9584078 35.257771,0 0,28.480977 -47.01036187,0 z"
     id="rect3174-5"
     inkscape:connector-curvature="0"
     sodipodi:nodetypes="ccccccc" />
  <path
     style="fill:none;stroke:#c1e7e9;stroke-width:0.96836007000000002;stroke-miterlimit:4;stroke-opacity:1;stroke-dasharray:none"
     d="m 1.48418,9.9364999 9.73182,0 0,3.9870001 35.29982,0 0,26.49232 -45.03164,0 z"
     id="rect3174-5-5"
     inkscape:connector-curvature="0"
     sodipodi:nodetypes="ccccccc" />
  <g
     id="g3809"
     transform="matrix(0.91666667,0,0,1,2,0)">
    <rect
       y="32"
       x="0"
       height="4"
       width="48"
       id="rect3015"
       style="fill:#3a9ca2;fill-opacity:1;stroke:none" />
    <g
       transform="translate(22.105135,-23.495529)"
       id="g3805">
      <rect
         style="fill:#338b91;fill-opacity:1;stroke:none"
         id="rect3785-0"
         width="48"
         height="2"
         x="-22.105135"
         y="55.495529" />
      <rect
         style="fill:#256569;fill-opacity:1;stroke:none"
         id="rect3785"
         width="48"
         height="1"
         x="-22.105135"
         y="55.495529" />
    </g>
  </g>
  <g
     id="g3807"
     transform="translate(-43.973166,-7.7252175)">
    <path
       id="path14-1-4"
       d="m 81.12494,24.648727 c -3.483206,0 -6.323774,2.841273 -6.323774,6.323774 0,3.482425 2.840568,6.323775 6.323774,6.323775 3.483205,0 6.323774,-2.84135 6.323774,-6.323775 0,-3.482501 -2.840569,-6.323774 -6.323774,-6.323774 z m 0,1.580944 c 2.628711,0 4.74283,2.11467 4.74283,4.74283 0,2.628162 -2.114119,4.742831 -4.74283,4.742831 -2.628712,0 -4.74283,-2.114668 -4.74283,-4.742831 0,-2.62816 2.114118,-4.74283 4.74283,-4.74283 z m -1.580944,1.580944 0,6.323775 4.74283,-3.161889 z"
       style="line-height:normal;color:#000000;fill:#256569;fill-opacity:1;stroke:#c1e7e9;stroke-width:2;stroke-miterlimit:4;stroke-opacity:1;stroke-dasharray:none"
       inkscape:connector-curvature="0" />
    <path
       id="path14-1"
       d="m 81.12494,24.648727 c -3.483206,0 -6.323774,2.841273 -6.323774,6.323774 0,3.482425 2.840568,6.323775 6.323774,6.323775 3.483205,0 6.323774,-2.84135 6.323774,-6.323775 0,-3.482501 -2.840569,-6.323774 -6.323774,-6.323774 z m 0,1.580944 c 2.628711,0 4.74283,2.11467 4.74283,4.74283 0,2.628162 -2.114119,4.742831 -4.74283,4.742831 -2.628712,0 -4.74283,-2.114668 -4.74283,-4.742831 0,-2.62816 2.114118,-4.74283 4.74283,-4.74283 z m -1.580944,1.580944 0,6.323775 4.74283,-3.161889 z"
       style="line-height:normal;color:#000000;fill:#256569;fill-opacity:1"
       inkscape:connector-curvature="0" />
  </g>
</svg>
