<?xml version="1.0" encoding="UTF-8" standalone="no"?>
<svg
   xmlns:dc="http://purl.org/dc/elements/1.1/"
   xmlns:cc="http://creativecommons.org/ns#"
   xmlns:rdf="http://www.w3.org/1999/02/22-rdf-syntax-ns#"
   xmlns:svg="http://www.w3.org/2000/svg"
   xmlns="http://www.w3.org/2000/svg"
   xmlns:xlink="http://www.w3.org/1999/xlink"
   xmlns:sodipodi="http://sodipodi.sourceforge.net/DTD/sodipodi-0.dtd"
   xmlns:inkscape="http://www.inkscape.org/namespaces/inkscape"
   width="48"
   viewBox="0 0 48 48"
   height="48"
   id="svg2"
   version="1.1"
   inkscape:version="0.48.4 r9939"
   sodipodi:docname="folder-pictures.svg">
  <metadata
     id="metadata14">
    <rdf:RDF>
      <cc:Work
         rdf:about="">
        <dc:format>image/svg+xml</dc:format>
        <dc:type
           rdf:resource="http://purl.org/dc/dcmitype/StillImage" />
        <dc:title></dc:title>
      </cc:Work>
    </rdf:RDF>
  </metadata>
  <defs
     id="defs12">
    <linearGradient
       inkscape:collect="always"
       xlink:href="#linearGradient3699"
       id="linearGradient3258"
       gradientUnits="userSpaceOnUse"
       gradientTransform="translate(-2,-6)"
       x1="49"
       y1="72"
       x2="49"
       y2="38.758461" />
    <linearGradient
       id="linearGradient3699">
      <stop
         id="stop3701"
         style="stop-color:#aa7932;stop-opacity:0.78431374"
         offset="0" />
      <stop
         id="stop3703"
         style="stop-color:#aa7932;stop-opacity:0.39215687"
         offset="1" />
    </linearGradient>
    <linearGradient
       inkscape:collect="always"
       xlink:href="#linearGradient3699"
       id="linearGradient3260"
       gradientUnits="userSpaceOnUse"
       gradientTransform="translate(-2,-6)"
       x1="49"
       y1="72"
       x2="49"
       y2="38.758461" />
    <linearGradient
       id="linearGradient3933">
      <stop
         id="stop3935"
         style="stop-color:#aa7932;stop-opacity:0.78431374"
         offset="0" />
      <stop
         id="stop3937"
         style="stop-color:#aa7932;stop-opacity:0.39215687"
         offset="1" />
    </linearGradient>
    <linearGradient
       inkscape:collect="always"
       xlink:href="#linearGradient3699"
       id="linearGradient3262"
       gradientUnits="userSpaceOnUse"
       gradientTransform="translate(-2,-6)"
       x1="49"
       y1="72"
       x2="49"
       y2="38.758461" />
    <linearGradient
       id="linearGradient3940">
      <stop
         id="stop3942"
         style="stop-color:#aa7932;stop-opacity:0.78431374"
         offset="0" />
      <stop
         id="stop3944"
         style="stop-color:#aa7932;stop-opacity:0.39215687"
         offset="1" />
    </linearGradient>
    <linearGradient
       inkscape:collect="always"
       xlink:href="#linearGradient3699"
       id="linearGradient3264"
       gradientUnits="userSpaceOnUse"
       gradientTransform="translate(-2,-6)"
       x1="49"
       y1="72"
       x2="49"
       y2="38.758461" />
    <linearGradient
       id="linearGradient3947">
      <stop
         id="stop3949"
         style="stop-color:#aa7932;stop-opacity:0.78431374"
         offset="0" />
      <stop
         id="stop3951"
         style="stop-color:#aa7932;stop-opacity:0.39215687"
         offset="1" />
    </linearGradient>
    <linearGradient
       inkscape:collect="always"
       xlink:href="#linearGradient3699"
       id="linearGradient3066"
       gradientUnits="userSpaceOnUse"
       gradientTransform="translate(-2,-6)"
       x1="49"
       y1="72"
       x2="49"
       y2="38.758461" />
    <linearGradient
       inkscape:collect="always"
       xlink:href="#linearGradient3699"
       id="linearGradient3068"
       gradientUnits="userSpaceOnUse"
       gradientTransform="translate(-2,-6)"
       x1="49"
       y1="72"
       x2="49"
       y2="38.758461" />
    <linearGradient
       inkscape:collect="always"
       xlink:href="#linearGradient3699"
       id="linearGradient3070"
       gradientUnits="userSpaceOnUse"
       gradientTransform="translate(-2,-6)"
       x1="49"
       y1="72"
       x2="49"
       y2="38.758461" />
    <linearGradient
       inkscape:collect="always"
       xlink:href="#linearGradient3699"
       id="linearGradient3072"
       gradientUnits="userSpaceOnUse"
       gradientTransform="translate(-2,-6)"
       x1="49"
       y1="72"
       x2="49"
       y2="38.758461" />
  </defs>
  <sodipodi:namedview
     pagecolor="#ffffff"
     bordercolor="#666666"
     borderopacity="1"
     objecttolerance="10"
     gridtolerance="10"
     guidetolerance="10"
     inkscape:pageopacity="0"
     inkscape:pageshadow="2"
     inkscape:window-width="1056"
     inkscape:window-height="720"
     id="namedview10"
     showgrid="false"
     inkscape:zoom="6.8606483"
     inkscape:cx="12.407317"
     inkscape:cy="17.489683"
     inkscape:window-x="308"
     inkscape:window-y="24"
     inkscape:window-maximized="0"
     inkscape:current-layer="svg2" />
  <path
     style="fill:#5bbfc5;fill-opacity:1;stroke:#2f7e83;stroke-width:0.94823944999999998;stroke-miterlimit:4;stroke-opacity:1;stroke-dasharray:none"
     d="m 2.4741197,4.3739665 43.0517603,0 0,37.0519135 -43.0517603,0 z"
     id="rect3174-5-2"
     inkscape:connector-curvature="0"
     sodipodi:nodetypes="ccccc" />
  <path
     style="fill:#78ced3;fill-opacity:1;stroke:#3a9ca2;stroke-width:0.98963827000000004;stroke-miterlimit:4;stroke-opacity:1;stroke-dasharray:none"
     d="m 0.49481913,8.9657962 11.75259087,0 0,3.9584078 35.257771,0 0,28.480977 -47.01036187,0 z"
     id="rect3174-5"
     inkscape:connector-curvature="0"
     sodipodi:nodetypes="ccccccc" />
  <path
     style="fill:none;stroke:#c1e7e9;stroke-width:0.96836007000000002;stroke-miterlimit:4;stroke-opacity:1;stroke-dasharray:none"
     d="m 1.48418,9.9364999 9.73182,0 0,3.9870001 35.29982,0 0,26.49232 -45.03164,0 z"
     id="rect3174-5-5"
     inkscape:connector-curvature="0"
     sodipodi:nodetypes="ccccccc" />
  <g
     id="g3809"
     transform="matrix(0.91666667,0,0,1,2,0)">
    <rect
       y="32"
       x="0"
       height="4"
       width="48"
       id="rect3015"
       style="fill:#3a9ca2;fill-opacity:1;stroke:none" />
    <g
       transform="translate(22.105135,-23.495529)"
       id="g3805">
      <rect
         style="fill:#338b91;fill-opacity:1;stroke:none"
         id="rect3785-0"
         width="48"
         height="2"
         x="-22.105135"
         y="55.495529" />
      <rect
         style="fill:#256569;fill-opacity:1;stroke:none"
         id="rect3785"
         width="48"
         height="1"
         x="-22.105135"
         y="55.495529" />
    </g>
  </g>
  <g
     id="g3822"
     transform="translate(-27.395594,-17.126869)">
    <path
       id="path14-0-3"
       d="m 65.943487,34.441022 c -1.317343,0 -2.404192,0.999027 -2.404192,2.249083 0.0097,0.428928 0.03357,0.972265 0.284367,2.119825 l 0.02585,0 c 0.0506,0.1518 0.128368,0.302773 0.258515,0.465327 0.116486,0.145596 0.270937,0.311459 0.413625,0.465328 0.04384,0.324364 0.05064,0.607903 0,0.956506 -0.391166,0.297065 -1.096551,0.574193 -1.732052,0.827249 -0.331189,0.131863 -0.637367,0.253801 -0.878952,0.413624 -0.230484,0.152544 -0.397482,0.360019 -0.413625,0.620437 -7.77e-4,0.01241 -0.02591,0.01344 -0.02585,0.02585 l -0.284367,2.19738 0,0.02585 c 0,0.27233 0.181451,0.495108 0.439476,0.672139 0.258026,0.177114 0.608247,0.315885 1.034061,0.439476 0.851629,0.247182 2.006859,0.387773 3.283144,0.387773 1.276285,0 2.431515,-0.140591 3.283143,-0.387773 0.425815,-0.123591 0.776037,-0.262362 1.034061,-0.439476 0.258025,-0.177031 0.439476,-0.399809 0.439476,-0.672139 l 0,-0.02585 -0.310218,-2.19738 c -4.7e-5,-0.0083 5.22e-4,-0.01758 0,-0.02585 -0.0077,-0.124417 -0.05258,-0.246644 -0.129258,-0.33607 -0.08186,-0.09555 -0.189879,-0.157549 -0.310218,-0.232664 -0.240678,-0.150229 -0.547651,-0.277128 -0.878952,-0.413624 -0.643452,-0.265051 -1.347562,-0.564846 -1.732052,-0.878952 -0.02885,-0.299878 -0.03023,-0.605092 0,-0.904803 0.138799,-0.164126 0.294921,-0.333506 0.413625,-0.491179 0.13218,-0.175543 0.232229,-0.334829 0.284366,-0.491179 0.282785,-1.194961 0.295335,-1.682542 0.310219,-2.119825 0,-1.250056 -1.086848,-2.249083 -2.404192,-2.249083 z m -4.472314,0.413624 c -1.082018,0 -1.964716,0.835522 -1.964716,1.86131 0.0079,0.35158 0.02687,0.764544 0.232664,1.706201 l 0,0.02585 c 0.04193,0.125824 0.124249,0.226748 0.232663,0.361922 0.09492,0.118213 0.221334,0.263851 0.33607,0.387773 0.03472,0.259921 0.03921,0.522613 0,0.801397 -0.31958,0.245196 -0.898474,0.465244 -1.421834,0.67214 -0.271296,0.107211 -0.499996,0.205612 -0.697991,0.336069 -0.187115,0.12326 -0.320262,0.306496 -0.33607,0.517031 -9.1e-4,0.01241 -0.02591,0.01344 -0.02585,0.02585 l -0.258515,1.783756 0,0.02585 c 0,0.167933 0.08024,0.312824 0.206812,0.439476 0.126566,0.126652 0.302259,0.242673 0.51703,0.33607 0.423599,0.184311 1.027366,0.312411 1.757904,0.387773 l 0.02585,0 c 0.03971,8.3e-5 0.07924,-0.01096 0.103406,-0.02585 0.02992,-0.01903 0.06481,-0.0335 0.07755,-0.0517 0.02549,-0.03557 0.04073,-0.07114 0.0517,-0.103406 0.01926,-0.05625 0.02319,-0.123384 0.02585,-0.180961 3.73e-4,-0.0083 0,-0.01758 0,-0.02585 l 0.284367,-2.19738 c -3.99e-4,-0.08992 0.06186,-0.197877 0.206812,-0.310218 0.144949,-0.112341 0.3644,-0.225137 0.620436,-0.33607 0.512072,-0.221951 1.161228,-0.42806 1.68035,-0.697991 l 0.284376,-0.155112 -0.284366,-0.129258 c -0.205138,-0.0996 -0.362043,-0.208963 -0.491179,-0.310218 -0.02507,-0.255206 -0.0266,-0.521168 0,-0.775546 9.1e-4,-0.0083 -9.1e-4,-0.01758 0,-0.02585 0.197124,-0.265465 0.34712,-0.540897 0.413624,-0.697992 l 0.02585,-0.0517 -0.02585,-0.0517 c -0.02244,-0.128389 -0.01502,-0.225963 -0.0517,-0.336069 -0.247804,-1.133829 -0.274954,-1.601554 -0.284367,-2.016419 0,-0.174303 0.04092,-0.377392 0.103406,-0.568734 l 0.0517,-0.103406 -0.103406,-0.0517 C 62.418531,35.044086 61.96154,34.854646 61.471173,34.854646 z"
       style="line-height:normal;color:#000000;fill:#256569;fill-opacity:1;stroke:#c1e7e9;stroke-width:2;stroke-miterlimit:4;stroke-opacity:1;stroke-dasharray:none"
       inkscape:connector-curvature="0" />
    <path
       id="path14-0"
       d="m 65.943487,34.441022 c -1.317343,0 -2.404192,0.999027 -2.404192,2.249083 0.0097,0.428928 0.03357,0.972265 0.284367,2.119825 l 0.02585,0 c 0.0506,0.1518 0.128368,0.302773 0.258515,0.465327 0.116486,0.145596 0.270937,0.311459 0.413625,0.465328 0.04384,0.324364 0.05064,0.607903 0,0.956506 -0.391166,0.297065 -1.096551,0.574193 -1.732052,0.827249 -0.331189,0.131863 -0.637367,0.253801 -0.878952,0.413624 -0.230484,0.152544 -0.397482,0.360019 -0.413625,0.620437 -7.77e-4,0.01241 -0.02591,0.01344 -0.02585,0.02585 l -0.284367,2.19738 0,0.02585 c 0,0.27233 0.181451,0.495108 0.439476,0.672139 0.258026,0.177114 0.608247,0.315885 1.034061,0.439476 0.851629,0.247182 2.006859,0.387773 3.283144,0.387773 1.276285,0 2.431515,-0.140591 3.283143,-0.387773 0.425815,-0.123591 0.776037,-0.262362 1.034061,-0.439476 0.258025,-0.177031 0.439476,-0.399809 0.439476,-0.672139 l 0,-0.02585 -0.310218,-2.19738 c -4.7e-5,-0.0083 5.22e-4,-0.01758 0,-0.02585 -0.0077,-0.124417 -0.05258,-0.246644 -0.129258,-0.33607 -0.08186,-0.09555 -0.189879,-0.157549 -0.310218,-0.232664 -0.240678,-0.150229 -0.547651,-0.277128 -0.878952,-0.413624 -0.643452,-0.265051 -1.347562,-0.564846 -1.732052,-0.878952 -0.02885,-0.299878 -0.03023,-0.605092 0,-0.904803 0.138799,-0.164126 0.294921,-0.333506 0.413625,-0.491179 0.13218,-0.175543 0.232229,-0.334829 0.284366,-0.491179 0.282785,-1.194961 0.295335,-1.682542 0.310219,-2.119825 0,-1.250056 -1.086848,-2.249083 -2.404192,-2.249083 z m -4.472314,0.413624 c -1.082018,0 -1.964716,0.835522 -1.964716,1.86131 0.0079,0.35158 0.02687,0.764544 0.232664,1.706201 l 0,0.02585 c 0.04193,0.125824 0.124249,0.226748 0.232663,0.361922 0.09492,0.118213 0.221334,0.263851 0.33607,0.387773 0.03472,0.259921 0.03921,0.522613 0,0.801397 -0.31958,0.245196 -0.898474,0.465244 -1.421834,0.67214 -0.271296,0.107211 -0.499996,0.205612 -0.697991,0.336069 -0.187115,0.12326 -0.320262,0.306496 -0.33607,0.517031 -9.1e-4,0.01241 -0.02591,0.01344 -0.02585,0.02585 l -0.258515,1.783756 0,0.02585 c 0,0.167933 0.08024,0.312824 0.206812,0.439476 0.126566,0.126652 0.302259,0.242673 0.51703,0.33607 0.423599,0.184311 1.027366,0.312411 1.757904,0.387773 l 0.02585,0 c 0.03971,8.3e-5 0.07924,-0.01096 0.103406,-0.02585 0.02992,-0.01903 0.06481,-0.0335 0.07755,-0.0517 0.02549,-0.03557 0.04073,-0.07114 0.0517,-0.103406 0.01926,-0.05625 0.02319,-0.123384 0.02585,-0.180961 3.73e-4,-0.0083 0,-0.01758 0,-0.02585 l 0.284367,-2.19738 c -3.99e-4,-0.08992 0.06186,-0.197877 0.206812,-0.310218 0.144949,-0.112341 0.3644,-0.225137 0.620436,-0.33607 0.512072,-0.221951 1.161228,-0.42806 1.68035,-0.697991 l 0.284376,-0.155112 -0.284366,-0.129258 c -0.205138,-0.0996 -0.362043,-0.208963 -0.491179,-0.310218 -0.02507,-0.255206 -0.0266,-0.521168 0,-0.775546 9.1e-4,-0.0083 -9.1e-4,-0.01758 0,-0.02585 0.197124,-0.265465 0.34712,-0.540897 0.413624,-0.697992 l 0.02585,-0.0517 -0.02585,-0.0517 c -0.02244,-0.128389 -0.01502,-0.225963 -0.0517,-0.336069 -0.247804,-1.133829 -0.274954,-1.601554 -0.284367,-2.016419 0,-0.174303 0.04092,-0.377392 0.103406,-0.568734 l 0.0517,-0.103406 -0.103406,-0.0517 C 62.418531,35.044086 61.96154,34.854646 61.471173,34.854646 z"
       style="line-height:normal;color:#000000;fill:#256569;fill-opacity:1"
       inkscape:connector-curvature="0" />
  </g>
</svg>
