<?xml version="1.0" encoding="UTF-8" standalone="no"?>
<svg
   xmlns:dc="http://purl.org/dc/elements/1.1/"
   xmlns:cc="http://creativecommons.org/ns#"
   xmlns:rdf="http://www.w3.org/1999/02/22-rdf-syntax-ns#"
   xmlns:svg="http://www.w3.org/2000/svg"
   xmlns="http://www.w3.org/2000/svg"
   xmlns:sodipodi="http://sodipodi.sourceforge.net/DTD/sodipodi-0.dtd"
   xmlns:inkscape="http://www.inkscape.org/namespaces/inkscape"
   width="256"
   height="256"
   viewBox="0 0 256 256"
   id="svg2"
   version="1.1"
   inkscape:version="0.48.4 r9939"
   sodipodi:docname="application-x-ms-dos-executable.svg">
  <metadata
     id="metadata22">
    <rdf:RDF>
      <cc:Work
         rdf:about="">
        <dc:format>image/svg+xml</dc:format>
        <dc:type
           rdf:resource="http://purl.org/dc/dcmitype/StillImage" />
      </cc:Work>
    </rdf:RDF>
  </metadata>
  <defs
     id="defs20" />
  <sodipodi:namedview
     pagecolor="#ffffff"
     bordercolor="#666666"
     borderopacity="1"
     objecttolerance="10"
     gridtolerance="10"
     guidetolerance="10"
     inkscape:pageopacity="0"
     inkscape:pageshadow="2"
     inkscape:window-width="1366"
     inkscape:window-height="744"
     id="namedview18"
     showgrid="false"
     inkscape:zoom="0.921875"
     inkscape:cx="128"
     inkscape:cy="-46.996941"
     inkscape:window-x="0"
     inkscape:window-y="24"
     inkscape:window-maximized="1"
     inkscape:current-layer="svg2" />
  <path
     style="fill:#eee"
     d="M 42.972656 32 C 37.484375 32 32 37.484375 32 42.972656 L 32 213.332031 C 32 218.515625 37.484375 224 42.667969 224 L 213.332031 224 C 218.515625 224 224 218.515625 224 213.332031 L 224 42.667969 C 224 37.484375 218.515625 32 213.332031 32 Z "
     id="path4" />
  <path
     style="fill:#aaa"
     d="M 45.332031 32 C 41.777344 32 38.585938 33.746094 36.167969 36.167969 C 33.746094 38.585938 32 41.777344 32 45.332031 L 32 211 C 32 214.460938 33.632812 217.632812 36 220 C 38.367188 222.367188 41.539062 224 45 224 L 211 224 C 214.460938 224 217.632812 222.367188 220 220 C 222.367188 217.632812 224 214.460938 224 211 L 224 45 C 224 41.539062 222.367188 38.367188 220 36 C 217.632812 33.632812 214.460938 32 211 32 Z M 45.332031 37.332031 L 211 37.332031 C 212.578125 37.332031 214.605469 38.273438 216.167969 39.832031 C 217.726562 41.394531 218.667969 43.421875 218.667969 45 L 218.667969 211 C 218.667969 212.578125 217.726562 214.605469 216.167969 216.167969 C 214.605469 217.726562 212.578125 218.667969 211 218.667969 L 45 218.667969 C 43.421875 218.667969 41.394531 217.726562 39.832031 216.167969 C 38.273438 214.605469 37.332031 212.578125 37.332031 211 L 37.332031 45.332031 C 37.332031 43.554688 38.253906 41.414062 39.832031 39.832031 C 41.414062 38.253906 43.554688 37.332031 45.332031 37.332031 Z "
     id="path6" />
  <g
     style="fill:#888888"
     id="g8"
     transform="matrix(0.70710678,-0.70710678,0.70710678,0.70710678,-53.019336,128)">
    <path
       d="M 64,128 92.445312,99.554688 120.89063,128 92.445312,156.44531 z"
       id="path10"
       inkscape:connector-curvature="0"
       style="fill:#00a4ef;fill-opacity:1" />
    <path
       d="M 99.554688,92.445312 128,64 156.44531,92.445312 128,120.89063 z"
       id="path12"
       inkscape:connector-curvature="0"
       style="fill:#f25022;fill-opacity:1" />
    <path
       d="M 135.11328,128 163.55469,99.554688 192,128 163.55469,156.44531 z"
       id="path14"
       inkscape:connector-curvature="0"
       style="fill:#7fba00;fill-opacity:1" />
    <path
       d="M 99.554688,163.55469 128,135.10937 156.44531,163.55469 128,192 z"
       id="path16"
       inkscape:connector-curvature="0"
       style="fill:#ffb900;fill-opacity:1" />
  </g>
</svg>
