<?xml version="1.0" encoding="UTF-8" standalone="no"?>
<!-- Created with Inkscape (http://www.inkscape.org/) -->

<svg
   xmlns:dc="http://purl.org/dc/elements/1.1/"
   xmlns:cc="http://creativecommons.org/ns#"
   xmlns:rdf="http://www.w3.org/1999/02/22-rdf-syntax-ns#"
   xmlns:svg="http://www.w3.org/2000/svg"
   xmlns="http://www.w3.org/2000/svg"
   xmlns:sodipodi="http://sodipodi.sourceforge.net/DTD/sodipodi-0.dtd"
   xmlns:inkscape="http://www.inkscape.org/namespaces/inkscape"
   width="48"
   height="48"
   id="svg2"
   version="1.1"
   inkscape:version="0.48.4 r9939"
   sodipodi:docname="qtcreator.svg">
  <defs
     id="defs4">
    <inkscape:perspective
       sodipodi:type="inkscape:persp3d"
       inkscape:vp_x="-7.7001276 : 37.974237 : 1"
       inkscape:vp_y="0 : 1000 : 0"
       inkscape:vp_z="30.411512 : 39.036324 : 1"
       inkscape:persp3d-origin="32 : 21.333333 : 1"
       id="perspective3852" />
  </defs>
  <sodipodi:namedview
     id="base"
     pagecolor="#ffffff"
     bordercolor="#666666"
     borderopacity="1.0"
     inkscape:pageopacity="0.0"
     inkscape:pageshadow="2"
     inkscape:zoom="3.77"
     inkscape:cx="92.47123"
     inkscape:cy="28.877491"
     inkscape:document-units="px"
     inkscape:current-layer="layer1"
     showgrid="false"
     inkscape:window-width="1366"
     inkscape:window-height="744"
     inkscape:window-x="0"
     inkscape:window-y="24"
     inkscape:window-maximized="1">
    <inkscape:grid
       type="xygrid"
       id="grid3811"
       empspacing="1"
       visible="true"
       enabled="true"
       snapvisiblegridlinesonly="true" />
  </sodipodi:namedview>
  <metadata
     id="metadata7">
    <rdf:RDF>
      <cc:Work
         rdf:about="">
        <dc:format>image/svg+xml</dc:format>
        <dc:type
           rdf:resource="http://purl.org/dc/dcmitype/StillImage" />
        <dc:title />
      </cc:Work>
    </rdf:RDF>
  </metadata>
  <g
     inkscape:label="Calque 1"
     inkscape:groupmode="layer"
     id="layer1"
     transform="translate(0,-1004.3622)">
    <path
       style="fill:#f2f2f2;fill-opacity:1;stroke:#024c1c;stroke-width:0.73846155;stroke-opacity:1"
       d="m 0.36923077,1004.7314 32.63076923,0 14.630769,14.6308 0,32.6308 -47.26153823,0 z"
       id="rect3813"
       inkscape:connector-curvature="0"
       sodipodi:nodetypes="cccccc" />
    <path
       style="fill:#5aa72d;fill-opacity:1;stroke:#33fa79;stroke-width:0.715;stroke-miterlimit:4;stroke-opacity:1;stroke-dasharray:none"
       d="m 1.1076922,1005.4699 31.8923078,0 13.892308,13.8923 0,31.8923 -45.7846158,0 z"
       id="rect3813-9"
       inkscape:connector-curvature="0"
       sodipodi:nodetypes="cccccc" />
    <path
       d="m 16.474212,1016.3351 c -2.583557,0 -4.671138,0.9399 -6.257879,2.8195 -1.8105213,2.1419 -2.7163338,5.0446 -2.716333,8.7163 -8e-7,2.732 0.5238285,5.1068 1.5816622,7.1175 1.6070848,2.9942 4.0766488,4.4872 7.3925498,4.4872 0.716454,3.1995 2.6927,4.8825 7.340974,4.1775 l 0,-2.3208 c -2.163869,0.1994 -2.63364,-0.9899 -2.802292,-3.0946 l 0,-0.1375 c 0.650958,-0.4153 1.241842,-0.9307 1.770773,-1.5645 1.72913,-2.0763 2.59597,-4.9711 2.595989,-8.6648 -1.9e-5,-2.7537 -0.551931,-5.1239 -1.65043,-7.1346 -1.627448,-2.9287 -4.040847,-4.4012 -7.255014,-4.4012 z m 17.415472,0.9284 -3.266475,0.086 -1.083095,5.1232 -2.320917,0 0,3.8339 2.131805,0 0,7.341 c -2e-6,2.0106 0.286792,3.4205 0.842407,4.2291 0.699659,1.071 2.185718,1.599 4.469915,1.599 0.761388,0 1.704859,-0.1035 2.836676,-0.3439 l 0,-3.6447 c -0.781988,0.043 -1.362604,0.069 -1.753582,0.069 -0.637935,0 -1.090657,-0.1081 -1.358166,-0.3267 -0.329261,-0.2622 -0.498574,-0.9405 -0.498568,-2.0114 l 0,-6.9112 3.369628,0 0,-3.8339 -3.369628,0 0,-5.2091 z m -17.415472,3.3697 c 2.522509,0 3.782221,2.4202 3.782235,7.2721 -1.4e-5,4.8519 -1.259726,7.2894 -3.782235,7.2894 -2.563214,0 -3.851009,-2.4499 -3.851003,-7.3238 -6e-6,-0.1967 -6e-6,-0.3878 0,-0.5845 0.122051,-4.4366 1.409847,-6.6532 3.851003,-6.6532 z"
       inkscape:connector-curvature="0"
       id="path3665-9"
       style="font-size:136.83798218px;font-style:normal;font-variant:normal;font-weight:bold;font-stretch:normal;text-align:start;line-height:125%;writing-mode:lr-tb;text-anchor:start;fill:#ffffff;fill-opacity:1;stroke:#024c1c;stroke-width:1.5;stroke-miterlimit:4;stroke-opacity:1;stroke-dasharray:none;font-family:UnDotum;-inkscape-font-specification:UnDotum Bold" />
    <path
       d="m 17.224212,1016.1851 c -2.583557,0 -4.671138,0.9399 -6.257879,2.8195 -1.8105213,2.1419 -2.7163338,5.0446 -2.716333,8.7163 -8e-7,2.732 0.5238285,5.1068 1.5816622,7.1175 1.6070848,2.9942 4.0766488,4.4872 7.3925498,4.4872 0.716454,3.1995 2.6927,4.8825 7.340974,4.1775 l 0,-2.3208 c -2.163869,0.1994 -2.63364,-0.9899 -2.802292,-3.0946 l 0,-0.1375 c 0.650958,-0.4153 1.241842,-0.9307 1.770773,-1.5645 1.72913,-2.0763 2.59597,-4.9711 2.595989,-8.6648 -1.9e-5,-2.7537 -0.551931,-5.1239 -1.65043,-7.1346 -1.627448,-2.9287 -4.040847,-4.4012 -7.255014,-4.4012 z m 17.415472,0.9284 -3.266475,0.086 -1.083095,5.1232 -2.320917,0 0,3.8339 2.131805,0 0,7.341 c -2e-6,2.0106 0.286792,3.4205 0.842407,4.2291 0.699659,1.071 2.185718,1.599 4.469915,1.599 0.761388,0 1.704859,-0.1035 2.836676,-0.3439 l 0,-3.6447 c -0.781988,0.043 -1.362604,0.069 -1.753582,0.069 -0.637935,0 -1.090657,-0.1081 -1.358166,-0.3267 -0.329261,-0.2622 -0.498574,-0.9405 -0.498568,-2.0114 l 0,-6.9112 3.369628,0 0,-3.8339 -3.369628,0 0,-5.2091 z m -17.415472,3.3697 c 2.522509,0 3.782221,2.4202 3.782235,7.2721 -1.4e-5,4.8519 -1.259726,7.2894 -3.782235,7.2894 -2.563214,0 -3.851009,-2.4499 -3.851003,-7.3238 -6e-6,-0.1967 -6e-6,-0.3878 0,-0.5845 0.122051,-4.4366 1.409847,-6.6532 3.851003,-6.6532 z"
       inkscape:connector-curvature="0"
       id="path3665"
       style="font-size:136.83798218px;font-style:normal;font-variant:normal;font-weight:bold;font-stretch:normal;text-align:start;line-height:125%;writing-mode:lr-tb;text-anchor:start;fill:#ffffff;fill-opacity:1;stroke:none;font-family:UnDotum;-inkscape-font-specification:UnDotum Bold" />
    <g
       id="g3991"
       transform="matrix(0.75,0,0,0.75,0,263.09055)">
      <path
         inkscape:connector-curvature="0"
         id="path3106"
         d="m 44,988.36218 0,20.00002 20,0 z"
         style="fill:#ffffff;fill-opacity:1;stroke:none" />
      <path
         id="path3106-4"
         transform="translate(0,988.36218)"
         d="M 44,0 44,20 64,20 44,0 z M 45,2.40625 61.59375,19 45,19 45,2.40625 z"
         style="font-size:medium;font-style:normal;font-variant:normal;font-weight:normal;font-stretch:normal;text-indent:0;text-align:start;text-decoration:none;line-height:normal;letter-spacing:normal;word-spacing:normal;text-transform:none;direction:ltr;block-progression:tb;writing-mode:lr-tb;text-anchor:start;baseline-shift:baseline;color:#000000;fill:#024c1c;fill-opacity:1;fill-rule:nonzero;stroke:none;stroke-width:2;marker:none;visibility:visible;display:inline;overflow:visible;enable-background:accumulate;font-family:Sans;-inkscape-font-specification:Sans"
         inkscape:connector-curvature="0" />
    </g>
  </g>
</svg>
